solid airfoil_1098
  facet normal 0.00000000e+00 0.00000000e+00 -1.00000000e+00
    outer loop
      vertex 1.49412000e+02 7.95000000e-02 0.00000000e+00
      vertex 1.49442000e+02 1.45500000e-01 0.00000000e+00
      vertex 1.50000000e+02 0.00000000e+00 0.00000000e+00
    endloop
  endfacet
  facet normal 0.00000000e+00 0.00000000e+00 -1.00000000e+00
    outer loop
      vertex 1.49412000e+02 7.95000000e-02 0.00000000e+00
      vertex 1.47861000e+02 6.10500000e-01 0.00000000e+00
      vertex 1.49442000e+02 1.45500000e-01 0.00000000e+00
    endloop
  endfacet
  facet normal 0.00000000e+00 0.00000000e+00 -1.00000000e+00
    outer loop
      vertex 1.49412000e+02 7.95000000e-02 0.00000000e+00
      vertex 1.45428000e+02 1.37250000e+00 0.00000000e+00
      vertex 1.47861000e+02 6.10500000e-01 0.00000000e+00
    endloop
  endfacet
  facet normal 0.00000000e+00 0.00000000e+00 -1.00000000e+00
    outer loop
      vertex 1.49412000e+02 7.95000000e-02 0.00000000e+00
      vertex 1.42216500e+02 2.31900000e+00 0.00000000e+00
      vertex 1.45428000e+02 1.37250000e+00 0.00000000e+00
    endloop
  endfacet
  facet normal 0.00000000e+00 0.00000000e+00 -1.00000000e+00
    outer loop
      vertex 1.49412000e+02 7.95000000e-02 0.00000000e+00
      vertex 1.38220500e+02 3.41250000e+00 0.00000000e+00
      vertex 1.42216500e+02 2.31900000e+00 0.00000000e+00
    endloop
  endfacet
  facet normal 0.00000000e+00 0.00000000e+00 -1.00000000e+00
    outer loop
      vertex 1.49412000e+02 7.95000000e-02 0.00000000e+00
      vertex 1.33482000e+02 4.68150000e+00 0.00000000e+00
      vertex 1.38220500e+02 3.41250000e+00 0.00000000e+00
    endloop
  endfacet
  facet normal 0.00000000e+00 0.00000000e+00 -1.00000000e+00
    outer loop
      vertex 1.49412000e+02 7.95000000e-02 0.00000000e+00
      vertex 1.28104500e+02 6.13200000e+00 0.00000000e+00
      vertex 1.33482000e+02 4.68150000e+00 0.00000000e+00
    endloop
  endfacet
  facet normal 0.00000000e+00 0.00000000e+00 -1.00000000e+00
    outer loop
      vertex 1.49412000e+02 7.95000000e-02 0.00000000e+00
      vertex 1.22194500e+02 7.74300000e+00 0.00000000e+00
      vertex 1.28104500e+02 6.13200000e+00 0.00000000e+00
    endloop
  endfacet
  facet normal 0.00000000e+00 0.00000000e+00 -1.00000000e+00
    outer loop
      vertex 1.49412000e+02 7.95000000e-02 0.00000000e+00
      vertex 1.15867500e+02 9.48000000e+00 0.00000000e+00
      vertex 1.22194500e+02 7.74300000e+00 0.00000000e+00
    endloop
  endfacet
  facet normal 0.00000000e+00 0.00000000e+00 -1.00000000e+00
    outer loop
      vertex 1.49412000e+02 7.95000000e-02 0.00000000e+00
      vertex 1.09234500e+02 1.12935000e+01 0.00000000e+00
      vertex 1.15867500e+02 9.48000000e+00 0.00000000e+00
    endloop
  endfacet
  facet normal 0.00000000e+00 0.00000000e+00 -1.00000000e+00
    outer loop
      vertex 1.49412000e+02 7.95000000e-02 0.00000000e+00
      vertex 1.02411000e+02 1.31190000e+01 0.00000000e+00
      vertex 1.09234500e+02 1.12935000e+01 0.00000000e+00
    endloop
  endfacet
  facet normal 0.00000000e+00 0.00000000e+00 -1.00000000e+00
    outer loop
      vertex 1.49412000e+02 7.95000000e-02 0.00000000e+00
      vertex 9.55020000e+01 1.48800000e+01 0.00000000e+00
      vertex 1.02411000e+02 1.31190000e+01 0.00000000e+00
    endloop
  endfacet
  facet normal 0.00000000e+00 0.00000000e+00 -1.00000000e+00
    outer loop
      vertex 1.49412000e+02 7.95000000e-02 0.00000000e+00
      vertex 8.86065000e+01 1.64895000e+01 0.00000000e+00
      vertex 9.55020000e+01 1.48800000e+01 0.00000000e+00
    endloop
  endfacet
  facet normal 0.00000000e+00 0.00000000e+00 -1.00000000e+00
    outer loop
      vertex 1.49412000e+02 7.95000000e-02 0.00000000e+00
      vertex 8.18145000e+01 1.78170000e+01 0.00000000e+00
      vertex 8.86065000e+01 1.64895000e+01 0.00000000e+00
    endloop
  endfacet
  facet normal 0.00000000e+00 0.00000000e+00 -1.00000000e+00
    outer loop
      vertex 1.49412000e+02 7.95000000e-02 0.00000000e+00
      vertex 7.51020000e+01 1.87080000e+01 0.00000000e+00
      vertex 8.18145000e+01 1.78170000e+01 0.00000000e+00
    endloop
  endfacet
  facet normal 0.00000000e+00 0.00000000e+00 -1.00000000e+00
    outer loop
      vertex 1.49412000e+02 7.95000000e-02 0.00000000e+00
      vertex 6.83595000e+01 1.91445000e+01 0.00000000e+00
      vertex 7.51020000e+01 1.87080000e+01 0.00000000e+00
    endloop
  endfacet
  facet normal 0.00000000e+00 0.00000000e+00 -1.00000000e+00
    outer loop
      vertex 1.49412000e+02 7.95000000e-02 0.00000000e+00
      vertex 6.15810000e+01 1.92285000e+01 0.00000000e+00
      vertex 6.83595000e+01 1.91445000e+01 0.00000000e+00
    endloop
  endfacet
  facet normal 0.00000000e+00 0.00000000e+00 -1.00000000e+00
    outer loop
      vertex 1.49412000e+02 7.95000000e-02 0.00000000e+00
      vertex 5.48475000e+01 1.90230000e+01 0.00000000e+00
      vertex 6.15810000e+01 1.92285000e+01 0.00000000e+00
    endloop
  endfacet
  facet normal 0.00000000e+00 0.00000000e+00 -1.00000000e+00
    outer loop
      vertex 1.49412000e+02 7.95000000e-02 0.00000000e+00
      vertex 4.82355000e+01 1.85505000e+01 0.00000000e+00
      vertex 5.48475000e+01 1.90230000e+01 0.00000000e+00
    endloop
  endfacet
  facet normal 0.00000000e+00 0.00000000e+00 -1.00000000e+00
    outer loop
      vertex 1.49412000e+02 7.95000000e-02 0.00000000e+00
      vertex 4.18170000e+01 1.78365000e+01 0.00000000e+00
      vertex 4.82355000e+01 1.85505000e+01 0.00000000e+00
    endloop
  endfacet
  facet normal 0.00000000e+00 0.00000000e+00 -1.00000000e+00
    outer loop
      vertex 1.49412000e+02 7.95000000e-02 0.00000000e+00
      vertex 3.56655000e+01 1.69005000e+01 0.00000000e+00
      vertex 4.18170000e+01 1.78365000e+01 0.00000000e+00
    endloop
  endfacet
  facet normal 0.00000000e+00 0.00000000e+00 -1.00000000e+00
    outer loop
      vertex 1.49412000e+02 7.95000000e-02 0.00000000e+00
      vertex 2.98440000e+01 1.57650000e+01 0.00000000e+00
      vertex 3.56655000e+01 1.69005000e+01 0.00000000e+00
    endloop
  endfacet
  facet normal 0.00000000e+00 0.00000000e+00 -1.00000000e+00
    outer loop
      vertex 1.49412000e+02 7.95000000e-02 0.00000000e+00
      vertex 2.44200000e+01 1.44465000e+01 0.00000000e+00
      vertex 2.98440000e+01 1.57650000e+01 0.00000000e+00
    endloop
  endfacet
  facet normal 0.00000000e+00 0.00000000e+00 -1.00000000e+00
    outer loop
      vertex 2.44200000e+01 1.44465000e+01 0.00000000e+00
      vertex 1.49565000e+01 1.13295000e+01 0.00000000e+00
      vertex 1.94445000e+01 1.29600000e+01 0.00000000e+00
    endloop
  endfacet
  facet normal 0.00000000e+00 0.00000000e+00 -1.00000000e+00
    outer loop
      vertex 2.44200000e+01 1.44465000e+01 0.00000000e+00
      vertex 1.09920000e+01 9.59550000e+00 0.00000000e+00
      vertex 1.49565000e+01 1.13295000e+01 0.00000000e+00
    endloop
  endfacet
  facet normal 0.00000000e+00 0.00000000e+00 -1.00000000e+00
    outer loop
      vertex 2.44200000e+01 1.44465000e+01 0.00000000e+00
      vertex 7.59600000e+00 7.79700000e+00 0.00000000e+00
      vertex 1.09920000e+01 9.59550000e+00 0.00000000e+00
    endloop
  endfacet
  facet normal 0.00000000e+00 0.00000000e+00 -1.00000000e+00
    outer loop
      vertex 2.44200000e+01 1.44465000e+01 0.00000000e+00
      vertex 4.80450000e+00 5.96250000e+00 0.00000000e+00
      vertex 7.59600000e+00 7.79700000e+00 0.00000000e+00
    endloop
  endfacet
  facet normal 0.00000000e+00 0.00000000e+00 -1.00000000e+00
    outer loop
      vertex 2.44200000e+01 1.44465000e+01 0.00000000e+00
      vertex 2.62950000e+00 4.13250000e+00 0.00000000e+00
      vertex 4.80450000e+00 5.96250000e+00 0.00000000e+00
    endloop
  endfacet
  facet normal 0.00000000e+00 0.00000000e+00 -1.00000000e+00
    outer loop
      vertex 2.44200000e+01 1.44465000e+01 0.00000000e+00
      vertex 1.08000000e+00 2.37750000e+00 0.00000000e+00
      vertex 2.62950000e+00 4.13250000e+00 0.00000000e+00
    endloop
  endfacet
  facet normal 0.00000000e+00 0.00000000e+00 -1.00000000e+00
    outer loop
      vertex 2.44200000e+01 1.44465000e+01 0.00000000e+00
      vertex 1.90500000e-01 7.93500000e-01 0.00000000e+00
      vertex 1.08000000e+00 2.37750000e+00 0.00000000e+00
    endloop
  endfacet
  facet normal 0.00000000e+00 0.00000000e+00 -1.00000000e+00
    outer loop
      vertex 2.44200000e+01 1.44465000e+01 0.00000000e+00
      vertex 7.05000000e-02 -4.47000000e-01 0.00000000e+00
      vertex 1.90500000e-01 7.93500000e-01 0.00000000e+00
    endloop
  endfacet
  facet normal 0.00000000e+00 0.00000000e+00 -1.00000000e+00
    outer loop
      vertex 2.44200000e+01 1.44465000e+01 0.00000000e+00
      vertex 9.42000000e-01 -1.48350000e+00 0.00000000e+00
      vertex 7.05000000e-02 -4.47000000e-01 0.00000000e+00
    endloop
  endfacet
  facet normal 0.00000000e+00 0.00000000e+00 -1.00000000e+00
    outer loop
      vertex 2.44200000e+01 1.44465000e+01 0.00000000e+00
      vertex 2.80200000e+00 -2.56200000e+00 0.00000000e+00
      vertex 9.42000000e-01 -1.48350000e+00 0.00000000e+00
    endloop
  endfacet
  facet normal 0.00000000e+00 0.00000000e+00 -1.00000000e+00
    outer loop
      vertex 2.44200000e+01 1.44465000e+01 0.00000000e+00
      vertex 5.46750000e+00 -3.64650000e+00 0.00000000e+00
      vertex 2.80200000e+00 -2.56200000e+00 0.00000000e+00
    endloop
  endfacet
  facet normal 0.00000000e+00 0.00000000e+00 -1.00000000e+00
    outer loop
      vertex 2.44200000e+01 1.44465000e+01 0.00000000e+00
      vertex 8.87400000e+00 -4.70250000e+00 0.00000000e+00
      vertex 5.46750000e+00 -3.64650000e+00 0.00000000e+00
    endloop
  endfacet
  facet normal 0.00000000e+00 0.00000000e+00 -1.00000000e+00
    outer loop
      vertex 2.44200000e+01 1.44465000e+01 0.00000000e+00
      vertex 1.29645000e+01 -5.70300000e+00 0.00000000e+00
      vertex 8.87400000e+00 -4.70250000e+00 0.00000000e+00
    endloop
  endfacet
  facet normal 0.00000000e+00 0.00000000e+00 -1.00000000e+00
    outer loop
      vertex 2.44200000e+01 1.44465000e+01 0.00000000e+00
      vertex 1.76820000e+01 -6.62850000e+00 0.00000000e+00
      vertex 1.29645000e+01 -5.70300000e+00 0.00000000e+00
    endloop
  endfacet
  facet normal 0.00000000e+00 0.00000000e+00 -1.00000000e+00
    outer loop
      vertex 2.44200000e+01 1.44465000e+01 0.00000000e+00
      vertex 2.29650000e+01 -7.45650000e+00 0.00000000e+00
      vertex 1.76820000e+01 -6.62850000e+00 0.00000000e+00
    endloop
  endfacet
  facet normal 0.00000000e+00 -0.00000000e+00 -1.00000000e+00
    outer loop
      vertex 2.44200000e+01 1.44465000e+01 0.00000000e+00
      vertex 2.87490000e+01 -8.16750000e+00 0.00000000e+00
      vertex 2.29650000e+01 -7.45650000e+00 0.00000000e+00
    endloop
  endfacet
  facet normal 0.00000000e+00 0.00000000e+00 -1.00000000e+00
    outer loop
      vertex 2.44200000e+01 1.44465000e+01 0.00000000e+00
      vertex 3.49605000e+01 -8.74050000e+00 0.00000000e+00
      vertex 2.87490000e+01 -8.16750000e+00 0.00000000e+00
    endloop
  endfacet
  facet normal 0.00000000e+00 0.00000000e+00 -1.00000000e+00
    outer loop
      vertex 2.44200000e+01 1.44465000e+01 0.00000000e+00
      vertex 4.15275000e+01 -9.15300000e+00 0.00000000e+00
      vertex 3.49605000e+01 -8.74050000e+00 0.00000000e+00
    endloop
  endfacet
  facet normal 0.00000000e+00 0.00000000e+00 -1.00000000e+00
    outer loop
      vertex 2.44200000e+01 1.44465000e+01 0.00000000e+00
      vertex 4.83705000e+01 -9.38100000e+00 0.00000000e+00
      vertex 4.15275000e+01 -9.15300000e+00 0.00000000e+00
    endloop
  endfacet
  facet normal 0.00000000e+00 0.00000000e+00 -1.00000000e+00
    outer loop
      vertex 2.44200000e+01 1.44465000e+01 0.00000000e+00
      vertex 5.54040000e+01 -9.39300000e+00 0.00000000e+00
      vertex 4.83705000e+01 -9.38100000e+00 0.00000000e+00
    endloop
  endfacet
  facet normal 0.00000000e+00 0.00000000e+00 -1.00000000e+00
    outer loop
      vertex 2.44200000e+01 1.44465000e+01 0.00000000e+00
      vertex 6.25395000e+01 -9.11850000e+00 0.00000000e+00
      vertex 5.54040000e+01 -9.39300000e+00 0.00000000e+00
    endloop
  endfacet
  facet normal 0.00000000e+00 0.00000000e+00 -1.00000000e+00
    outer loop
      vertex 2.44200000e+01 1.44465000e+01 0.00000000e+00
      vertex 6.97860000e+01 -8.44200000e+00 0.00000000e+00
      vertex 6.25395000e+01 -9.11850000e+00 0.00000000e+00
    endloop
  endfacet
  facet normal 0.00000000e+00 0.00000000e+00 -1.00000000e+00
    outer loop
      vertex 2.44200000e+01 1.44465000e+01 0.00000000e+00
      vertex 7.72635000e+01 -7.38300000e+00 0.00000000e+00
      vertex 6.97860000e+01 -8.44200000e+00 0.00000000e+00
    endloop
  endfacet
  facet normal 0.00000000e+00 0.00000000e+00 -1.00000000e+00
    outer loop
      vertex 2.44200000e+01 1.44465000e+01 0.00000000e+00
      vertex 8.49945000e+01 -6.11100000e+00 0.00000000e+00
      vertex 7.72635000e+01 -7.38300000e+00 0.00000000e+00
    endloop
  endfacet
  facet normal 0.00000000e+00 0.00000000e+00 -1.00000000e+00
    outer loop
      vertex 2.44200000e+01 1.44465000e+01 0.00000000e+00
      vertex 9.28755000e+01 -4.76850000e+00 0.00000000e+00
      vertex 8.49945000e+01 -6.11100000e+00 0.00000000e+00
    endloop
  endfacet
  facet normal 0.00000000e+00 0.00000000e+00 -1.00000000e+00
    outer loop
      vertex 2.44200000e+01 1.44465000e+01 0.00000000e+00
      vertex 1.00785000e+02 -3.45450000e+00 0.00000000e+00
      vertex 9.28755000e+01 -4.76850000e+00 0.00000000e+00
    endloop
  endfacet
  facet normal 0.00000000e+00 0.00000000e+00 -1.00000000e+00
    outer loop
      vertex 2.44200000e+01 1.44465000e+01 0.00000000e+00
      vertex 1.08586500e+02 -2.25150000e+00 0.00000000e+00
      vertex 1.00785000e+02 -3.45450000e+00 0.00000000e+00
    endloop
  endfacet
  facet normal 0.00000000e+00 0.00000000e+00 -1.00000000e+00
    outer loop
      vertex 2.44200000e+01 1.44465000e+01 0.00000000e+00
      vertex 1.16133000e+02 -1.22550000e+00 0.00000000e+00
      vertex 1.08586500e+02 -2.25150000e+00 0.00000000e+00
    endloop
  endfacet
  facet normal 0.00000000e+00 0.00000000e+00 -1.00000000e+00
    outer loop
      vertex 2.44200000e+01 1.44465000e+01 0.00000000e+00
      vertex 1.23271500e+02 -4.20000000e-01 0.00000000e+00
      vertex 1.16133000e+02 -1.22550000e+00 0.00000000e+00
    endloop
  endfacet
  facet normal 0.00000000e+00 0.00000000e+00 -1.00000000e+00
    outer loop
      vertex 2.44200000e+01 1.44465000e+01 0.00000000e+00
      vertex 1.29847500e+02 1.39500000e-01 0.00000000e+00
      vertex 1.23271500e+02 -4.20000000e-01 0.00000000e+00
    endloop
  endfacet
  facet normal 0.00000000e+00 0.00000000e+00 -1.00000000e+00
    outer loop
      vertex 2.44200000e+01 1.44465000e+01 0.00000000e+00
      vertex 1.35708000e+02 4.54500000e-01 0.00000000e+00
      vertex 1.29847500e+02 1.39500000e-01 0.00000000e+00
    endloop
  endfacet
  facet normal 0.00000000e+00 0.00000000e+00 -1.00000000e+00
    outer loop
      vertex 2.44200000e+01 1.44465000e+01 0.00000000e+00
      vertex 1.40712000e+02 5.46000000e-01 0.00000000e+00
      vertex 1.35708000e+02 4.54500000e-01 0.00000000e+00
    endloop
  endfacet
  facet normal 0.00000000e+00 0.00000000e+00 -1.00000000e+00
    outer loop
      vertex 2.44200000e+01 1.44465000e+01 0.00000000e+00
      vertex 1.44729000e+02 4.56000000e-01 0.00000000e+00
      vertex 1.40712000e+02 5.46000000e-01 0.00000000e+00
    endloop
  endfacet
  facet normal 0.00000000e+00 0.00000000e+00 -1.00000000e+00
    outer loop
      vertex 2.44200000e+01 1.44465000e+01 0.00000000e+00
      vertex 1.47649500e+02 2.65500000e-01 0.00000000e+00
      vertex 1.44729000e+02 4.56000000e-01 0.00000000e+00
    endloop
  endfacet
  facet normal 0.00000000e+00 0.00000000e+00 -1.00000000e+00
    outer loop
      vertex 2.44200000e+01 1.44465000e+01 0.00000000e+00
      vertex 1.49412000e+02 7.95000000e-02 0.00000000e+00
      vertex 1.47649500e+02 2.65500000e-01 0.00000000e+00
    endloop
  endfacet
  facet normal -0.00000000e+00 0.00000000e+00 1.00000000e+00
    outer loop
      vertex 1.49412000e+02 7.95000000e-02 4.00000000e+01
      vertex 1.50000000e+02 0.00000000e+00 4.00000000e+01
      vertex 1.49442000e+02 1.45500000e-01 4.00000000e+01
    endloop
  endfacet
  facet normal 0.00000000e+00 -0.00000000e+00 1.00000000e+00
    outer loop
      vertex 1.49412000e+02 7.95000000e-02 4.00000000e+01
      vertex 1.49442000e+02 1.45500000e-01 4.00000000e+01
      vertex 1.47861000e+02 6.10500000e-01 4.00000000e+01
    endloop
  endfacet
  facet normal 0.00000000e+00 0.00000000e+00 1.00000000e+00
    outer loop
      vertex 1.49412000e+02 7.95000000e-02 4.00000000e+01
      vertex 1.47861000e+02 6.10500000e-01 4.00000000e+01
      vertex 1.45428000e+02 1.37250000e+00 4.00000000e+01
    endloop
  endfacet
  facet normal 0.00000000e+00 0.00000000e+00 1.00000000e+00
    outer loop
      vertex 1.49412000e+02 7.95000000e-02 4.00000000e+01
      vertex 1.45428000e+02 1.37250000e+00 4.00000000e+01
      vertex 1.42216500e+02 2.31900000e+00 4.00000000e+01
    endloop
  endfacet
  facet normal 0.00000000e+00 0.00000000e+00 1.00000000e+00
    outer loop
      vertex 1.49412000e+02 7.95000000e-02 4.00000000e+01
      vertex 1.42216500e+02 2.31900000e+00 4.00000000e+01
      vertex 1.38220500e+02 3.41250000e+00 4.00000000e+01
    endloop
  endfacet
  facet normal 0.00000000e+00 0.00000000e+00 1.00000000e+00
    outer loop
      vertex 1.49412000e+02 7.95000000e-02 4.00000000e+01
      vertex 1.38220500e+02 3.41250000e+00 4.00000000e+01
      vertex 1.33482000e+02 4.68150000e+00 4.00000000e+01
    endloop
  endfacet
  facet normal 0.00000000e+00 0.00000000e+00 1.00000000e+00
    outer loop
      vertex 1.49412000e+02 7.95000000e-02 4.00000000e+01
      vertex 1.33482000e+02 4.68150000e+00 4.00000000e+01
      vertex 1.28104500e+02 6.13200000e+00 4.00000000e+01
    endloop
  endfacet
  facet normal 0.00000000e+00 0.00000000e+00 1.00000000e+00
    outer loop
      vertex 1.49412000e+02 7.95000000e-02 4.00000000e+01
      vertex 1.28104500e+02 6.13200000e+00 4.00000000e+01
      vertex 1.22194500e+02 7.74300000e+00 4.00000000e+01
    endloop
  endfacet
  facet normal 0.00000000e+00 0.00000000e+00 1.00000000e+00
    outer loop
      vertex 1.49412000e+02 7.95000000e-02 4.00000000e+01
      vertex 1.22194500e+02 7.74300000e+00 4.00000000e+01
      vertex 1.15867500e+02 9.48000000e+00 4.00000000e+01
    endloop
  endfacet
  facet normal 0.00000000e+00 0.00000000e+00 1.00000000e+00
    outer loop
      vertex 1.49412000e+02 7.95000000e-02 4.00000000e+01
      vertex 1.15867500e+02 9.48000000e+00 4.00000000e+01
      vertex 1.09234500e+02 1.12935000e+01 4.00000000e+01
    endloop
  endfacet
  facet normal 0.00000000e+00 0.00000000e+00 1.00000000e+00
    outer loop
      vertex 1.49412000e+02 7.95000000e-02 4.00000000e+01
      vertex 1.09234500e+02 1.12935000e+01 4.00000000e+01
      vertex 1.02411000e+02 1.31190000e+01 4.00000000e+01
    endloop
  endfacet
  facet normal 0.00000000e+00 0.00000000e+00 1.00000000e+00
    outer loop
      vertex 1.49412000e+02 7.95000000e-02 4.00000000e+01
      vertex 1.02411000e+02 1.31190000e+01 4.00000000e+01
      vertex 9.55020000e+01 1.48800000e+01 4.00000000e+01
    endloop
  endfacet
  facet normal 0.00000000e+00 0.00000000e+00 1.00000000e+00
    outer loop
      vertex 1.49412000e+02 7.95000000e-02 4.00000000e+01
      vertex 9.55020000e+01 1.48800000e+01 4.00000000e+01
      vertex 8.86065000e+01 1.64895000e+01 4.00000000e+01
    endloop
  endfacet
  facet normal 0.00000000e+00 0.00000000e+00 1.00000000e+00
    outer loop
      vertex 1.49412000e+02 7.95000000e-02 4.00000000e+01
      vertex 8.86065000e+01 1.64895000e+01 4.00000000e+01
      vertex 8.18145000e+01 1.78170000e+01 4.00000000e+01
    endloop
  endfacet
  facet normal 0.00000000e+00 0.00000000e+00 1.00000000e+00
    outer loop
      vertex 1.49412000e+02 7.95000000e-02 4.00000000e+01
      vertex 8.18145000e+01 1.78170000e+01 4.00000000e+01
      vertex 7.51020000e+01 1.87080000e+01 4.00000000e+01
    endloop
  endfacet
  facet normal 0.00000000e+00 0.00000000e+00 1.00000000e+00
    outer loop
      vertex 1.49412000e+02 7.95000000e-02 4.00000000e+01
      vertex 7.51020000e+01 1.87080000e+01 4.00000000e+01
      vertex 6.83595000e+01 1.91445000e+01 4.00000000e+01
    endloop
  endfacet
  facet normal 0.00000000e+00 0.00000000e+00 1.00000000e+00
    outer loop
      vertex 1.49412000e+02 7.95000000e-02 4.00000000e+01
      vertex 6.83595000e+01 1.91445000e+01 4.00000000e+01
      vertex 6.15810000e+01 1.92285000e+01 4.00000000e+01
    endloop
  endfacet
  facet normal 0.00000000e+00 0.00000000e+00 1.00000000e+00
    outer loop
      vertex 1.49412000e+02 7.95000000e-02 4.00000000e+01
      vertex 6.15810000e+01 1.92285000e+01 4.00000000e+01
      vertex 5.48475000e+01 1.90230000e+01 4.00000000e+01
    endloop
  endfacet
  facet normal 0.00000000e+00 0.00000000e+00 1.00000000e+00
    outer loop
      vertex 1.49412000e+02 7.95000000e-02 4.00000000e+01
      vertex 5.48475000e+01 1.90230000e+01 4.00000000e+01
      vertex 4.82355000e+01 1.85505000e+01 4.00000000e+01
    endloop
  endfacet
  facet normal 0.00000000e+00 0.00000000e+00 1.00000000e+00
    outer loop
      vertex 1.49412000e+02 7.95000000e-02 4.00000000e+01
      vertex 4.82355000e+01 1.85505000e+01 4.00000000e+01
      vertex 4.18170000e+01 1.78365000e+01 4.00000000e+01
    endloop
  endfacet
  facet normal 0.00000000e+00 0.00000000e+00 1.00000000e+00
    outer loop
      vertex 1.49412000e+02 7.95000000e-02 4.00000000e+01
      vertex 4.18170000e+01 1.78365000e+01 4.00000000e+01
      vertex 3.56655000e+01 1.69005000e+01 4.00000000e+01
    endloop
  endfacet
  facet normal 0.00000000e+00 0.00000000e+00 1.00000000e+00
    outer loop
      vertex 1.49412000e+02 7.95000000e-02 4.00000000e+01
      vertex 3.56655000e+01 1.69005000e+01 4.00000000e+01
      vertex 2.98440000e+01 1.57650000e+01 4.00000000e+01
    endloop
  endfacet
  facet normal 0.00000000e+00 0.00000000e+00 1.00000000e+00
    outer loop
      vertex 1.49412000e+02 7.95000000e-02 4.00000000e+01
      vertex 2.98440000e+01 1.57650000e+01 4.00000000e+01
      vertex 2.44200000e+01 1.44465000e+01 4.00000000e+01
    endloop
  endfacet
  facet normal 0.00000000e+00 0.00000000e+00 1.00000000e+00
    outer loop
      vertex 2.44200000e+01 1.44465000e+01 4.00000000e+01
      vertex 1.94445000e+01 1.29600000e+01 4.00000000e+01
      vertex 1.49565000e+01 1.13295000e+01 4.00000000e+01
    endloop
  endfacet
  facet normal 0.00000000e+00 0.00000000e+00 1.00000000e+00
    outer loop
      vertex 2.44200000e+01 1.44465000e+01 4.00000000e+01
      vertex 1.49565000e+01 1.13295000e+01 4.00000000e+01
      vertex 1.09920000e+01 9.59550000e+00 4.00000000e+01
    endloop
  endfacet
  facet normal 0.00000000e+00 0.00000000e+00 1.00000000e+00
    outer loop
      vertex 2.44200000e+01 1.44465000e+01 4.00000000e+01
      vertex 1.09920000e+01 9.59550000e+00 4.00000000e+01
      vertex 7.59600000e+00 7.79700000e+00 4.00000000e+01
    endloop
  endfacet
  facet normal 0.00000000e+00 0.00000000e+00 1.00000000e+00
    outer loop
      vertex 2.44200000e+01 1.44465000e+01 4.00000000e+01
      vertex 7.59600000e+00 7.79700000e+00 4.00000000e+01
      vertex 4.80450000e+00 5.96250000e+00 4.00000000e+01
    endloop
  endfacet
  facet normal 0.00000000e+00 0.00000000e+00 1.00000000e+00
    outer loop
      vertex 2.44200000e+01 1.44465000e+01 4.00000000e+01
      vertex 4.80450000e+00 5.96250000e+00 4.00000000e+01
      vertex 2.62950000e+00 4.13250000e+00 4.00000000e+01
    endloop
  endfacet
  facet normal 0.00000000e+00 0.00000000e+00 1.00000000e+00
    outer loop
      vertex 2.44200000e+01 1.44465000e+01 4.00000000e+01
      vertex 2.62950000e+00 4.13250000e+00 4.00000000e+01
      vertex 1.08000000e+00 2.37750000e+00 4.00000000e+01
    endloop
  endfacet
  facet normal 0.00000000e+00 0.00000000e+00 1.00000000e+00
    outer loop
      vertex 2.44200000e+01 1.44465000e+01 4.00000000e+01
      vertex 1.08000000e+00 2.37750000e+00 4.00000000e+01
      vertex 1.90500000e-01 7.93500000e-01 4.00000000e+01
    endloop
  endfacet
  facet normal 0.00000000e+00 0.00000000e+00 1.00000000e+00
    outer loop
      vertex 2.44200000e+01 1.44465000e+01 4.00000000e+01
      vertex 1.90500000e-01 7.93500000e-01 4.00000000e+01
      vertex 7.05000000e-02 -4.47000000e-01 4.00000000e+01
    endloop
  endfacet
  facet normal 0.00000000e+00 0.00000000e+00 1.00000000e+00
    outer loop
      vertex 2.44200000e+01 1.44465000e+01 4.00000000e+01
      vertex 7.05000000e-02 -4.47000000e-01 4.00000000e+01
      vertex 9.42000000e-01 -1.48350000e+00 4.00000000e+01
    endloop
  endfacet
  facet normal 0.00000000e+00 0.00000000e+00 1.00000000e+00
    outer loop
      vertex 2.44200000e+01 1.44465000e+01 4.00000000e+01
      vertex 9.42000000e-01 -1.48350000e+00 4.00000000e+01
      vertex 2.80200000e+00 -2.56200000e+00 4.00000000e+01
    endloop
  endfacet
  facet normal 0.00000000e+00 0.00000000e+00 1.00000000e+00
    outer loop
      vertex 2.44200000e+01 1.44465000e+01 4.00000000e+01
      vertex 2.80200000e+00 -2.56200000e+00 4.00000000e+01
      vertex 5.46750000e+00 -3.64650000e+00 4.00000000e+01
    endloop
  endfacet
  facet normal 0.00000000e+00 0.00000000e+00 1.00000000e+00
    outer loop
      vertex 2.44200000e+01 1.44465000e+01 4.00000000e+01
      vertex 5.46750000e+00 -3.64650000e+00 4.00000000e+01
      vertex 8.87400000e+00 -4.70250000e+00 4.00000000e+01
    endloop
  endfacet
  facet normal 0.00000000e+00 0.00000000e+00 1.00000000e+00
    outer loop
      vertex 2.44200000e+01 1.44465000e+01 4.00000000e+01
      vertex 8.87400000e+00 -4.70250000e+00 4.00000000e+01
      vertex 1.29645000e+01 -5.70300000e+00 4.00000000e+01
    endloop
  endfacet
  facet normal 0.00000000e+00 0.00000000e+00 1.00000000e+00
    outer loop
      vertex 2.44200000e+01 1.44465000e+01 4.00000000e+01
      vertex 1.29645000e+01 -5.70300000e+00 4.00000000e+01
      vertex 1.76820000e+01 -6.62850000e+00 4.00000000e+01
    endloop
  endfacet
  facet normal 0.00000000e+00 0.00000000e+00 1.00000000e+00
    outer loop
      vertex 2.44200000e+01 1.44465000e+01 4.00000000e+01
      vertex 1.76820000e+01 -6.62850000e+00 4.00000000e+01
      vertex 2.29650000e+01 -7.45650000e+00 4.00000000e+01
    endloop
  endfacet
  facet normal 0.00000000e+00 0.00000000e+00 1.00000000e+00
    outer loop
      vertex 2.44200000e+01 1.44465000e+01 4.00000000e+01
      vertex 2.29650000e+01 -7.45650000e+00 4.00000000e+01
      vertex 2.87490000e+01 -8.16750000e+00 4.00000000e+01
    endloop
  endfacet
  facet normal 0.00000000e+00 0.00000000e+00 1.00000000e+00
    outer loop
      vertex 2.44200000e+01 1.44465000e+01 4.00000000e+01
      vertex 2.87490000e+01 -8.16750000e+00 4.00000000e+01
      vertex 3.49605000e+01 -8.74050000e+00 4.00000000e+01
    endloop
  endfacet
  facet normal 0.00000000e+00 0.00000000e+00 1.00000000e+00
    outer loop
      vertex 2.44200000e+01 1.44465000e+01 4.00000000e+01
      vertex 3.49605000e+01 -8.74050000e+00 4.00000000e+01
      vertex 4.15275000e+01 -9.15300000e+00 4.00000000e+01
    endloop
  endfacet
  facet normal 0.00000000e+00 0.00000000e+00 1.00000000e+00
    outer loop
      vertex 2.44200000e+01 1.44465000e+01 4.00000000e+01
      vertex 4.15275000e+01 -9.15300000e+00 4.00000000e+01
      vertex 4.83705000e+01 -9.38100000e+00 4.00000000e+01
    endloop
  endfacet
  facet normal 0.00000000e+00 0.00000000e+00 1.00000000e+00
    outer loop
      vertex 2.44200000e+01 1.44465000e+01 4.00000000e+01
      vertex 4.83705000e+01 -9.38100000e+00 4.00000000e+01
      vertex 5.54040000e+01 -9.39300000e+00 4.00000000e+01
    endloop
  endfacet
  facet normal 0.00000000e+00 0.00000000e+00 1.00000000e+00
    outer loop
      vertex 2.44200000e+01 1.44465000e+01 4.00000000e+01
      vertex 5.54040000e+01 -9.39300000e+00 4.00000000e+01
      vertex 6.25395000e+01 -9.11850000e+00 4.00000000e+01
    endloop
  endfacet
  facet normal 0.00000000e+00 0.00000000e+00 1.00000000e+00
    outer loop
      vertex 2.44200000e+01 1.44465000e+01 4.00000000e+01
      vertex 6.25395000e+01 -9.11850000e+00 4.00000000e+01
      vertex 6.97860000e+01 -8.44200000e+00 4.00000000e+01
    endloop
  endfacet
  facet normal 0.00000000e+00 0.00000000e+00 1.00000000e+00
    outer loop
      vertex 2.44200000e+01 1.44465000e+01 4.00000000e+01
      vertex 6.97860000e+01 -8.44200000e+00 4.00000000e+01
      vertex 7.72635000e+01 -7.38300000e+00 4.00000000e+01
    endloop
  endfacet
  facet normal 0.00000000e+00 0.00000000e+00 1.00000000e+00
    outer loop
      vertex 2.44200000e+01 1.44465000e+01 4.00000000e+01
      vertex 7.72635000e+01 -7.38300000e+00 4.00000000e+01
      vertex 8.49945000e+01 -6.11100000e+00 4.00000000e+01
    endloop
  endfacet
  facet normal 0.00000000e+00 0.00000000e+00 1.00000000e+00
    outer loop
      vertex 2.44200000e+01 1.44465000e+01 4.00000000e+01
      vertex 8.49945000e+01 -6.11100000e+00 4.00000000e+01
      vertex 9.28755000e+01 -4.76850000e+00 4.00000000e+01
    endloop
  endfacet
  facet normal 0.00000000e+00 0.00000000e+00 1.00000000e+00
    outer loop
      vertex 2.44200000e+01 1.44465000e+01 4.00000000e+01
      vertex 9.28755000e+01 -4.76850000e+00 4.00000000e+01
      vertex 1.00785000e+02 -3.45450000e+00 4.00000000e+01
    endloop
  endfacet
  facet normal 0.00000000e+00 0.00000000e+00 1.00000000e+00
    outer loop
      vertex 2.44200000e+01 1.44465000e+01 4.00000000e+01
      vertex 1.00785000e+02 -3.45450000e+00 4.00000000e+01
      vertex 1.08586500e+02 -2.25150000e+00 4.00000000e+01
    endloop
  endfacet
  facet normal 0.00000000e+00 0.00000000e+00 1.00000000e+00
    outer loop
      vertex 2.44200000e+01 1.44465000e+01 4.00000000e+01
      vertex 1.08586500e+02 -2.25150000e+00 4.00000000e+01
      vertex 1.16133000e+02 -1.22550000e+00 4.00000000e+01
    endloop
  endfacet
  facet normal 0.00000000e+00 0.00000000e+00 1.00000000e+00
    outer loop
      vertex 2.44200000e+01 1.44465000e+01 4.00000000e+01
      vertex 1.16133000e+02 -1.22550000e+00 4.00000000e+01
      vertex 1.23271500e+02 -4.20000000e-01 4.00000000e+01
    endloop
  endfacet
  facet normal 0.00000000e+00 0.00000000e+00 1.00000000e+00
    outer loop
      vertex 2.44200000e+01 1.44465000e+01 4.00000000e+01
      vertex 1.23271500e+02 -4.20000000e-01 4.00000000e+01
      vertex 1.29847500e+02 1.39500000e-01 4.00000000e+01
    endloop
  endfacet
  facet normal 0.00000000e+00 0.00000000e+00 1.00000000e+00
    outer loop
      vertex 2.44200000e+01 1.44465000e+01 4.00000000e+01
      vertex 1.29847500e+02 1.39500000e-01 4.00000000e+01
      vertex 1.35708000e+02 4.54500000e-01 4.00000000e+01
    endloop
  endfacet
  facet normal 0.00000000e+00 0.00000000e+00 1.00000000e+00
    outer loop
      vertex 2.44200000e+01 1.44465000e+01 4.00000000e+01
      vertex 1.35708000e+02 4.54500000e-01 4.00000000e+01
      vertex 1.40712000e+02 5.46000000e-01 4.00000000e+01
    endloop
  endfacet
  facet normal 0.00000000e+00 0.00000000e+00 1.00000000e+00
    outer loop
      vertex 2.44200000e+01 1.44465000e+01 4.00000000e+01
      vertex 1.40712000e+02 5.46000000e-01 4.00000000e+01
      vertex 1.44729000e+02 4.56000000e-01 4.00000000e+01
    endloop
  endfacet
  facet normal 0.00000000e+00 0.00000000e+00 1.00000000e+00
    outer loop
      vertex 2.44200000e+01 1.44465000e+01 4.00000000e+01
      vertex 1.44729000e+02 4.56000000e-01 4.00000000e+01
      vertex 1.47649500e+02 2.65500000e-01 4.00000000e+01
    endloop
  endfacet
  facet normal 0.00000000e+00 0.00000000e+00 1.00000000e+00
    outer loop
      vertex 2.44200000e+01 1.44465000e+01 4.00000000e+01
      vertex 1.47649500e+02 2.65500000e-01 4.00000000e+01
      vertex 1.49412000e+02 7.95000000e-02 4.00000000e+01
    endloop
  endfacet
  facet normal 2.52316006e-01 9.67644890e-01 0.00000000e+00
    outer loop
      vertex 1.50000000e+02 0.00000000e+00 0.00000000e+00
      vertex 1.49442000e+02 1.45500000e-01 0.00000000e+00
      vertex 1.49442000e+02 1.45500000e-01 4.00000000e+01
    endloop
  endfacet
  facet normal 2.52316006e-01 9.67644890e-01 -0.00000000e+00
    outer loop
      vertex 1.50000000e+02 0.00000000e+00 0.00000000e+00
      vertex 1.49442000e+02 1.45500000e-01 4.00000000e+01
      vertex 1.50000000e+02 0.00000000e+00 4.00000000e+01
    endloop
  endfacet
  facet normal 2.82166324e-01 9.59365502e-01 0.00000000e+00
    outer loop
      vertex 1.49442000e+02 1.45500000e-01 0.00000000e+00
      vertex 1.47861000e+02 6.10500000e-01 0.00000000e+00
      vertex 1.47861000e+02 6.10500000e-01 4.00000000e+01
    endloop
  endfacet
  facet normal 2.82166324e-01 9.59365502e-01 -0.00000000e+00
    outer loop
      vertex 1.49442000e+02 1.45500000e-01 0.00000000e+00
      vertex 1.47861000e+02 6.10500000e-01 4.00000000e+01
      vertex 1.49442000e+02 1.45500000e-01 4.00000000e+01
    endloop
  endfacet
  facet normal 2.98877932e-01 9.54291350e-01 0.00000000e+00
    outer loop
      vertex 1.47861000e+02 6.10500000e-01 0.00000000e+00
      vertex 1.45428000e+02 1.37250000e+00 0.00000000e+00
      vertex 1.45428000e+02 1.37250000e+00 4.00000000e+01
    endloop
  endfacet
  facet normal 2.98877932e-01 9.54291350e-01 -0.00000000e+00
    outer loop
      vertex 1.47861000e+02 6.10500000e-01 0.00000000e+00
      vertex 1.45428000e+02 1.37250000e+00 4.00000000e+01
      vertex 1.47861000e+02 6.10500000e-01 4.00000000e+01
    endloop
  endfacet
  facet normal 2.82699908e-01 9.59208404e-01 0.00000000e+00
    outer loop
      vertex 1.45428000e+02 1.37250000e+00 0.00000000e+00
      vertex 1.42216500e+02 2.31900000e+00 0.00000000e+00
      vertex 1.42216500e+02 2.31900000e+00 4.00000000e+01
    endloop
  endfacet
  facet normal 2.82699908e-01 9.59208404e-01 -0.00000000e+00
    outer loop
      vertex 1.45428000e+02 1.37250000e+00 0.00000000e+00
      vertex 1.42216500e+02 2.31900000e+00 4.00000000e+01
      vertex 1.45428000e+02 1.37250000e+00 4.00000000e+01
    endloop
  endfacet
  facet normal 2.63944486e-01 9.64537873e-01 0.00000000e+00
    outer loop
      vertex 1.42216500e+02 2.31900000e+00 0.00000000e+00
      vertex 1.38220500e+02 3.41250000e+00 0.00000000e+00
      vertex 1.38220500e+02 3.41250000e+00 4.00000000e+01
    endloop
  endfacet
  facet normal 2.63944486e-01 9.64537873e-01 -0.00000000e+00
    outer loop
      vertex 1.42216500e+02 2.31900000e+00 0.00000000e+00
      vertex 1.38220500e+02 3.41250000e+00 4.00000000e+01
      vertex 1.42216500e+02 2.31900000e+00 4.00000000e+01
    endloop
  endfacet
  facet normal 2.58690232e-01 9.65960333e-01 0.00000000e+00
    outer loop
      vertex 1.38220500e+02 3.41250000e+00 0.00000000e+00
      vertex 1.33482000e+02 4.68150000e+00 0.00000000e+00
      vertex 1.33482000e+02 4.68150000e+00 4.00000000e+01
    endloop
  endfacet
  facet normal 2.58690232e-01 9.65960333e-01 -0.00000000e+00
    outer loop
      vertex 1.38220500e+02 3.41250000e+00 0.00000000e+00
      vertex 1.33482000e+02 4.68150000e+00 4.00000000e+01
      vertex 1.38220500e+02 3.41250000e+00 4.00000000e+01
    endloop
  endfacet
  facet normal 2.60427379e-01 9.65493439e-01 0.00000000e+00
    outer loop
      vertex 1.33482000e+02 4.68150000e+00 0.00000000e+00
      vertex 1.28104500e+02 6.13200000e+00 0.00000000e+00
      vertex 1.28104500e+02 6.13200000e+00 4.00000000e+01
    endloop
  endfacet
  facet normal 2.60427379e-01 9.65493439e-01 -0.00000000e+00
    outer loop
      vertex 1.33482000e+02 4.68150000e+00 0.00000000e+00
      vertex 1.28104500e+02 6.13200000e+00 4.00000000e+01
      vertex 1.33482000e+02 4.68150000e+00 4.00000000e+01
    endloop
  endfacet
  facet normal 2.62993084e-01 9.64797719e-01 0.00000000e+00
    outer loop
      vertex 1.28104500e+02 6.13200000e+00 0.00000000e+00
      vertex 1.22194500e+02 7.74300000e+00 0.00000000e+00
      vertex 1.22194500e+02 7.74300000e+00 4.00000000e+01
    endloop
  endfacet
  facet normal 2.62993084e-01 9.64797719e-01 -0.00000000e+00
    outer loop
      vertex 1.28104500e+02 6.13200000e+00 0.00000000e+00
      vertex 1.22194500e+02 7.74300000e+00 4.00000000e+01
      vertex 1.28104500e+02 6.13200000e+00 4.00000000e+01
    endloop
  endfacet
  facet normal 2.64741993e-01 9.64319282e-01 0.00000000e+00
    outer loop
      vertex 1.22194500e+02 7.74300000e+00 0.00000000e+00
      vertex 1.15867500e+02 9.48000000e+00 0.00000000e+00
      vertex 1.15867500e+02 9.48000000e+00 4.00000000e+01
    endloop
  endfacet
  facet normal 2.64741993e-01 9.64319282e-01 -0.00000000e+00
    outer loop
      vertex 1.22194500e+02 7.74300000e+00 0.00000000e+00
      vertex 1.15867500e+02 9.48000000e+00 4.00000000e+01
      vertex 1.22194500e+02 7.74300000e+00 4.00000000e+01
    endloop
  endfacet
  facet normal 2.63726456e-01 9.64597510e-01 0.00000000e+00
    outer loop
      vertex 1.15867500e+02 9.48000000e+00 0.00000000e+00
      vertex 1.09234500e+02 1.12935000e+01 0.00000000e+00
      vertex 1.09234500e+02 1.12935000e+01 4.00000000e+01
    endloop
  endfacet
  facet normal 2.63726456e-01 9.64597510e-01 -0.00000000e+00
    outer loop
      vertex 1.15867500e+02 9.48000000e+00 0.00000000e+00
      vertex 1.09234500e+02 1.12935000e+01 4.00000000e+01
      vertex 1.15867500e+02 9.48000000e+00 4.00000000e+01
    endloop
  endfacet
  facet normal 2.58442396e-01 9.66026670e-01 0.00000000e+00
    outer loop
      vertex 1.09234500e+02 1.12935000e+01 0.00000000e+00
      vertex 1.02411000e+02 1.31190000e+01 0.00000000e+00
      vertex 1.02411000e+02 1.31190000e+01 4.00000000e+01
    endloop
  endfacet
  facet normal 2.58442396e-01 9.66026670e-01 -0.00000000e+00
    outer loop
      vertex 1.09234500e+02 1.12935000e+01 0.00000000e+00
      vertex 1.02411000e+02 1.31190000e+01 4.00000000e+01
      vertex 1.09234500e+02 1.12935000e+01 4.00000000e+01
    endloop
  endfacet
  facet normal 2.46988211e-01 9.69018485e-01 0.00000000e+00
    outer loop
      vertex 1.02411000e+02 1.31190000e+01 0.00000000e+00
      vertex 9.55020000e+01 1.48800000e+01 0.00000000e+00
      vertex 9.55020000e+01 1.48800000e+01 4.00000000e+01
    endloop
  endfacet
  facet normal 2.46988211e-01 9.69018485e-01 -0.00000000e+00
    outer loop
      vertex 1.02411000e+02 1.31190000e+01 0.00000000e+00
      vertex 9.55020000e+01 1.48800000e+01 4.00000000e+01
      vertex 1.02411000e+02 1.31190000e+01 4.00000000e+01
    endloop
  endfacet
  facet normal 2.27303279e-01 9.73824019e-01 0.00000000e+00
    outer loop
      vertex 9.55020000e+01 1.48800000e+01 0.00000000e+00
      vertex 8.86065000e+01 1.64895000e+01 0.00000000e+00
      vertex 8.86065000e+01 1.64895000e+01 4.00000000e+01
    endloop
  endfacet
  facet normal 2.27303279e-01 9.73824019e-01 -0.00000000e+00
    outer loop
      vertex 9.55020000e+01 1.48800000e+01 0.00000000e+00
      vertex 8.86065000e+01 1.64895000e+01 4.00000000e+01
      vertex 9.55020000e+01 1.48800000e+01 4.00000000e+01
    endloop
  endfacet
  facet normal 1.91821000e-01 9.81429928e-01 0.00000000e+00
    outer loop
      vertex 8.86065000e+01 1.64895000e+01 0.00000000e+00
      vertex 8.18145000e+01 1.78170000e+01 0.00000000e+00
      vertex 8.18145000e+01 1.78170000e+01 4.00000000e+01
    endloop
  endfacet
  facet normal 1.91821000e-01 9.81429928e-01 -0.00000000e+00
    outer loop
      vertex 8.86065000e+01 1.64895000e+01 0.00000000e+00
      vertex 8.18145000e+01 1.78170000e+01 4.00000000e+01
      vertex 8.86065000e+01 1.64895000e+01 4.00000000e+01
    endloop
  endfacet
  facet normal 1.31583294e-01 9.91305118e-01 0.00000000e+00
    outer loop
      vertex 8.18145000e+01 1.78170000e+01 0.00000000e+00
      vertex 7.51020000e+01 1.87080000e+01 0.00000000e+00
      vertex 7.51020000e+01 1.87080000e+01 4.00000000e+01
    endloop
  endfacet
  facet normal 1.31583294e-01 9.91305118e-01 -0.00000000e+00
    outer loop
      vertex 8.18145000e+01 1.78170000e+01 0.00000000e+00
      vertex 7.51020000e+01 1.87080000e+01 4.00000000e+01
      vertex 8.18145000e+01 1.78170000e+01 4.00000000e+01
    endloop
  endfacet
  facet normal 6.46033609e-02 9.97911021e-01 0.00000000e+00
    outer loop
      vertex 7.51020000e+01 1.87080000e+01 0.00000000e+00
      vertex 6.83595000e+01 1.91445000e+01 0.00000000e+00
      vertex 6.83595000e+01 1.91445000e+01 4.00000000e+01
    endloop
  endfacet
  facet normal 6.46033609e-02 9.97911021e-01 -0.00000000e+00
    outer loop
      vertex 7.51020000e+01 1.87080000e+01 0.00000000e+00
      vertex 6.83595000e+01 1.91445000e+01 4.00000000e+01
      vertex 7.51020000e+01 1.87080000e+01 4.00000000e+01
    endloop
  endfacet
  facet normal 1.23911708e-02 9.99923226e-01 0.00000000e+00
    outer loop
      vertex 6.83595000e+01 1.91445000e+01 0.00000000e+00
      vertex 6.15810000e+01 1.92285000e+01 0.00000000e+00
      vertex 6.15810000e+01 1.92285000e+01 4.00000000e+01
    endloop
  endfacet
  facet normal 1.23911708e-02 9.99923226e-01 -0.00000000e+00
    outer loop
      vertex 6.83595000e+01 1.91445000e+01 0.00000000e+00
      vertex 6.15810000e+01 1.92285000e+01 4.00000000e+01
      vertex 6.83595000e+01 1.91445000e+01 4.00000000e+01
    endloop
  endfacet
  facet normal -3.05048436e-02 9.99534619e-01 0.00000000e+00
    outer loop
      vertex 6.15810000e+01 1.92285000e+01 0.00000000e+00
      vertex 5.48475000e+01 1.90230000e+01 0.00000000e+00
      vertex 5.48475000e+01 1.90230000e+01 4.00000000e+01
    endloop
  endfacet
  facet normal -3.05048436e-02 9.99534619e-01 0.00000000e+00
    outer loop
      vertex 6.15810000e+01 1.92285000e+01 0.00000000e+00
      vertex 5.48475000e+01 1.90230000e+01 4.00000000e+01
      vertex 6.15810000e+01 1.92285000e+01 4.00000000e+01
    endloop
  endfacet
  facet normal -7.12792120e-02 9.97456402e-01 0.00000000e+00
    outer loop
      vertex 5.48475000e+01 1.90230000e+01 0.00000000e+00
      vertex 4.82355000e+01 1.85505000e+01 0.00000000e+00
      vertex 4.82355000e+01 1.85505000e+01 4.00000000e+01
    endloop
  endfacet
  facet normal -7.12792120e-02 9.97456402e-01 0.00000000e+00
    outer loop
      vertex 5.48475000e+01 1.90230000e+01 0.00000000e+00
      vertex 4.82355000e+01 1.85505000e+01 4.00000000e+01
      vertex 5.48475000e+01 1.90230000e+01 4.00000000e+01
    endloop
  endfacet
  facet normal -1.10558989e-01 9.93869564e-01 0.00000000e+00
    outer loop
      vertex 4.82355000e+01 1.85505000e+01 0.00000000e+00
      vertex 4.18170000e+01 1.78365000e+01 0.00000000e+00
      vertex 4.18170000e+01 1.78365000e+01 4.00000000e+01
    endloop
  endfacet
  facet normal -1.10558989e-01 9.93869564e-01 0.00000000e+00
    outer loop
      vertex 4.82355000e+01 1.85505000e+01 0.00000000e+00
      vertex 4.18170000e+01 1.78365000e+01 4.00000000e+01
      vertex 4.82355000e+01 1.85505000e+01 4.00000000e+01
    endloop
  endfacet
  facet normal -1.50426631e-01 9.88621176e-01 0.00000000e+00
    outer loop
      vertex 4.18170000e+01 1.78365000e+01 0.00000000e+00
      vertex 3.56655000e+01 1.69005000e+01 0.00000000e+00
      vertex 3.56655000e+01 1.69005000e+01 4.00000000e+01
    endloop
  endfacet
  facet normal -1.50426631e-01 9.88621176e-01 0.00000000e+00
    outer loop
      vertex 4.18170000e+01 1.78365000e+01 0.00000000e+00
      vertex 3.56655000e+01 1.69005000e+01 4.00000000e+01
      vertex 4.18170000e+01 1.78365000e+01 4.00000000e+01
    endloop
  endfacet
  facet normal -1.91444996e-01 9.81503344e-01 0.00000000e+00
    outer loop
      vertex 3.56655000e+01 1.69005000e+01 0.00000000e+00
      vertex 2.98440000e+01 1.57650000e+01 0.00000000e+00
      vertex 2.98440000e+01 1.57650000e+01 4.00000000e+01
    endloop
  endfacet
  facet normal -1.91444996e-01 9.81503344e-01 0.00000000e+00
    outer loop
      vertex 3.56655000e+01 1.69005000e+01 0.00000000e+00
      vertex 2.98440000e+01 1.57650000e+01 4.00000000e+01
      vertex 3.56655000e+01 1.69005000e+01 4.00000000e+01
    endloop
  endfacet
  facet normal -2.36207578e-01 9.71702619e-01 0.00000000e+00
    outer loop
      vertex 2.98440000e+01 1.57650000e+01 0.00000000e+00
      vertex 2.44200000e+01 1.44465000e+01 0.00000000e+00
      vertex 2.44200000e+01 1.44465000e+01 4.00000000e+01
    endloop
  endfacet
  facet normal -2.36207578e-01 9.71702619e-01 0.00000000e+00
    outer loop
      vertex 2.98440000e+01 1.57650000e+01 0.00000000e+00
      vertex 2.44200000e+01 1.44465000e+01 4.00000000e+01
      vertex 2.98440000e+01 1.57650000e+01 4.00000000e+01
    endloop
  endfacet
  facet normal -2.86261160e-01 9.58151631e-01 0.00000000e+00
    outer loop
      vertex 2.44200000e+01 1.44465000e+01 0.00000000e+00
      vertex 1.94445000e+01 1.29600000e+01 0.00000000e+00
      vertex 1.94445000e+01 1.29600000e+01 4.00000000e+01
    endloop
  endfacet
  facet normal -2.86261160e-01 9.58151631e-01 0.00000000e+00
    outer loop
      vertex 2.44200000e+01 1.44465000e+01 0.00000000e+00
      vertex 1.94445000e+01 1.29600000e+01 4.00000000e+01
      vertex 2.44200000e+01 1.44465000e+01 4.00000000e+01
    endloop
  endfacet
  facet normal -3.41465600e-01 9.39894273e-01 0.00000000e+00
    outer loop
      vertex 1.94445000e+01 1.29600000e+01 0.00000000e+00
      vertex 1.49565000e+01 1.13295000e+01 0.00000000e+00
      vertex 1.49565000e+01 1.13295000e+01 4.00000000e+01
    endloop
  endfacet
  facet normal -3.41465600e-01 9.39894273e-01 0.00000000e+00
    outer loop
      vertex 1.94445000e+01 1.29600000e+01 0.00000000e+00
      vertex 1.49565000e+01 1.13295000e+01 4.00000000e+01
      vertex 1.94445000e+01 1.29600000e+01 4.00000000e+01
    endloop
  endfacet
  facet normal -4.00727907e-01 9.16197110e-01 0.00000000e+00
    outer loop
      vertex 1.49565000e+01 1.13295000e+01 0.00000000e+00
      vertex 1.09920000e+01 9.59550000e+00 0.00000000e+00
      vertex 1.09920000e+01 9.59550000e+00 4.00000000e+01
    endloop
  endfacet
  facet normal -4.00727907e-01 9.16197110e-01 0.00000000e+00
    outer loop
      vertex 1.49565000e+01 1.13295000e+01 0.00000000e+00
      vertex 1.09920000e+01 9.59550000e+00 4.00000000e+01
      vertex 1.49565000e+01 1.13295000e+01 4.00000000e+01
    endloop
  endfacet
  facet normal -4.68013256e-01 8.83721445e-01 0.00000000e+00
    outer loop
      vertex 1.09920000e+01 9.59550000e+00 0.00000000e+00
      vertex 7.59600000e+00 7.79700000e+00 0.00000000e+00
      vertex 7.59600000e+00 7.79700000e+00 4.00000000e+01
    endloop
  endfacet
  facet normal -4.68013256e-01 8.83721445e-01 0.00000000e+00
    outer loop
      vertex 1.09920000e+01 9.59550000e+00 0.00000000e+00
      vertex 7.59600000e+00 7.79700000e+00 4.00000000e+01
      vertex 1.09920000e+01 9.59550000e+00 4.00000000e+01
    endloop
  endfacet
  facet normal -5.49195808e-01 8.35693703e-01 0.00000000e+00
    outer loop
      vertex 7.59600000e+00 7.79700000e+00 0.00000000e+00
      vertex 4.80450000e+00 5.96250000e+00 0.00000000e+00
      vertex 4.80450000e+00 5.96250000e+00 4.00000000e+01
    endloop
  endfacet
  facet normal -5.49195808e-01 8.35693703e-01 0.00000000e+00
    outer loop
      vertex 7.59600000e+00 7.79700000e+00 0.00000000e+00
      vertex 4.80450000e+00 5.96250000e+00 4.00000000e+01
      vertex 7.59600000e+00 7.79700000e+00 4.00000000e+01
    endloop
  endfacet
  facet normal -6.43810678e-01 7.65184822e-01 0.00000000e+00
    outer loop
      vertex 4.80450000e+00 5.96250000e+00 0.00000000e+00
      vertex 2.62950000e+00 4.13250000e+00 0.00000000e+00
      vertex 2.62950000e+00 4.13250000e+00 4.00000000e+01
    endloop
  endfacet
  facet normal -6.43810678e-01 7.65184822e-01 0.00000000e+00
    outer loop
      vertex 4.80450000e+00 5.96250000e+00 0.00000000e+00
      vertex 2.62950000e+00 4.13250000e+00 4.00000000e+01
      vertex 4.80450000e+00 5.96250000e+00 4.00000000e+01
    endloop
  endfacet
  facet normal -7.49632143e-01 6.61854704e-01 0.00000000e+00
    outer loop
      vertex 2.62950000e+00 4.13250000e+00 0.00000000e+00
      vertex 1.08000000e+00 2.37750000e+00 0.00000000e+00
      vertex 1.08000000e+00 2.37750000e+00 4.00000000e+01
    endloop
  endfacet
  facet normal -7.49632143e-01 6.61854704e-01 0.00000000e+00
    outer loop
      vertex 2.62950000e+00 4.13250000e+00 0.00000000e+00
      vertex 1.08000000e+00 2.37750000e+00 4.00000000e+01
      vertex 2.62950000e+00 4.13250000e+00 4.00000000e+01
    endloop
  endfacet
  facet normal -8.71928128e-01 4.89633883e-01 0.00000000e+00
    outer loop
      vertex 1.08000000e+00 2.37750000e+00 0.00000000e+00
      vertex 1.90500000e-01 7.93500000e-01 0.00000000e+00
      vertex 1.90500000e-01 7.93500000e-01 4.00000000e+01
    endloop
  endfacet
  facet normal -8.71928128e-01 4.89633883e-01 0.00000000e+00
    outer loop
      vertex 1.08000000e+00 2.37750000e+00 0.00000000e+00
      vertex 1.90500000e-01 7.93500000e-01 4.00000000e+01
      vertex 1.08000000e+00 2.37750000e+00 4.00000000e+01
    endloop
  endfacet
  facet normal -9.95353735e-01 9.62857301e-02 0.00000000e+00
    outer loop
      vertex 1.90500000e-01 7.93500000e-01 0.00000000e+00
      vertex 7.05000000e-02 -4.47000000e-01 0.00000000e+00
      vertex 7.05000000e-02 -4.47000000e-01 4.00000000e+01
    endloop
  endfacet
  facet normal -9.95353735e-01 9.62857301e-02 0.00000000e+00
    outer loop
      vertex 1.90500000e-01 7.93500000e-01 0.00000000e+00
      vertex 7.05000000e-02 -4.47000000e-01 4.00000000e+01
      vertex 1.90500000e-01 7.93500000e-01 4.00000000e+01
    endloop
  endfacet
  facet normal -7.65399286e-01 -6.43555695e-01 0.00000000e+00
    outer loop
      vertex 7.05000000e-02 -4.47000000e-01 0.00000000e+00
      vertex 9.42000000e-01 -1.48350000e+00 0.00000000e+00
      vertex 9.42000000e-01 -1.48350000e+00 4.00000000e+01
    endloop
  endfacet
  facet normal -7.65399286e-01 -6.43555695e-01 0.00000000e+00
    outer loop
      vertex 7.05000000e-02 -4.47000000e-01 0.00000000e+00
      vertex 9.42000000e-01 -1.48350000e+00 4.00000000e+01
      vertex 7.05000000e-02 -4.47000000e-01 4.00000000e+01
    endloop
  endfacet
  facet normal -5.01613678e-01 -8.65091740e-01 0.00000000e+00
    outer loop
      vertex 9.42000000e-01 -1.48350000e+00 0.00000000e+00
      vertex 2.80200000e+00 -2.56200000e+00 0.00000000e+00
      vertex 2.80200000e+00 -2.56200000e+00 4.00000000e+01
    endloop
  endfacet
  facet normal -5.01613678e-01 -8.65091740e-01 0.00000000e+00
    outer loop
      vertex 9.42000000e-01 -1.48350000e+00 0.00000000e+00
      vertex 2.80200000e+00 -2.56200000e+00 4.00000000e+01
      vertex 9.42000000e-01 -1.48350000e+00 4.00000000e+01
    endloop
  endfacet
  facet normal -3.76866352e-01 -9.26267646e-01 0.00000000e+00
    outer loop
      vertex 2.80200000e+00 -2.56200000e+00 0.00000000e+00
      vertex 5.46750000e+00 -3.64650000e+00 0.00000000e+00
      vertex 5.46750000e+00 -3.64650000e+00 4.00000000e+01
    endloop
  endfacet
  facet normal -3.76866352e-01 -9.26267646e-01 0.00000000e+00
    outer loop
      vertex 2.80200000e+00 -2.56200000e+00 0.00000000e+00
      vertex 5.46750000e+00 -3.64650000e+00 4.00000000e+01
      vertex 2.80200000e+00 -2.56200000e+00 4.00000000e+01
    endloop
  endfacet
  facet normal -2.96094934e-01 -9.55158516e-01 0.00000000e+00
    outer loop
      vertex 5.46750000e+00 -3.64650000e+00 0.00000000e+00
      vertex 8.87400000e+00 -4.70250000e+00 0.00000000e+00
      vertex 8.87400000e+00 -4.70250000e+00 4.00000000e+01
    endloop
  endfacet
  facet normal -2.96094934e-01 -9.55158516e-01 0.00000000e+00
    outer loop
      vertex 5.46750000e+00 -3.64650000e+00 0.00000000e+00
      vertex 8.87400000e+00 -4.70250000e+00 4.00000000e+01
      vertex 5.46750000e+00 -3.64650000e+00 4.00000000e+01
    endloop
  endfacet
  facet normal -2.37587536e-01 -9.71366132e-01 0.00000000e+00
    outer loop
      vertex 8.87400000e+00 -4.70250000e+00 0.00000000e+00
      vertex 1.29645000e+01 -5.70300000e+00 0.00000000e+00
      vertex 1.29645000e+01 -5.70300000e+00 4.00000000e+01
    endloop
  endfacet
  facet normal -2.37587536e-01 -9.71366132e-01 0.00000000e+00
    outer loop
      vertex 8.87400000e+00 -4.70250000e+00 0.00000000e+00
      vertex 1.29645000e+01 -5.70300000e+00 4.00000000e+01
      vertex 8.87400000e+00 -4.70250000e+00 4.00000000e+01
    endloop
  endfacet
  facet normal -1.92514615e-01 -9.81294106e-01 0.00000000e+00
    outer loop
      vertex 1.29645000e+01 -5.70300000e+00 0.00000000e+00
      vertex 1.76820000e+01 -6.62850000e+00 0.00000000e+00
      vertex 1.76820000e+01 -6.62850000e+00 4.00000000e+01
    endloop
  endfacet
  facet normal -1.92514615e-01 -9.81294106e-01 0.00000000e+00
    outer loop
      vertex 1.29645000e+01 -5.70300000e+00 0.00000000e+00
      vertex 1.76820000e+01 -6.62850000e+00 4.00000000e+01
      vertex 1.29645000e+01 -5.70300000e+00 4.00000000e+01
    endloop
  endfacet
  facet normal -1.54838935e-01 -9.87939727e-01 0.00000000e+00
    outer loop
      vertex 1.76820000e+01 -6.62850000e+00 0.00000000e+00
      vertex 2.29650000e+01 -7.45650000e+00 0.00000000e+00
      vertex 2.29650000e+01 -7.45650000e+00 4.00000000e+01
    endloop
  endfacet
  facet normal -1.54838935e-01 -9.87939727e-01 0.00000000e+00
    outer loop
      vertex 1.76820000e+01 -6.62850000e+00 0.00000000e+00
      vertex 2.29650000e+01 -7.45650000e+00 4.00000000e+01
      vertex 1.76820000e+01 -6.62850000e+00 4.00000000e+01
    endloop
  endfacet
  facet normal -1.22006966e-01 -9.92529244e-01 0.00000000e+00
    outer loop
      vertex 2.29650000e+01 -7.45650000e+00 0.00000000e+00
      vertex 2.87490000e+01 -8.16750000e+00 0.00000000e+00
      vertex 2.87490000e+01 -8.16750000e+00 4.00000000e+01
    endloop
  endfacet
  facet normal -1.22006966e-01 -9.92529244e-01 0.00000000e+00
    outer loop
      vertex 2.29650000e+01 -7.45650000e+00 0.00000000e+00
      vertex 2.87490000e+01 -8.16750000e+00 4.00000000e+01
      vertex 2.29650000e+01 -7.45650000e+00 4.00000000e+01
    endloop
  endfacet
  facet normal -9.18582324e-02 -9.95772095e-01 0.00000000e+00
    outer loop
      vertex 2.87490000e+01 -8.16750000e+00 0.00000000e+00
      vertex 3.49605000e+01 -8.74050000e+00 0.00000000e+00
      vertex 3.49605000e+01 -8.74050000e+00 4.00000000e+01
    endloop
  endfacet
  facet normal -9.18582324e-02 -9.95772095e-01 0.00000000e+00
    outer loop
      vertex 2.87490000e+01 -8.16750000e+00 0.00000000e+00
      vertex 3.49605000e+01 -8.74050000e+00 4.00000000e+01
      vertex 2.87490000e+01 -8.16750000e+00 4.00000000e+01
    endloop
  endfacet
  facet normal -6.26905160e-02 -9.98033015e-01 0.00000000e+00
    outer loop
      vertex 3.49605000e+01 -8.74050000e+00 0.00000000e+00
      vertex 4.15275000e+01 -9.15300000e+00 0.00000000e+00
      vertex 4.15275000e+01 -9.15300000e+00 4.00000000e+01
    endloop
  endfacet
  facet normal -6.26905160e-02 -9.98033015e-01 0.00000000e+00
    outer loop
      vertex 3.49605000e+01 -8.74050000e+00 0.00000000e+00
      vertex 4.15275000e+01 -9.15300000e+00 4.00000000e+01
      vertex 3.49605000e+01 -8.74050000e+00 4.00000000e+01
    endloop
  endfacet
  facet normal -3.33002411e-02 -9.99445393e-01 0.00000000e+00
    outer loop
      vertex 4.15275000e+01 -9.15300000e+00 0.00000000e+00
      vertex 4.83705000e+01 -9.38100000e+00 0.00000000e+00
      vertex 4.83705000e+01 -9.38100000e+00 4.00000000e+01
    endloop
  endfacet
  facet normal -3.33002411e-02 -9.99445393e-01 0.00000000e+00
    outer loop
      vertex 4.15275000e+01 -9.15300000e+00 0.00000000e+00
      vertex 4.83705000e+01 -9.38100000e+00 4.00000000e+01
      vertex 4.15275000e+01 -9.15300000e+00 4.00000000e+01
    endloop
  endfacet
  facet normal -1.70611822e-03 -9.99998545e-01 0.00000000e+00
    outer loop
      vertex 4.83705000e+01 -9.38100000e+00 0.00000000e+00
      vertex 5.54040000e+01 -9.39300000e+00 0.00000000e+00
      vertex 5.54040000e+01 -9.39300000e+00 4.00000000e+01
    endloop
  endfacet
  facet normal -1.70611822e-03 -9.99998545e-01 0.00000000e+00
    outer loop
      vertex 4.83705000e+01 -9.38100000e+00 0.00000000e+00
      vertex 5.54040000e+01 -9.39300000e+00 4.00000000e+01
      vertex 4.83705000e+01 -9.38100000e+00 4.00000000e+01
    endloop
  endfacet
  facet normal 3.84411894e-02 -9.99260864e-01 0.00000000e+00
    outer loop
      vertex 5.54040000e+01 -9.39300000e+00 0.00000000e+00
      vertex 6.25395000e+01 -9.11850000e+00 0.00000000e+00
      vertex 6.25395000e+01 -9.11850000e+00 4.00000000e+01
    endloop
  endfacet
  facet normal 3.84411894e-02 -9.99260864e-01 0.00000000e+00
    outer loop
      vertex 5.54040000e+01 -9.39300000e+00 0.00000000e+00
      vertex 6.25395000e+01 -9.11850000e+00 4.00000000e+01
      vertex 5.54040000e+01 -9.39300000e+00 4.00000000e+01
    endloop
  endfacet
  facet normal 9.29512458e-02 -9.95670661e-01 0.00000000e+00
    outer loop
      vertex 6.25395000e+01 -9.11850000e+00 0.00000000e+00
      vertex 6.97860000e+01 -8.44200000e+00 0.00000000e+00
      vertex 6.97860000e+01 -8.44200000e+00 4.00000000e+01
    endloop
  endfacet
  facet normal 9.29512458e-02 -9.95670661e-01 0.00000000e+00
    outer loop
      vertex 6.25395000e+01 -9.11850000e+00 0.00000000e+00
      vertex 6.97860000e+01 -8.44200000e+00 4.00000000e+01
      vertex 6.25395000e+01 -9.11850000e+00 4.00000000e+01
    endloop
  endfacet
  facet normal 1.40225562e-01 -9.90119585e-01 0.00000000e+00
    outer loop
      vertex 6.97860000e+01 -8.44200000e+00 0.00000000e+00
      vertex 7.72635000e+01 -7.38300000e+00 0.00000000e+00
      vertex 7.72635000e+01 -7.38300000e+00 4.00000000e+01
    endloop
  endfacet
  facet normal 1.40225562e-01 -9.90119585e-01 0.00000000e+00
    outer loop
      vertex 6.97860000e+01 -8.44200000e+00 0.00000000e+00
      vertex 7.72635000e+01 -7.38300000e+00 4.00000000e+01
      vertex 6.97860000e+01 -8.44200000e+00 4.00000000e+01
    endloop
  endfacet
  facet normal 1.62349600e-01 -9.86733301e-01 0.00000000e+00
    outer loop
      vertex 7.72635000e+01 -7.38300000e+00 0.00000000e+00
      vertex 8.49945000e+01 -6.11100000e+00 0.00000000e+00
      vertex 8.49945000e+01 -6.11100000e+00 4.00000000e+01
    endloop
  endfacet
  facet normal 1.62349600e-01 -9.86733301e-01 0.00000000e+00
    outer loop
      vertex 7.72635000e+01 -7.38300000e+00 0.00000000e+00
      vertex 8.49945000e+01 -6.11100000e+00 4.00000000e+01
      vertex 7.72635000e+01 -7.38300000e+00 4.00000000e+01
    endloop
  endfacet
  facet normal 1.67927376e-01 -9.85799369e-01 0.00000000e+00
    outer loop
      vertex 8.49945000e+01 -6.11100000e+00 0.00000000e+00
      vertex 9.28755000e+01 -4.76850000e+00 0.00000000e+00
      vertex 9.28755000e+01 -4.76850000e+00 4.00000000e+01
    endloop
  endfacet
  facet normal 1.67927376e-01 -9.85799369e-01 0.00000000e+00
    outer loop
      vertex 8.49945000e+01 -6.11100000e+00 0.00000000e+00
      vertex 9.28755000e+01 -4.76850000e+00 4.00000000e+01
      vertex 8.49945000e+01 -6.11100000e+00 4.00000000e+01
    endloop
  endfacet
  facet normal 1.63883227e-01 -9.86479745e-01 0.00000000e+00
    outer loop
      vertex 9.28755000e+01 -4.76850000e+00 0.00000000e+00
      vertex 1.00785000e+02 -3.45450000e+00 0.00000000e+00
      vertex 1.00785000e+02 -3.45450000e+00 4.00000000e+01
    endloop
  endfacet
  facet normal 1.63883227e-01 -9.86479745e-01 0.00000000e+00
    outer loop
      vertex 9.28755000e+01 -4.76850000e+00 0.00000000e+00
      vertex 1.00785000e+02 -3.45450000e+00 4.00000000e+01
      vertex 9.28755000e+01 -4.76850000e+00 4.00000000e+01
    endloop
  endfacet
  facet normal 1.52399879e-01 -9.88318915e-01 0.00000000e+00
    outer loop
      vertex 1.00785000e+02 -3.45450000e+00 0.00000000e+00
      vertex 1.08586500e+02 -2.25150000e+00 0.00000000e+00
      vertex 1.08586500e+02 -2.25150000e+00 4.00000000e+01
    endloop
  endfacet
  facet normal 1.52399879e-01 -9.88318915e-01 0.00000000e+00
    outer loop
      vertex 1.00785000e+02 -3.45450000e+00 0.00000000e+00
      vertex 1.08586500e+02 -2.25150000e+00 4.00000000e+01
      vertex 1.00785000e+02 -3.45450000e+00 4.00000000e+01
    endloop
  endfacet
  facet normal 1.34717685e-01 -9.90884022e-01 0.00000000e+00
    outer loop
      vertex 1.08586500e+02 -2.25150000e+00 0.00000000e+00
      vertex 1.16133000e+02 -1.22550000e+00 0.00000000e+00
      vertex 1.16133000e+02 -1.22550000e+00 4.00000000e+01
    endloop
  endfacet
  facet normal 1.34717685e-01 -9.90884022e-01 0.00000000e+00
    outer loop
      vertex 1.08586500e+02 -2.25150000e+00 0.00000000e+00
      vertex 1.16133000e+02 -1.22550000e+00 4.00000000e+01
      vertex 1.08586500e+02 -2.25150000e+00 4.00000000e+01
    endloop
  endfacet
  facet normal 1.12127254e-01 -9.93693856e-01 0.00000000e+00
    outer loop
      vertex 1.16133000e+02 -1.22550000e+00 0.00000000e+00
      vertex 1.23271500e+02 -4.20000000e-01 0.00000000e+00
      vertex 1.23271500e+02 -4.20000000e-01 4.00000000e+01
    endloop
  endfacet
  facet normal 1.12127254e-01 -9.93693856e-01 0.00000000e+00
    outer loop
      vertex 1.16133000e+02 -1.22550000e+00 0.00000000e+00
      vertex 1.23271500e+02 -4.20000000e-01 4.00000000e+01
      vertex 1.16133000e+02 -1.22550000e+00 4.00000000e+01
    endloop
  endfacet
  facet normal 8.47758254e-02 -9.96400050e-01 0.00000000e+00
    outer loop
      vertex 1.23271500e+02 -4.20000000e-01 0.00000000e+00
      vertex 1.29847500e+02 1.39500000e-01 0.00000000e+00
      vertex 1.29847500e+02 1.39500000e-01 4.00000000e+01
    endloop
  endfacet
  facet normal 8.47758254e-02 -9.96400050e-01 0.00000000e+00
    outer loop
      vertex 1.23271500e+02 -4.20000000e-01 0.00000000e+00
      vertex 1.29847500e+02 1.39500000e-01 4.00000000e+01
      vertex 1.23271500e+02 -4.20000000e-01 4.00000000e+01
    endloop
  endfacet
  facet normal 5.36722057e-02 -9.98558608e-01 0.00000000e+00
    outer loop
      vertex 1.29847500e+02 1.39500000e-01 0.00000000e+00
      vertex 1.35708000e+02 4.54500000e-01 0.00000000e+00
      vertex 1.35708000e+02 4.54500000e-01 4.00000000e+01
    endloop
  endfacet
  facet normal 5.36722057e-02 -9.98558608e-01 0.00000000e+00
    outer loop
      vertex 1.29847500e+02 1.39500000e-01 0.00000000e+00
      vertex 1.35708000e+02 4.54500000e-01 4.00000000e+01
      vertex 1.29847500e+02 1.39500000e-01 4.00000000e+01
    endloop
  endfacet
  facet normal 1.82823156e-02 -9.99832865e-01 0.00000000e+00
    outer loop
      vertex 1.35708000e+02 4.54500000e-01 0.00000000e+00
      vertex 1.40712000e+02 5.46000000e-01 0.00000000e+00
      vertex 1.40712000e+02 5.46000000e-01 4.00000000e+01
    endloop
  endfacet
  facet normal 1.82823156e-02 -9.99832865e-01 0.00000000e+00
    outer loop
      vertex 1.35708000e+02 4.54500000e-01 0.00000000e+00
      vertex 1.40712000e+02 5.46000000e-01 4.00000000e+01
      vertex 1.35708000e+02 4.54500000e-01 4.00000000e+01
    endloop
  endfacet
  facet normal -2.23991585e-02 -9.99749107e-01 0.00000000e+00
    outer loop
      vertex 1.40712000e+02 5.46000000e-01 0.00000000e+00
      vertex 1.44729000e+02 4.56000000e-01 0.00000000e+00
      vertex 1.44729000e+02 4.56000000e-01 4.00000000e+01
    endloop
  endfacet
  facet normal -2.23991585e-02 -9.99749107e-01 0.00000000e+00
    outer loop
      vertex 1.40712000e+02 5.46000000e-01 0.00000000e+00
      vertex 1.44729000e+02 4.56000000e-01 4.00000000e+01
      vertex 1.40712000e+02 5.46000000e-01 4.00000000e+01
    endloop
  endfacet
  facet normal -6.50902319e-02 -9.97879382e-01 0.00000000e+00
    outer loop
      vertex 1.44729000e+02 4.56000000e-01 0.00000000e+00
      vertex 1.47649500e+02 2.65500000e-01 0.00000000e+00
      vertex 1.47649500e+02 2.65500000e-01 4.00000000e+01
    endloop
  endfacet
  facet normal -6.50902319e-02 -9.97879382e-01 0.00000000e+00
    outer loop
      vertex 1.44729000e+02 4.56000000e-01 0.00000000e+00
      vertex 1.47649500e+02 2.65500000e-01 4.00000000e+01
      vertex 1.44729000e+02 4.56000000e-01 4.00000000e+01
    endloop
  endfacet
  facet normal -1.04949125e-01 -9.94477592e-01 0.00000000e+00
    outer loop
      vertex 1.47649500e+02 2.65500000e-01 0.00000000e+00
      vertex 1.49412000e+02 7.95000000e-02 0.00000000e+00
      vertex 1.49412000e+02 7.95000000e-02 4.00000000e+01
    endloop
  endfacet
  facet normal -1.04949125e-01 -9.94477592e-01 0.00000000e+00
    outer loop
      vertex 1.47649500e+02 2.65500000e-01 0.00000000e+00
      vertex 1.49412000e+02 7.95000000e-02 4.00000000e+01
      vertex 1.47649500e+02 2.65500000e-01 4.00000000e+01
    endloop
  endfacet
  facet normal -1.33984995e-01 -9.90983361e-01 0.00000000e+00
    outer loop
      vertex 1.49412000e+02 7.95000000e-02 0.00000000e+00
      vertex 1.50000000e+02 0.00000000e+00 0.00000000e+00
      vertex 1.50000000e+02 0.00000000e+00 4.00000000e+01
    endloop
  endfacet
  facet normal -1.33984995e-01 -9.90983361e-01 0.00000000e+00
    outer loop
      vertex 1.49412000e+02 7.95000000e-02 0.00000000e+00
      vertex 1.50000000e+02 0.00000000e+00 4.00000000e+01
      vertex 1.49412000e+02 7.95000000e-02 4.00000000e+01
    endloop
  endfacet
endsolid airfoil_1098
