solid airfoil_993
  facet normal 0.00000000e+00 0.00000000e+00 -1.00000000e+00
    outer loop
      vertex 1.49428500e+02 -2.40000000e-02 0.00000000e+00
      vertex 1.49428500e+02 2.40000000e-02 0.00000000e+00
      vertex 1.50000000e+02 0.00000000e+00 0.00000000e+00
    endloop
  endfacet
  facet normal 0.00000000e+00 0.00000000e+00 -1.00000000e+00
    outer loop
      vertex 1.49428500e+02 -2.40000000e-02 0.00000000e+00
      vertex 1.47738000e+02 1.38000000e-01 0.00000000e+00
      vertex 1.49428500e+02 2.40000000e-02 0.00000000e+00
    endloop
  endfacet
  facet normal 0.00000000e+00 0.00000000e+00 -1.00000000e+00
    outer loop
      vertex 1.19340000e+02 5.06850000e+00 0.00000000e+00
      vertex 1.05685500e+02 7.87950000e+00 0.00000000e+00
      vertex 1.12650000e+02 6.45900000e+00 0.00000000e+00
    endloop
  endfacet
  facet normal 0.00000000e+00 0.00000000e+00 -1.00000000e+00
    outer loop
      vertex 1.25658000e+02 3.76500000e+00 0.00000000e+00
      vertex 1.05685500e+02 7.87950000e+00 0.00000000e+00
      vertex 1.19340000e+02 5.06850000e+00 0.00000000e+00
    endloop
  endfacet
  facet normal 0.00000000e+00 0.00000000e+00 -1.00000000e+00
    outer loop
      vertex 1.25658000e+02 3.76500000e+00 0.00000000e+00
      vertex 9.85350000e+01 9.26250000e+00 0.00000000e+00
      vertex 1.05685500e+02 7.87950000e+00 0.00000000e+00
    endloop
  endfacet
  facet normal 0.00000000e+00 0.00000000e+00 -1.00000000e+00
    outer loop
      vertex 1.25658000e+02 3.76500000e+00 0.00000000e+00
      vertex 9.12780000e+01 1.05540000e+01 0.00000000e+00
      vertex 9.85350000e+01 9.26250000e+00 0.00000000e+00
    endloop
  endfacet
  facet normal 0.00000000e+00 0.00000000e+00 -1.00000000e+00
    outer loop
      vertex 1.31502000e+02 2.61000000e+00 0.00000000e+00
      vertex 9.12780000e+01 1.05540000e+01 0.00000000e+00
      vertex 1.25658000e+02 3.76500000e+00 0.00000000e+00
    endloop
  endfacet
  facet normal 0.00000000e+00 0.00000000e+00 -1.00000000e+00
    outer loop
      vertex 1.31502000e+02 2.61000000e+00 0.00000000e+00
      vertex 8.39895000e+01 1.16895000e+01 0.00000000e+00
      vertex 9.12780000e+01 1.05540000e+01 0.00000000e+00
    endloop
  endfacet
  facet normal 0.00000000e+00 0.00000000e+00 -1.00000000e+00
    outer loop
      vertex 1.31502000e+02 2.61000000e+00 0.00000000e+00
      vertex 7.67400000e+01 1.26165000e+01 0.00000000e+00
      vertex 8.39895000e+01 1.16895000e+01 0.00000000e+00
    endloop
  endfacet
  facet normal 0.00000000e+00 0.00000000e+00 -1.00000000e+00
    outer loop
      vertex 1.36753500e+02 1.65000000e+00 0.00000000e+00
      vertex 7.67400000e+01 1.26165000e+01 0.00000000e+00
      vertex 1.31502000e+02 2.61000000e+00 0.00000000e+00
    endloop
  endfacet
  facet normal 0.00000000e+00 0.00000000e+00 -1.00000000e+00
    outer loop
      vertex 1.36753500e+02 1.65000000e+00 0.00000000e+00
      vertex 6.95985000e+01 1.32465000e+01 0.00000000e+00
      vertex 7.67400000e+01 1.26165000e+01 0.00000000e+00
    endloop
  endfacet
  facet normal 0.00000000e+00 0.00000000e+00 -1.00000000e+00
    outer loop
      vertex 1.36753500e+02 1.65000000e+00 0.00000000e+00
      vertex 6.25185000e+01 1.35075000e+01 0.00000000e+00
      vertex 6.95985000e+01 1.32465000e+01 0.00000000e+00
    endloop
  endfacet
  facet normal 0.00000000e+00 0.00000000e+00 -1.00000000e+00
    outer loop
      vertex 1.41292500e+02 9.16500000e-01 0.00000000e+00
      vertex 6.25185000e+01 1.35075000e+01 0.00000000e+00
      vertex 1.36753500e+02 1.65000000e+00 0.00000000e+00
    endloop
  endfacet
  facet normal 0.00000000e+00 0.00000000e+00 -1.00000000e+00
    outer loop
      vertex 1.41292500e+02 9.16500000e-01 0.00000000e+00
      vertex 5.54760000e+01 1.34715000e+01 0.00000000e+00
      vertex 6.25185000e+01 1.35075000e+01 0.00000000e+00
    endloop
  endfacet
  facet normal 0.00000000e+00 0.00000000e+00 -1.00000000e+00
    outer loop
      vertex 1.41292500e+02 9.16500000e-01 0.00000000e+00
      vertex 4.85550000e+01 1.32090000e+01 0.00000000e+00
      vertex 5.54760000e+01 1.34715000e+01 0.00000000e+00
    endloop
  endfacet
  facet normal 0.00000000e+00 0.00000000e+00 -1.00000000e+00
    outer loop
      vertex 1.44993000e+02 4.18500000e-01 0.00000000e+00
      vertex 4.85550000e+01 1.32090000e+01 0.00000000e+00
      vertex 1.41292500e+02 9.16500000e-01 0.00000000e+00
    endloop
  endfacet
  facet normal 0.00000000e+00 0.00000000e+00 -1.00000000e+00
    outer loop
      vertex 1.44993000e+02 4.18500000e-01 0.00000000e+00
      vertex 4.18335000e+01 1.27380000e+01 0.00000000e+00
      vertex 4.85550000e+01 1.32090000e+01 0.00000000e+00
    endloop
  endfacet
  facet normal 0.00000000e+00 0.00000000e+00 -1.00000000e+00
    outer loop
      vertex 1.44993000e+02 4.18500000e-01 0.00000000e+00
      vertex 3.53880000e+01 1.20870000e+01 0.00000000e+00
      vertex 4.18335000e+01 1.27380000e+01 0.00000000e+00
    endloop
  endfacet
  facet normal 0.00000000e+00 0.00000000e+00 -1.00000000e+00
    outer loop
      vertex 1.44993000e+02 4.18500000e-01 0.00000000e+00
      vertex 2.92920000e+01 1.12710000e+01 0.00000000e+00
      vertex 3.53880000e+01 1.20870000e+01 0.00000000e+00
    endloop
  endfacet
  facet normal 0.00000000e+00 0.00000000e+00 -1.00000000e+00
    outer loop
      vertex 1.47738000e+02 1.38000000e-01 0.00000000e+00
      vertex 2.92920000e+01 1.12710000e+01 0.00000000e+00
      vertex 1.44993000e+02 4.18500000e-01 0.00000000e+00
    endloop
  endfacet
  facet normal 0.00000000e+00 0.00000000e+00 -1.00000000e+00
    outer loop
      vertex 1.49428500e+02 -2.40000000e-02 0.00000000e+00
      vertex 2.92920000e+01 1.12710000e+01 0.00000000e+00
      vertex 1.47738000e+02 1.38000000e-01 0.00000000e+00
    endloop
  endfacet
  facet normal 0.00000000e+00 0.00000000e+00 -1.00000000e+00
    outer loop
      vertex 1.49428500e+02 -2.40000000e-02 0.00000000e+00
      vertex 2.36130000e+01 1.03125000e+01 0.00000000e+00
      vertex 2.92920000e+01 1.12710000e+01 0.00000000e+00
    endloop
  endfacet
  facet normal 0.00000000e+00 0.00000000e+00 -1.00000000e+00
    outer loop
      vertex 1.49428500e+02 -2.40000000e-02 0.00000000e+00
      vertex 1.84155000e+01 9.23250000e+00 0.00000000e+00
      vertex 2.36130000e+01 1.03125000e+01 0.00000000e+00
    endloop
  endfacet
  facet normal 0.00000000e+00 0.00000000e+00 -1.00000000e+00
    outer loop
      vertex 1.49428500e+02 -2.40000000e-02 0.00000000e+00
      vertex 1.37610000e+01 8.05200000e+00 0.00000000e+00
      vertex 1.84155000e+01 9.23250000e+00 0.00000000e+00
    endloop
  endfacet
  facet normal 0.00000000e+00 0.00000000e+00 -1.00000000e+00
    outer loop
      vertex 1.49428500e+02 -2.40000000e-02 0.00000000e+00
      vertex 9.70500000e+00 6.79500000e+00 0.00000000e+00
      vertex 1.37610000e+01 8.05200000e+00 0.00000000e+00
    endloop
  endfacet
  facet normal 0.00000000e+00 0.00000000e+00 -1.00000000e+00
    outer loop
      vertex 1.49428500e+02 -2.40000000e-02 0.00000000e+00
      vertex 6.30150000e+00 5.48400000e+00 0.00000000e+00
      vertex 9.70500000e+00 6.79500000e+00 0.00000000e+00
    endloop
  endfacet
  facet normal 0.00000000e+00 0.00000000e+00 -1.00000000e+00
    outer loop
      vertex 1.49428500e+02 -2.40000000e-02 0.00000000e+00
      vertex 3.61050000e+00 4.13700000e+00 0.00000000e+00
      vertex 6.30150000e+00 5.48400000e+00 0.00000000e+00
    endloop
  endfacet
  facet normal 0.00000000e+00 0.00000000e+00 -1.00000000e+00
    outer loop
      vertex 1.49428500e+02 -2.40000000e-02 0.00000000e+00
      vertex 1.66650000e+00 2.73750000e+00 0.00000000e+00
      vertex 3.61050000e+00 4.13700000e+00 0.00000000e+00
    endloop
  endfacet
  facet normal 0.00000000e+00 0.00000000e+00 -1.00000000e+00
    outer loop
      vertex 1.49428500e+02 -2.40000000e-02 0.00000000e+00
      vertex 4.39500000e-01 1.30950000e+00 0.00000000e+00
      vertex 1.66650000e+00 2.73750000e+00 0.00000000e+00
    endloop
  endfacet
  facet normal 0.00000000e+00 0.00000000e+00 -1.00000000e+00
    outer loop
      vertex 1.49428500e+02 -2.40000000e-02 0.00000000e+00
      vertex 0.00000000e+00 0.00000000e+00 0.00000000e+00
      vertex 4.39500000e-01 1.30950000e+00 0.00000000e+00
    endloop
  endfacet
  facet normal -0.00000000e+00 0.00000000e+00 -1.00000000e+00
    outer loop
      vertex 1.49428500e+02 -2.40000000e-02 0.00000000e+00
      vertex 4.39500000e-01 -1.30950000e+00 0.00000000e+00
      vertex 0.00000000e+00 0.00000000e+00 0.00000000e+00
    endloop
  endfacet
  facet normal 0.00000000e+00 0.00000000e+00 -1.00000000e+00
    outer loop
      vertex 1.49428500e+02 -2.40000000e-02 0.00000000e+00
      vertex 1.66650000e+00 -2.73750000e+00 0.00000000e+00
      vertex 4.39500000e-01 -1.30950000e+00 0.00000000e+00
    endloop
  endfacet
  facet normal 0.00000000e+00 0.00000000e+00 -1.00000000e+00
    outer loop
      vertex 1.49428500e+02 -2.40000000e-02 0.00000000e+00
      vertex 3.61050000e+00 -4.13700000e+00 0.00000000e+00
      vertex 1.66650000e+00 -2.73750000e+00 0.00000000e+00
    endloop
  endfacet
  facet normal 0.00000000e+00 0.00000000e+00 -1.00000000e+00
    outer loop
      vertex 1.49428500e+02 -2.40000000e-02 0.00000000e+00
      vertex 6.30150000e+00 -5.48400000e+00 0.00000000e+00
      vertex 3.61050000e+00 -4.13700000e+00 0.00000000e+00
    endloop
  endfacet
  facet normal 0.00000000e+00 0.00000000e+00 -1.00000000e+00
    outer loop
      vertex 1.49428500e+02 -2.40000000e-02 0.00000000e+00
      vertex 9.70500000e+00 -6.79500000e+00 0.00000000e+00
      vertex 6.30150000e+00 -5.48400000e+00 0.00000000e+00
    endloop
  endfacet
  facet normal 0.00000000e+00 0.00000000e+00 -1.00000000e+00
    outer loop
      vertex 1.49428500e+02 -2.40000000e-02 0.00000000e+00
      vertex 1.37610000e+01 -8.05200000e+00 0.00000000e+00
      vertex 9.70500000e+00 -6.79500000e+00 0.00000000e+00
    endloop
  endfacet
  facet normal 0.00000000e+00 0.00000000e+00 -1.00000000e+00
    outer loop
      vertex 1.37610000e+01 -8.05200000e+00 0.00000000e+00
      vertex 2.36130000e+01 -1.03125000e+01 0.00000000e+00
      vertex 1.84155000e+01 -9.23250000e+00 0.00000000e+00
    endloop
  endfacet
  facet normal 0.00000000e+00 0.00000000e+00 -1.00000000e+00
    outer loop
      vertex 1.37610000e+01 -8.05200000e+00 0.00000000e+00
      vertex 2.92920000e+01 -1.12710000e+01 0.00000000e+00
      vertex 2.36130000e+01 -1.03125000e+01 0.00000000e+00
    endloop
  endfacet
  facet normal 0.00000000e+00 0.00000000e+00 -1.00000000e+00
    outer loop
      vertex 1.37610000e+01 -8.05200000e+00 0.00000000e+00
      vertex 3.53880000e+01 -1.20870000e+01 0.00000000e+00
      vertex 2.92920000e+01 -1.12710000e+01 0.00000000e+00
    endloop
  endfacet
  facet normal 0.00000000e+00 0.00000000e+00 -1.00000000e+00
    outer loop
      vertex 1.37610000e+01 -8.05200000e+00 0.00000000e+00
      vertex 4.18335000e+01 -1.27380000e+01 0.00000000e+00
      vertex 3.53880000e+01 -1.20870000e+01 0.00000000e+00
    endloop
  endfacet
  facet normal 0.00000000e+00 0.00000000e+00 -1.00000000e+00
    outer loop
      vertex 1.37610000e+01 -8.05200000e+00 0.00000000e+00
      vertex 4.85550000e+01 -1.32090000e+01 0.00000000e+00
      vertex 4.18335000e+01 -1.27380000e+01 0.00000000e+00
    endloop
  endfacet
  facet normal 0.00000000e+00 0.00000000e+00 -1.00000000e+00
    outer loop
      vertex 1.37610000e+01 -8.05200000e+00 0.00000000e+00
      vertex 5.54760000e+01 -1.34715000e+01 0.00000000e+00
      vertex 4.85550000e+01 -1.32090000e+01 0.00000000e+00
    endloop
  endfacet
  facet normal 0.00000000e+00 0.00000000e+00 -1.00000000e+00
    outer loop
      vertex 1.37610000e+01 -8.05200000e+00 0.00000000e+00
      vertex 6.25185000e+01 -1.35075000e+01 0.00000000e+00
      vertex 5.54760000e+01 -1.34715000e+01 0.00000000e+00
    endloop
  endfacet
  facet normal 0.00000000e+00 0.00000000e+00 -1.00000000e+00
    outer loop
      vertex 1.37610000e+01 -8.05200000e+00 0.00000000e+00
      vertex 6.95985000e+01 -1.32465000e+01 0.00000000e+00
      vertex 6.25185000e+01 -1.35075000e+01 0.00000000e+00
    endloop
  endfacet
  facet normal 0.00000000e+00 0.00000000e+00 -1.00000000e+00
    outer loop
      vertex 1.37610000e+01 -8.05200000e+00 0.00000000e+00
      vertex 7.67400000e+01 -1.26165000e+01 0.00000000e+00
      vertex 6.95985000e+01 -1.32465000e+01 0.00000000e+00
    endloop
  endfacet
  facet normal 0.00000000e+00 0.00000000e+00 -1.00000000e+00
    outer loop
      vertex 1.37610000e+01 -8.05200000e+00 0.00000000e+00
      vertex 8.39895000e+01 -1.16895000e+01 0.00000000e+00
      vertex 7.67400000e+01 -1.26165000e+01 0.00000000e+00
    endloop
  endfacet
  facet normal 0.00000000e+00 0.00000000e+00 -1.00000000e+00
    outer loop
      vertex 1.37610000e+01 -8.05200000e+00 0.00000000e+00
      vertex 9.12780000e+01 -1.05540000e+01 0.00000000e+00
      vertex 8.39895000e+01 -1.16895000e+01 0.00000000e+00
    endloop
  endfacet
  facet normal 0.00000000e+00 0.00000000e+00 -1.00000000e+00
    outer loop
      vertex 1.37610000e+01 -8.05200000e+00 0.00000000e+00
      vertex 9.85350000e+01 -9.26250000e+00 0.00000000e+00
      vertex 9.12780000e+01 -1.05540000e+01 0.00000000e+00
    endloop
  endfacet
  facet normal 0.00000000e+00 0.00000000e+00 -1.00000000e+00
    outer loop
      vertex 1.37610000e+01 -8.05200000e+00 0.00000000e+00
      vertex 1.05685500e+02 -7.87950000e+00 0.00000000e+00
      vertex 9.85350000e+01 -9.26250000e+00 0.00000000e+00
    endloop
  endfacet
  facet normal 0.00000000e+00 0.00000000e+00 -1.00000000e+00
    outer loop
      vertex 1.37610000e+01 -8.05200000e+00 0.00000000e+00
      vertex 1.12650000e+02 -6.45900000e+00 0.00000000e+00
      vertex 1.05685500e+02 -7.87950000e+00 0.00000000e+00
    endloop
  endfacet
  facet normal 0.00000000e+00 0.00000000e+00 -1.00000000e+00
    outer loop
      vertex 1.37610000e+01 -8.05200000e+00 0.00000000e+00
      vertex 1.19340000e+02 -5.06850000e+00 0.00000000e+00
      vertex 1.12650000e+02 -6.45900000e+00 0.00000000e+00
    endloop
  endfacet
  facet normal 0.00000000e+00 0.00000000e+00 -1.00000000e+00
    outer loop
      vertex 1.37610000e+01 -8.05200000e+00 0.00000000e+00
      vertex 1.25658000e+02 -3.76500000e+00 0.00000000e+00
      vertex 1.19340000e+02 -5.06850000e+00 0.00000000e+00
    endloop
  endfacet
  facet normal 0.00000000e+00 0.00000000e+00 -1.00000000e+00
    outer loop
      vertex 1.37610000e+01 -8.05200000e+00 0.00000000e+00
      vertex 1.31502000e+02 -2.61000000e+00 0.00000000e+00
      vertex 1.25658000e+02 -3.76500000e+00 0.00000000e+00
    endloop
  endfacet
  facet normal 0.00000000e+00 0.00000000e+00 -1.00000000e+00
    outer loop
      vertex 1.37610000e+01 -8.05200000e+00 0.00000000e+00
      vertex 1.36753500e+02 -1.65000000e+00 0.00000000e+00
      vertex 1.31502000e+02 -2.61000000e+00 0.00000000e+00
    endloop
  endfacet
  facet normal 0.00000000e+00 0.00000000e+00 -1.00000000e+00
    outer loop
      vertex 1.37610000e+01 -8.05200000e+00 0.00000000e+00
      vertex 1.41292500e+02 -9.16500000e-01 0.00000000e+00
      vertex 1.36753500e+02 -1.65000000e+00 0.00000000e+00
    endloop
  endfacet
  facet normal 0.00000000e+00 0.00000000e+00 -1.00000000e+00
    outer loop
      vertex 1.37610000e+01 -8.05200000e+00 0.00000000e+00
      vertex 1.44993000e+02 -4.20000000e-01 0.00000000e+00
      vertex 1.41292500e+02 -9.16500000e-01 0.00000000e+00
    endloop
  endfacet
  facet normal 0.00000000e+00 0.00000000e+00 -1.00000000e+00
    outer loop
      vertex 1.37610000e+01 -8.05200000e+00 0.00000000e+00
      vertex 1.47738000e+02 -1.38000000e-01 0.00000000e+00
      vertex 1.44993000e+02 -4.20000000e-01 0.00000000e+00
    endloop
  endfacet
  facet normal 0.00000000e+00 0.00000000e+00 -1.00000000e+00
    outer loop
      vertex 1.37610000e+01 -8.05200000e+00 0.00000000e+00
      vertex 1.49428500e+02 -2.40000000e-02 0.00000000e+00
      vertex 1.47738000e+02 -1.38000000e-01 0.00000000e+00
    endloop
  endfacet
  facet normal 0.00000000e+00 0.00000000e+00 1.00000000e+00
    outer loop
      vertex 1.49428500e+02 -2.40000000e-02 4.00000000e+01
      vertex 1.50000000e+02 0.00000000e+00 4.00000000e+01
      vertex 1.49428500e+02 2.40000000e-02 4.00000000e+01
    endloop
  endfacet
  facet normal 0.00000000e+00 -0.00000000e+00 1.00000000e+00
    outer loop
      vertex 1.49428500e+02 -2.40000000e-02 4.00000000e+01
      vertex 1.49428500e+02 2.40000000e-02 4.00000000e+01
      vertex 1.47738000e+02 1.38000000e-01 4.00000000e+01
    endloop
  endfacet
  facet normal 0.00000000e+00 0.00000000e+00 1.00000000e+00
    outer loop
      vertex 1.19340000e+02 5.06850000e+00 4.00000000e+01
      vertex 1.12650000e+02 6.45900000e+00 4.00000000e+01
      vertex 1.05685500e+02 7.87950000e+00 4.00000000e+01
    endloop
  endfacet
  facet normal 0.00000000e+00 0.00000000e+00 1.00000000e+00
    outer loop
      vertex 1.25658000e+02 3.76500000e+00 4.00000000e+01
      vertex 1.19340000e+02 5.06850000e+00 4.00000000e+01
      vertex 1.05685500e+02 7.87950000e+00 4.00000000e+01
    endloop
  endfacet
  facet normal 0.00000000e+00 0.00000000e+00 1.00000000e+00
    outer loop
      vertex 1.25658000e+02 3.76500000e+00 4.00000000e+01
      vertex 1.05685500e+02 7.87950000e+00 4.00000000e+01
      vertex 9.85350000e+01 9.26250000e+00 4.00000000e+01
    endloop
  endfacet
  facet normal 0.00000000e+00 0.00000000e+00 1.00000000e+00
    outer loop
      vertex 1.25658000e+02 3.76500000e+00 4.00000000e+01
      vertex 9.85350000e+01 9.26250000e+00 4.00000000e+01
      vertex 9.12780000e+01 1.05540000e+01 4.00000000e+01
    endloop
  endfacet
  facet normal 0.00000000e+00 0.00000000e+00 1.00000000e+00
    outer loop
      vertex 1.31502000e+02 2.61000000e+00 4.00000000e+01
      vertex 1.25658000e+02 3.76500000e+00 4.00000000e+01
      vertex 9.12780000e+01 1.05540000e+01 4.00000000e+01
    endloop
  endfacet
  facet normal 0.00000000e+00 0.00000000e+00 1.00000000e+00
    outer loop
      vertex 1.31502000e+02 2.61000000e+00 4.00000000e+01
      vertex 9.12780000e+01 1.05540000e+01 4.00000000e+01
      vertex 8.39895000e+01 1.16895000e+01 4.00000000e+01
    endloop
  endfacet
  facet normal 0.00000000e+00 0.00000000e+00 1.00000000e+00
    outer loop
      vertex 1.31502000e+02 2.61000000e+00 4.00000000e+01
      vertex 8.39895000e+01 1.16895000e+01 4.00000000e+01
      vertex 7.67400000e+01 1.26165000e+01 4.00000000e+01
    endloop
  endfacet
  facet normal 0.00000000e+00 0.00000000e+00 1.00000000e+00
    outer loop
      vertex 1.36753500e+02 1.65000000e+00 4.00000000e+01
      vertex 1.31502000e+02 2.61000000e+00 4.00000000e+01
      vertex 7.67400000e+01 1.26165000e+01 4.00000000e+01
    endloop
  endfacet
  facet normal 0.00000000e+00 0.00000000e+00 1.00000000e+00
    outer loop
      vertex 1.36753500e+02 1.65000000e+00 4.00000000e+01
      vertex 7.67400000e+01 1.26165000e+01 4.00000000e+01
      vertex 6.95985000e+01 1.32465000e+01 4.00000000e+01
    endloop
  endfacet
  facet normal 0.00000000e+00 0.00000000e+00 1.00000000e+00
    outer loop
      vertex 1.36753500e+02 1.65000000e+00 4.00000000e+01
      vertex 6.95985000e+01 1.32465000e+01 4.00000000e+01
      vertex 6.25185000e+01 1.35075000e+01 4.00000000e+01
    endloop
  endfacet
  facet normal 0.00000000e+00 0.00000000e+00 1.00000000e+00
    outer loop
      vertex 1.41292500e+02 9.16500000e-01 4.00000000e+01
      vertex 1.36753500e+02 1.65000000e+00 4.00000000e+01
      vertex 6.25185000e+01 1.35075000e+01 4.00000000e+01
    endloop
  endfacet
  facet normal 0.00000000e+00 0.00000000e+00 1.00000000e+00
    outer loop
      vertex 1.41292500e+02 9.16500000e-01 4.00000000e+01
      vertex 6.25185000e+01 1.35075000e+01 4.00000000e+01
      vertex 5.54760000e+01 1.34715000e+01 4.00000000e+01
    endloop
  endfacet
  facet normal 0.00000000e+00 0.00000000e+00 1.00000000e+00
    outer loop
      vertex 1.41292500e+02 9.16500000e-01 4.00000000e+01
      vertex 5.54760000e+01 1.34715000e+01 4.00000000e+01
      vertex 4.85550000e+01 1.32090000e+01 4.00000000e+01
    endloop
  endfacet
  facet normal 0.00000000e+00 0.00000000e+00 1.00000000e+00
    outer loop
      vertex 1.44993000e+02 4.18500000e-01 4.00000000e+01
      vertex 1.41292500e+02 9.16500000e-01 4.00000000e+01
      vertex 4.85550000e+01 1.32090000e+01 4.00000000e+01
    endloop
  endfacet
  facet normal 0.00000000e+00 0.00000000e+00 1.00000000e+00
    outer loop
      vertex 1.44993000e+02 4.18500000e-01 4.00000000e+01
      vertex 4.85550000e+01 1.32090000e+01 4.00000000e+01
      vertex 4.18335000e+01 1.27380000e+01 4.00000000e+01
    endloop
  endfacet
  facet normal 0.00000000e+00 0.00000000e+00 1.00000000e+00
    outer loop
      vertex 1.44993000e+02 4.18500000e-01 4.00000000e+01
      vertex 4.18335000e+01 1.27380000e+01 4.00000000e+01
      vertex 3.53880000e+01 1.20870000e+01 4.00000000e+01
    endloop
  endfacet
  facet normal 0.00000000e+00 0.00000000e+00 1.00000000e+00
    outer loop
      vertex 1.44993000e+02 4.18500000e-01 4.00000000e+01
      vertex 3.53880000e+01 1.20870000e+01 4.00000000e+01
      vertex 2.92920000e+01 1.12710000e+01 4.00000000e+01
    endloop
  endfacet
  facet normal 0.00000000e+00 0.00000000e+00 1.00000000e+00
    outer loop
      vertex 1.47738000e+02 1.38000000e-01 4.00000000e+01
      vertex 1.44993000e+02 4.18500000e-01 4.00000000e+01
      vertex 2.92920000e+01 1.12710000e+01 4.00000000e+01
    endloop
  endfacet
  facet normal 0.00000000e+00 0.00000000e+00 1.00000000e+00
    outer loop
      vertex 1.49428500e+02 -2.40000000e-02 4.00000000e+01
      vertex 1.47738000e+02 1.38000000e-01 4.00000000e+01
      vertex 2.92920000e+01 1.12710000e+01 4.00000000e+01
    endloop
  endfacet
  facet normal 0.00000000e+00 0.00000000e+00 1.00000000e+00
    outer loop
      vertex 1.49428500e+02 -2.40000000e-02 4.00000000e+01
      vertex 2.92920000e+01 1.12710000e+01 4.00000000e+01
      vertex 2.36130000e+01 1.03125000e+01 4.00000000e+01
    endloop
  endfacet
  facet normal 0.00000000e+00 0.00000000e+00 1.00000000e+00
    outer loop
      vertex 1.49428500e+02 -2.40000000e-02 4.00000000e+01
      vertex 2.36130000e+01 1.03125000e+01 4.00000000e+01
      vertex 1.84155000e+01 9.23250000e+00 4.00000000e+01
    endloop
  endfacet
  facet normal 0.00000000e+00 0.00000000e+00 1.00000000e+00
    outer loop
      vertex 1.49428500e+02 -2.40000000e-02 4.00000000e+01
      vertex 1.84155000e+01 9.23250000e+00 4.00000000e+01
      vertex 1.37610000e+01 8.05200000e+00 4.00000000e+01
    endloop
  endfacet
  facet normal 0.00000000e+00 0.00000000e+00 1.00000000e+00
    outer loop
      vertex 1.49428500e+02 -2.40000000e-02 4.00000000e+01
      vertex 1.37610000e+01 8.05200000e+00 4.00000000e+01
      vertex 9.70500000e+00 6.79500000e+00 4.00000000e+01
    endloop
  endfacet
  facet normal 0.00000000e+00 0.00000000e+00 1.00000000e+00
    outer loop
      vertex 1.49428500e+02 -2.40000000e-02 4.00000000e+01
      vertex 9.70500000e+00 6.79500000e+00 4.00000000e+01
      vertex 6.30150000e+00 5.48400000e+00 4.00000000e+01
    endloop
  endfacet
  facet normal 0.00000000e+00 0.00000000e+00 1.00000000e+00
    outer loop
      vertex 1.49428500e+02 -2.40000000e-02 4.00000000e+01
      vertex 6.30150000e+00 5.48400000e+00 4.00000000e+01
      vertex 3.61050000e+00 4.13700000e+00 4.00000000e+01
    endloop
  endfacet
  facet normal 0.00000000e+00 0.00000000e+00 1.00000000e+00
    outer loop
      vertex 1.49428500e+02 -2.40000000e-02 4.00000000e+01
      vertex 3.61050000e+00 4.13700000e+00 4.00000000e+01
      vertex 1.66650000e+00 2.73750000e+00 4.00000000e+01
    endloop
  endfacet
  facet normal 0.00000000e+00 0.00000000e+00 1.00000000e+00
    outer loop
      vertex 1.49428500e+02 -2.40000000e-02 4.00000000e+01
      vertex 1.66650000e+00 2.73750000e+00 4.00000000e+01
      vertex 4.39500000e-01 1.30950000e+00 4.00000000e+01
    endloop
  endfacet
  facet normal 0.00000000e+00 0.00000000e+00 1.00000000e+00
    outer loop
      vertex 1.49428500e+02 -2.40000000e-02 4.00000000e+01
      vertex 4.39500000e-01 1.30950000e+00 4.00000000e+01
      vertex 0.00000000e+00 0.00000000e+00 4.00000000e+01
    endloop
  endfacet
  facet normal 0.00000000e+00 0.00000000e+00 1.00000000e+00
    outer loop
      vertex 1.49428500e+02 -2.40000000e-02 4.00000000e+01
      vertex 0.00000000e+00 0.00000000e+00 4.00000000e+01
      vertex 4.39500000e-01 -1.30950000e+00 4.00000000e+01
    endloop
  endfacet
  facet normal 0.00000000e+00 0.00000000e+00 1.00000000e+00
    outer loop
      vertex 1.49428500e+02 -2.40000000e-02 4.00000000e+01
      vertex 4.39500000e-01 -1.30950000e+00 4.00000000e+01
      vertex 1.66650000e+00 -2.73750000e+00 4.00000000e+01
    endloop
  endfacet
  facet normal 0.00000000e+00 0.00000000e+00 1.00000000e+00
    outer loop
      vertex 1.49428500e+02 -2.40000000e-02 4.00000000e+01
      vertex 1.66650000e+00 -2.73750000e+00 4.00000000e+01
      vertex 3.61050000e+00 -4.13700000e+00 4.00000000e+01
    endloop
  endfacet
  facet normal 0.00000000e+00 0.00000000e+00 1.00000000e+00
    outer loop
      vertex 1.49428500e+02 -2.40000000e-02 4.00000000e+01
      vertex 3.61050000e+00 -4.13700000e+00 4.00000000e+01
      vertex 6.30150000e+00 -5.48400000e+00 4.00000000e+01
    endloop
  endfacet
  facet normal 0.00000000e+00 0.00000000e+00 1.00000000e+00
    outer loop
      vertex 1.49428500e+02 -2.40000000e-02 4.00000000e+01
      vertex 6.30150000e+00 -5.48400000e+00 4.00000000e+01
      vertex 9.70500000e+00 -6.79500000e+00 4.00000000e+01
    endloop
  endfacet
  facet normal 0.00000000e+00 0.00000000e+00 1.00000000e+00
    outer loop
      vertex 1.49428500e+02 -2.40000000e-02 4.00000000e+01
      vertex 9.70500000e+00 -6.79500000e+00 4.00000000e+01
      vertex 1.37610000e+01 -8.05200000e+00 4.00000000e+01
    endloop
  endfacet
  facet normal 0.00000000e+00 0.00000000e+00 1.00000000e+00
    outer loop
      vertex 1.37610000e+01 -8.05200000e+00 4.00000000e+01
      vertex 1.84155000e+01 -9.23250000e+00 4.00000000e+01
      vertex 2.36130000e+01 -1.03125000e+01 4.00000000e+01
    endloop
  endfacet
  facet normal 0.00000000e+00 0.00000000e+00 1.00000000e+00
    outer loop
      vertex 1.37610000e+01 -8.05200000e+00 4.00000000e+01
      vertex 2.36130000e+01 -1.03125000e+01 4.00000000e+01
      vertex 2.92920000e+01 -1.12710000e+01 4.00000000e+01
    endloop
  endfacet
  facet normal 0.00000000e+00 0.00000000e+00 1.00000000e+00
    outer loop
      vertex 1.37610000e+01 -8.05200000e+00 4.00000000e+01
      vertex 2.92920000e+01 -1.12710000e+01 4.00000000e+01
      vertex 3.53880000e+01 -1.20870000e+01 4.00000000e+01
    endloop
  endfacet
  facet normal 0.00000000e+00 0.00000000e+00 1.00000000e+00
    outer loop
      vertex 1.37610000e+01 -8.05200000e+00 4.00000000e+01
      vertex 3.53880000e+01 -1.20870000e+01 4.00000000e+01
      vertex 4.18335000e+01 -1.27380000e+01 4.00000000e+01
    endloop
  endfacet
  facet normal 0.00000000e+00 0.00000000e+00 1.00000000e+00
    outer loop
      vertex 1.37610000e+01 -8.05200000e+00 4.00000000e+01
      vertex 4.18335000e+01 -1.27380000e+01 4.00000000e+01
      vertex 4.85550000e+01 -1.32090000e+01 4.00000000e+01
    endloop
  endfacet
  facet normal 0.00000000e+00 0.00000000e+00 1.00000000e+00
    outer loop
      vertex 1.37610000e+01 -8.05200000e+00 4.00000000e+01
      vertex 4.85550000e+01 -1.32090000e+01 4.00000000e+01
      vertex 5.54760000e+01 -1.34715000e+01 4.00000000e+01
    endloop
  endfacet
  facet normal 0.00000000e+00 0.00000000e+00 1.00000000e+00
    outer loop
      vertex 1.37610000e+01 -8.05200000e+00 4.00000000e+01
      vertex 5.54760000e+01 -1.34715000e+01 4.00000000e+01
      vertex 6.25185000e+01 -1.35075000e+01 4.00000000e+01
    endloop
  endfacet
  facet normal 0.00000000e+00 0.00000000e+00 1.00000000e+00
    outer loop
      vertex 1.37610000e+01 -8.05200000e+00 4.00000000e+01
      vertex 6.25185000e+01 -1.35075000e+01 4.00000000e+01
      vertex 6.95985000e+01 -1.32465000e+01 4.00000000e+01
    endloop
  endfacet
  facet normal 0.00000000e+00 0.00000000e+00 1.00000000e+00
    outer loop
      vertex 1.37610000e+01 -8.05200000e+00 4.00000000e+01
      vertex 6.95985000e+01 -1.32465000e+01 4.00000000e+01
      vertex 7.67400000e+01 -1.26165000e+01 4.00000000e+01
    endloop
  endfacet
  facet normal 0.00000000e+00 0.00000000e+00 1.00000000e+00
    outer loop
      vertex 1.37610000e+01 -8.05200000e+00 4.00000000e+01
      vertex 7.67400000e+01 -1.26165000e+01 4.00000000e+01
      vertex 8.39895000e+01 -1.16895000e+01 4.00000000e+01
    endloop
  endfacet
  facet normal 0.00000000e+00 0.00000000e+00 1.00000000e+00
    outer loop
      vertex 1.37610000e+01 -8.05200000e+00 4.00000000e+01
      vertex 8.39895000e+01 -1.16895000e+01 4.00000000e+01
      vertex 9.12780000e+01 -1.05540000e+01 4.00000000e+01
    endloop
  endfacet
  facet normal 0.00000000e+00 0.00000000e+00 1.00000000e+00
    outer loop
      vertex 1.37610000e+01 -8.05200000e+00 4.00000000e+01
      vertex 9.12780000e+01 -1.05540000e+01 4.00000000e+01
      vertex 9.85350000e+01 -9.26250000e+00 4.00000000e+01
    endloop
  endfacet
  facet normal -0.00000000e+00 0.00000000e+00 1.00000000e+00
    outer loop
      vertex 1.37610000e+01 -8.05200000e+00 4.00000000e+01
      vertex 9.85350000e+01 -9.26250000e+00 4.00000000e+01
      vertex 1.05685500e+02 -7.87950000e+00 4.00000000e+01
    endloop
  endfacet
  facet normal 0.00000000e+00 0.00000000e+00 1.00000000e+00
    outer loop
      vertex 1.37610000e+01 -8.05200000e+00 4.00000000e+01
      vertex 1.05685500e+02 -7.87950000e+00 4.00000000e+01
      vertex 1.12650000e+02 -6.45900000e+00 4.00000000e+01
    endloop
  endfacet
  facet normal 0.00000000e+00 0.00000000e+00 1.00000000e+00
    outer loop
      vertex 1.37610000e+01 -8.05200000e+00 4.00000000e+01
      vertex 1.12650000e+02 -6.45900000e+00 4.00000000e+01
      vertex 1.19340000e+02 -5.06850000e+00 4.00000000e+01
    endloop
  endfacet
  facet normal 0.00000000e+00 0.00000000e+00 1.00000000e+00
    outer loop
      vertex 1.37610000e+01 -8.05200000e+00 4.00000000e+01
      vertex 1.19340000e+02 -5.06850000e+00 4.00000000e+01
      vertex 1.25658000e+02 -3.76500000e+00 4.00000000e+01
    endloop
  endfacet
  facet normal 0.00000000e+00 0.00000000e+00 1.00000000e+00
    outer loop
      vertex 1.37610000e+01 -8.05200000e+00 4.00000000e+01
      vertex 1.25658000e+02 -3.76500000e+00 4.00000000e+01
      vertex 1.31502000e+02 -2.61000000e+00 4.00000000e+01
    endloop
  endfacet
  facet normal 0.00000000e+00 0.00000000e+00 1.00000000e+00
    outer loop
      vertex 1.37610000e+01 -8.05200000e+00 4.00000000e+01
      vertex 1.31502000e+02 -2.61000000e+00 4.00000000e+01
      vertex 1.36753500e+02 -1.65000000e+00 4.00000000e+01
    endloop
  endfacet
  facet normal 0.00000000e+00 0.00000000e+00 1.00000000e+00
    outer loop
      vertex 1.37610000e+01 -8.05200000e+00 4.00000000e+01
      vertex 1.36753500e+02 -1.65000000e+00 4.00000000e+01
      vertex 1.41292500e+02 -9.16500000e-01 4.00000000e+01
    endloop
  endfacet
  facet normal 0.00000000e+00 0.00000000e+00 1.00000000e+00
    outer loop
      vertex 1.37610000e+01 -8.05200000e+00 4.00000000e+01
      vertex 1.41292500e+02 -9.16500000e-01 4.00000000e+01
      vertex 1.44993000e+02 -4.20000000e-01 4.00000000e+01
    endloop
  endfacet
  facet normal 0.00000000e+00 0.00000000e+00 1.00000000e+00
    outer loop
      vertex 1.37610000e+01 -8.05200000e+00 4.00000000e+01
      vertex 1.44993000e+02 -4.20000000e-01 4.00000000e+01
      vertex 1.47738000e+02 -1.38000000e-01 4.00000000e+01
    endloop
  endfacet
  facet normal 0.00000000e+00 0.00000000e+00 1.00000000e+00
    outer loop
      vertex 1.37610000e+01 -8.05200000e+00 4.00000000e+01
      vertex 1.47738000e+02 -1.38000000e-01 4.00000000e+01
      vertex 1.49428500e+02 -2.40000000e-02 4.00000000e+01
    endloop
  endfacet
  facet normal 4.19577695e-02 9.99119385e-01 0.00000000e+00
    outer loop
      vertex 1.50000000e+02 0.00000000e+00 0.00000000e+00
      vertex 1.49428500e+02 2.40000000e-02 0.00000000e+00
      vertex 1.49428500e+02 2.40000000e-02 4.00000000e+01
    endloop
  endfacet
  facet normal 4.19577695e-02 9.99119385e-01 -0.00000000e+00
    outer loop
      vertex 1.50000000e+02 0.00000000e+00 0.00000000e+00
      vertex 1.49428500e+02 2.40000000e-02 4.00000000e+01
      vertex 1.50000000e+02 0.00000000e+00 4.00000000e+01
    endloop
  endfacet
  facet normal 6.72828567e-02 9.97733941e-01 0.00000000e+00
    outer loop
      vertex 1.49428500e+02 2.40000000e-02 0.00000000e+00
      vertex 1.47738000e+02 1.38000000e-01 0.00000000e+00
      vertex 1.47738000e+02 1.38000000e-01 4.00000000e+01
    endloop
  endfacet
  facet normal 6.72828567e-02 9.97733941e-01 -0.00000000e+00
    outer loop
      vertex 1.49428500e+02 2.40000000e-02 0.00000000e+00
      vertex 1.47738000e+02 1.38000000e-01 4.00000000e+01
      vertex 1.49428500e+02 2.40000000e-02 4.00000000e+01
    endloop
  endfacet
  facet normal 1.01656426e-01 9.94819567e-01 0.00000000e+00
    outer loop
      vertex 1.47738000e+02 1.38000000e-01 0.00000000e+00
      vertex 1.44993000e+02 4.18500000e-01 0.00000000e+00
      vertex 1.44993000e+02 4.18500000e-01 4.00000000e+01
    endloop
  endfacet
  facet normal 1.01656426e-01 9.94819567e-01 -0.00000000e+00
    outer loop
      vertex 1.47738000e+02 1.38000000e-01 0.00000000e+00
      vertex 1.44993000e+02 4.18500000e-01 4.00000000e+01
      vertex 1.47738000e+02 1.38000000e-01 4.00000000e+01
    endloop
  endfacet
  facet normal 1.33374072e-01 9.91065768e-01 0.00000000e+00
    outer loop
      vertex 1.44993000e+02 4.18500000e-01 0.00000000e+00
      vertex 1.41292500e+02 9.16500000e-01 0.00000000e+00
      vertex 1.41292500e+02 9.16500000e-01 4.00000000e+01
    endloop
  endfacet
  facet normal 1.33374072e-01 9.91065768e-01 -0.00000000e+00
    outer loop
      vertex 1.44993000e+02 4.18500000e-01 0.00000000e+00
      vertex 1.41292500e+02 9.16500000e-01 4.00000000e+01
      vertex 1.44993000e+02 4.18500000e-01 4.00000000e+01
    endloop
  endfacet
  facet normal 1.59529883e-01 9.87193100e-01 0.00000000e+00
    outer loop
      vertex 1.41292500e+02 9.16500000e-01 0.00000000e+00
      vertex 1.36753500e+02 1.65000000e+00 0.00000000e+00
      vertex 1.36753500e+02 1.65000000e+00 4.00000000e+01
    endloop
  endfacet
  facet normal 1.59529883e-01 9.87193100e-01 -0.00000000e+00
    outer loop
      vertex 1.41292500e+02 9.16500000e-01 0.00000000e+00
      vertex 1.36753500e+02 1.65000000e+00 4.00000000e+01
      vertex 1.41292500e+02 9.16500000e-01 4.00000000e+01
    endloop
  endfacet
  facet normal 1.79824942e-01 9.83698628e-01 0.00000000e+00
    outer loop
      vertex 1.36753500e+02 1.65000000e+00 0.00000000e+00
      vertex 1.31502000e+02 2.61000000e+00 0.00000000e+00
      vertex 1.31502000e+02 2.61000000e+00 4.00000000e+01
    endloop
  endfacet
  facet normal 1.79824942e-01 9.83698628e-01 -0.00000000e+00
    outer loop
      vertex 1.36753500e+02 1.65000000e+00 0.00000000e+00
      vertex 1.31502000e+02 2.61000000e+00 4.00000000e+01
      vertex 1.36753500e+02 1.65000000e+00 4.00000000e+01
    endloop
  endfacet
  facet normal 1.93888143e-01 9.81023643e-01 0.00000000e+00
    outer loop
      vertex 1.31502000e+02 2.61000000e+00 0.00000000e+00
      vertex 1.25658000e+02 3.76500000e+00 0.00000000e+00
      vertex 1.25658000e+02 3.76500000e+00 4.00000000e+01
    endloop
  endfacet
  facet normal 1.93888143e-01 9.81023643e-01 -0.00000000e+00
    outer loop
      vertex 1.31502000e+02 2.61000000e+00 0.00000000e+00
      vertex 1.25658000e+02 3.76500000e+00 4.00000000e+01
      vertex 1.31502000e+02 2.61000000e+00 4.00000000e+01
    endloop
  endfacet
  facet normal 2.02059668e-01 9.79373213e-01 0.00000000e+00
    outer loop
      vertex 1.25658000e+02 3.76500000e+00 0.00000000e+00
      vertex 1.19340000e+02 5.06850000e+00 0.00000000e+00
      vertex 1.19340000e+02 5.06850000e+00 4.00000000e+01
    endloop
  endfacet
  facet normal 2.02059668e-01 9.79373213e-01 -0.00000000e+00
    outer loop
      vertex 1.25658000e+02 3.76500000e+00 0.00000000e+00
      vertex 1.19340000e+02 5.06850000e+00 4.00000000e+01
      vertex 1.25658000e+02 3.76500000e+00 4.00000000e+01
    endloop
  endfacet
  facet normal 2.03498383e-01 9.79075282e-01 0.00000000e+00
    outer loop
      vertex 1.19340000e+02 5.06850000e+00 0.00000000e+00
      vertex 1.12650000e+02 6.45900000e+00 0.00000000e+00
      vertex 1.12650000e+02 6.45900000e+00 4.00000000e+01
    endloop
  endfacet
  facet normal 2.03498383e-01 9.79075282e-01 -0.00000000e+00
    outer loop
      vertex 1.19340000e+02 5.06850000e+00 0.00000000e+00
      vertex 1.12650000e+02 6.45900000e+00 4.00000000e+01
      vertex 1.19340000e+02 5.06850000e+00 4.00000000e+01
    endloop
  endfacet
  facet normal 1.99848377e-01 9.79826835e-01 0.00000000e+00
    outer loop
      vertex 1.12650000e+02 6.45900000e+00 0.00000000e+00
      vertex 1.05685500e+02 7.87950000e+00 0.00000000e+00
      vertex 1.05685500e+02 7.87950000e+00 4.00000000e+01
    endloop
  endfacet
  facet normal 1.99848377e-01 9.79826835e-01 -0.00000000e+00
    outer loop
      vertex 1.12650000e+02 6.45900000e+00 0.00000000e+00
      vertex 1.05685500e+02 7.87950000e+00 4.00000000e+01
      vertex 1.12650000e+02 6.45900000e+00 4.00000000e+01
    endloop
  endfacet
  facet normal 1.89893826e-01 9.81804632e-01 0.00000000e+00
    outer loop
      vertex 1.05685500e+02 7.87950000e+00 0.00000000e+00
      vertex 9.85350000e+01 9.26250000e+00 0.00000000e+00
      vertex 9.85350000e+01 9.26250000e+00 4.00000000e+01
    endloop
  endfacet
  facet normal 1.89893826e-01 9.81804632e-01 -0.00000000e+00
    outer loop
      vertex 1.05685500e+02 7.87950000e+00 0.00000000e+00
      vertex 9.85350000e+01 9.26250000e+00 4.00000000e+01
      vertex 1.05685500e+02 7.87950000e+00 4.00000000e+01
    endloop
  endfacet
  facet normal 1.75213062e-01 9.84530539e-01 0.00000000e+00
    outer loop
      vertex 9.85350000e+01 9.26250000e+00 0.00000000e+00
      vertex 9.12780000e+01 1.05540000e+01 0.00000000e+00
      vertex 9.12780000e+01 1.05540000e+01 4.00000000e+01
    endloop
  endfacet
  facet normal 1.75213062e-01 9.84530539e-01 -0.00000000e+00
    outer loop
      vertex 9.85350000e+01 9.26250000e+00 0.00000000e+00
      vertex 9.12780000e+01 1.05540000e+01 4.00000000e+01
      vertex 9.85350000e+01 9.26250000e+00 4.00000000e+01
    endloop
  endfacet
  facet normal 1.53936433e-01 9.88080753e-01 0.00000000e+00
    outer loop
      vertex 9.12780000e+01 1.05540000e+01 0.00000000e+00
      vertex 8.39895000e+01 1.16895000e+01 0.00000000e+00
      vertex 8.39895000e+01 1.16895000e+01 4.00000000e+01
    endloop
  endfacet
  facet normal 1.53936433e-01 9.88080753e-01 -0.00000000e+00
    outer loop
      vertex 9.12780000e+01 1.05540000e+01 0.00000000e+00
      vertex 8.39895000e+01 1.16895000e+01 4.00000000e+01
      vertex 9.12780000e+01 1.05540000e+01 4.00000000e+01
    endloop
  endfacet
  facet normal 1.26838129e-01 9.91923429e-01 0.00000000e+00
    outer loop
      vertex 8.39895000e+01 1.16895000e+01 0.00000000e+00
      vertex 7.67400000e+01 1.26165000e+01 0.00000000e+00
      vertex 7.67400000e+01 1.26165000e+01 4.00000000e+01
    endloop
  endfacet
  facet normal 1.26838129e-01 9.91923429e-01 -0.00000000e+00
    outer loop
      vertex 8.39895000e+01 1.16895000e+01 0.00000000e+00
      vertex 7.67400000e+01 1.26165000e+01 4.00000000e+01
      vertex 8.39895000e+01 1.16895000e+01 4.00000000e+01
    endloop
  endfacet
  facet normal 8.78754917e-02 9.96131466e-01 0.00000000e+00
    outer loop
      vertex 7.67400000e+01 1.26165000e+01 0.00000000e+00
      vertex 6.95985000e+01 1.32465000e+01 0.00000000e+00
      vertex 6.95985000e+01 1.32465000e+01 4.00000000e+01
    endloop
  endfacet
  facet normal 8.78754917e-02 9.96131466e-01 -0.00000000e+00
    outer loop
      vertex 7.67400000e+01 1.26165000e+01 0.00000000e+00
      vertex 6.95985000e+01 1.32465000e+01 4.00000000e+01
      vertex 7.67400000e+01 1.26165000e+01 4.00000000e+01
    endloop
  endfacet
  facet normal 3.68393832e-02 9.99321200e-01 0.00000000e+00
    outer loop
      vertex 6.95985000e+01 1.32465000e+01 0.00000000e+00
      vertex 6.25185000e+01 1.35075000e+01 0.00000000e+00
      vertex 6.25185000e+01 1.35075000e+01 4.00000000e+01
    endloop
  endfacet
  facet normal 3.68393832e-02 9.99321200e-01 -0.00000000e+00
    outer loop
      vertex 6.95985000e+01 1.32465000e+01 0.00000000e+00
      vertex 6.25185000e+01 1.35075000e+01 4.00000000e+01
      vertex 6.95985000e+01 1.32465000e+01 4.00000000e+01
    endloop
  endfacet
  facet normal -5.11175430e-03 9.99986935e-01 0.00000000e+00
    outer loop
      vertex 6.25185000e+01 1.35075000e+01 0.00000000e+00
      vertex 5.54760000e+01 1.34715000e+01 0.00000000e+00
      vertex 5.54760000e+01 1.34715000e+01 4.00000000e+01
    endloop
  endfacet
  facet normal -5.11175430e-03 9.99986935e-01 0.00000000e+00
    outer loop
      vertex 6.25185000e+01 1.35075000e+01 0.00000000e+00
      vertex 5.54760000e+01 1.34715000e+01 4.00000000e+01
      vertex 6.25185000e+01 1.35075000e+01 4.00000000e+01
    endloop
  endfacet
  facet normal -3.79007940e-02 9.99281507e-01 0.00000000e+00
    outer loop
      vertex 5.54760000e+01 1.34715000e+01 0.00000000e+00
      vertex 4.85550000e+01 1.32090000e+01 0.00000000e+00
      vertex 4.85550000e+01 1.32090000e+01 4.00000000e+01
    endloop
  endfacet
  facet normal -3.79007940e-02 9.99281507e-01 0.00000000e+00
    outer loop
      vertex 5.54760000e+01 1.34715000e+01 0.00000000e+00
      vertex 4.85550000e+01 1.32090000e+01 4.00000000e+01
      vertex 5.54760000e+01 1.34715000e+01 4.00000000e+01
    endloop
  endfacet
  facet normal -6.99022334e-02 9.97553847e-01 0.00000000e+00
    outer loop
      vertex 4.85550000e+01 1.32090000e+01 0.00000000e+00
      vertex 4.18335000e+01 1.27380000e+01 0.00000000e+00
      vertex 4.18335000e+01 1.27380000e+01 4.00000000e+01
    endloop
  endfacet
  facet normal -6.99022334e-02 9.97553847e-01 0.00000000e+00
    outer loop
      vertex 4.85550000e+01 1.32090000e+01 0.00000000e+00
      vertex 4.18335000e+01 1.27380000e+01 4.00000000e+01
      vertex 4.85550000e+01 1.32090000e+01 4.00000000e+01
    endloop
  endfacet
  facet normal -1.00489445e-01 9.94938124e-01 0.00000000e+00
    outer loop
      vertex 4.18335000e+01 1.27380000e+01 0.00000000e+00
      vertex 3.53880000e+01 1.20870000e+01 0.00000000e+00
      vertex 3.53880000e+01 1.20870000e+01 4.00000000e+01
    endloop
  endfacet
  facet normal -1.00489445e-01 9.94938124e-01 0.00000000e+00
    outer loop
      vertex 4.18335000e+01 1.27380000e+01 0.00000000e+00
      vertex 3.53880000e+01 1.20870000e+01 4.00000000e+01
      vertex 4.18335000e+01 1.27380000e+01 4.00000000e+01
    endloop
  endfacet
  facet normal -1.32674908e-01 9.91159608e-01 0.00000000e+00
    outer loop
      vertex 3.53880000e+01 1.20870000e+01 0.00000000e+00
      vertex 2.92920000e+01 1.12710000e+01 0.00000000e+00
      vertex 2.92920000e+01 1.12710000e+01 4.00000000e+01
    endloop
  endfacet
  facet normal -1.32674908e-01 9.91159608e-01 0.00000000e+00
    outer loop
      vertex 3.53880000e+01 1.20870000e+01 0.00000000e+00
      vertex 2.92920000e+01 1.12710000e+01 4.00000000e+01
      vertex 3.53880000e+01 1.20870000e+01 4.00000000e+01
    endloop
  endfacet
  facet normal -1.66425907e-01 9.86053963e-01 0.00000000e+00
    outer loop
      vertex 2.92920000e+01 1.12710000e+01 0.00000000e+00
      vertex 2.36130000e+01 1.03125000e+01 0.00000000e+00
      vertex 2.36130000e+01 1.03125000e+01 4.00000000e+01
    endloop
  endfacet
  facet normal -1.66425907e-01 9.86053963e-01 0.00000000e+00
    outer loop
      vertex 2.92920000e+01 1.12710000e+01 0.00000000e+00
      vertex 2.36130000e+01 1.03125000e+01 4.00000000e+01
      vertex 2.92920000e+01 1.12710000e+01 4.00000000e+01
    endloop
  endfacet
  facet normal -2.03446457e-01 9.79086073e-01 0.00000000e+00
    outer loop
      vertex 2.36130000e+01 1.03125000e+01 0.00000000e+00
      vertex 1.84155000e+01 9.23250000e+00 0.00000000e+00
      vertex 1.84155000e+01 9.23250000e+00 4.00000000e+01
    endloop
  endfacet
  facet normal -2.03446457e-01 9.79086073e-01 0.00000000e+00
    outer loop
      vertex 2.36130000e+01 1.03125000e+01 0.00000000e+00
      vertex 1.84155000e+01 9.23250000e+00 4.00000000e+01
      vertex 2.36130000e+01 1.03125000e+01 4.00000000e+01
    endloop
  endfacet
  facet normal -2.45841751e-01 9.69309978e-01 0.00000000e+00
    outer loop
      vertex 1.84155000e+01 9.23250000e+00 0.00000000e+00
      vertex 1.37610000e+01 8.05200000e+00 0.00000000e+00
      vertex 1.37610000e+01 8.05200000e+00 4.00000000e+01
    endloop
  endfacet
  facet normal -2.45841751e-01 9.69309978e-01 0.00000000e+00
    outer loop
      vertex 1.84155000e+01 9.23250000e+00 0.00000000e+00
      vertex 1.37610000e+01 8.05200000e+00 4.00000000e+01
      vertex 1.84155000e+01 9.23250000e+00 4.00000000e+01
    endloop
  endfacet
  facet normal -2.96021424e-01 9.55181300e-01 0.00000000e+00
    outer loop
      vertex 1.37610000e+01 8.05200000e+00 0.00000000e+00
      vertex 9.70500000e+00 6.79500000e+00 0.00000000e+00
      vertex 9.70500000e+00 6.79500000e+00 4.00000000e+01
    endloop
  endfacet
  facet normal -2.96021424e-01 9.55181300e-01 0.00000000e+00
    outer loop
      vertex 1.37610000e+01 8.05200000e+00 0.00000000e+00
      vertex 9.70500000e+00 6.79500000e+00 4.00000000e+01
      vertex 1.37610000e+01 8.05200000e+00 4.00000000e+01
    endloop
  endfacet
  facet normal -3.59447540e-01 9.33165294e-01 0.00000000e+00
    outer loop
      vertex 9.70500000e+00 6.79500000e+00 0.00000000e+00
      vertex 6.30150000e+00 5.48400000e+00 0.00000000e+00
      vertex 6.30150000e+00 5.48400000e+00 4.00000000e+01
    endloop
  endfacet
  facet normal -3.59447540e-01 9.33165294e-01 0.00000000e+00
    outer loop
      vertex 9.70500000e+00 6.79500000e+00 0.00000000e+00
      vertex 6.30150000e+00 5.48400000e+00 4.00000000e+01
      vertex 9.70500000e+00 6.79500000e+00 4.00000000e+01
    endloop
  endfacet
  facet normal -4.47612315e-01 8.94227720e-01 0.00000000e+00
    outer loop
      vertex 6.30150000e+00 5.48400000e+00 0.00000000e+00
      vertex 3.61050000e+00 4.13700000e+00 0.00000000e+00
      vertex 3.61050000e+00 4.13700000e+00 4.00000000e+01
    endloop
  endfacet
  facet normal -4.47612315e-01 8.94227720e-01 0.00000000e+00
    outer loop
      vertex 6.30150000e+00 5.48400000e+00 0.00000000e+00
      vertex 3.61050000e+00 4.13700000e+00 4.00000000e+01
      vertex 6.30150000e+00 5.48400000e+00 4.00000000e+01
    endloop
  endfacet
  facet normal -5.84255235e-01 8.11569973e-01 0.00000000e+00
    outer loop
      vertex 3.61050000e+00 4.13700000e+00 0.00000000e+00
      vertex 1.66650000e+00 2.73750000e+00 0.00000000e+00
      vertex 1.66650000e+00 2.73750000e+00 4.00000000e+01
    endloop
  endfacet
  facet normal -5.84255235e-01 8.11569973e-01 0.00000000e+00
    outer loop
      vertex 3.61050000e+00 4.13700000e+00 0.00000000e+00
      vertex 1.66650000e+00 2.73750000e+00 4.00000000e+01
      vertex 3.61050000e+00 4.13700000e+00 4.00000000e+01
    endloop
  endfacet
  facet normal -7.58468709e-01 6.51709458e-01 0.00000000e+00
    outer loop
      vertex 1.66650000e+00 2.73750000e+00 0.00000000e+00
      vertex 4.39500000e-01 1.30950000e+00 0.00000000e+00
      vertex 4.39500000e-01 1.30950000e+00 4.00000000e+01
    endloop
  endfacet
  facet normal -7.58468709e-01 6.51709458e-01 0.00000000e+00
    outer loop
      vertex 1.66650000e+00 2.73750000e+00 0.00000000e+00
      vertex 4.39500000e-01 1.30950000e+00 4.00000000e+01
      vertex 1.66650000e+00 2.73750000e+00 4.00000000e+01
    endloop
  endfacet
  facet normal -9.48029717e-01 3.18181795e-01 0.00000000e+00
    outer loop
      vertex 4.39500000e-01 1.30950000e+00 0.00000000e+00
      vertex 0.00000000e+00 0.00000000e+00 0.00000000e+00
      vertex 0.00000000e+00 0.00000000e+00 4.00000000e+01
    endloop
  endfacet
  facet normal -9.48029717e-01 3.18181795e-01 0.00000000e+00
    outer loop
      vertex 4.39500000e-01 1.30950000e+00 0.00000000e+00
      vertex 0.00000000e+00 0.00000000e+00 4.00000000e+01
      vertex 4.39500000e-01 1.30950000e+00 4.00000000e+01
    endloop
  endfacet
  facet normal -9.48029717e-01 -3.18181795e-01 0.00000000e+00
    outer loop
      vertex 0.00000000e+00 0.00000000e+00 0.00000000e+00
      vertex 4.39500000e-01 -1.30950000e+00 0.00000000e+00
      vertex 4.39500000e-01 -1.30950000e+00 4.00000000e+01
    endloop
  endfacet
  facet normal -9.48029717e-01 -3.18181795e-01 0.00000000e+00
    outer loop
      vertex 0.00000000e+00 0.00000000e+00 0.00000000e+00
      vertex 4.39500000e-01 -1.30950000e+00 4.00000000e+01
      vertex 0.00000000e+00 0.00000000e+00 4.00000000e+01
    endloop
  endfacet
  facet normal -7.58468709e-01 -6.51709458e-01 0.00000000e+00
    outer loop
      vertex 4.39500000e-01 -1.30950000e+00 0.00000000e+00
      vertex 1.66650000e+00 -2.73750000e+00 0.00000000e+00
      vertex 1.66650000e+00 -2.73750000e+00 4.00000000e+01
    endloop
  endfacet
  facet normal -7.58468709e-01 -6.51709458e-01 0.00000000e+00
    outer loop
      vertex 4.39500000e-01 -1.30950000e+00 0.00000000e+00
      vertex 1.66650000e+00 -2.73750000e+00 4.00000000e+01
      vertex 4.39500000e-01 -1.30950000e+00 4.00000000e+01
    endloop
  endfacet
  facet normal -5.84255235e-01 -8.11569973e-01 0.00000000e+00
    outer loop
      vertex 1.66650000e+00 -2.73750000e+00 0.00000000e+00
      vertex 3.61050000e+00 -4.13700000e+00 0.00000000e+00
      vertex 3.61050000e+00 -4.13700000e+00 4.00000000e+01
    endloop
  endfacet
  facet normal -5.84255235e-01 -8.11569973e-01 0.00000000e+00
    outer loop
      vertex 1.66650000e+00 -2.73750000e+00 0.00000000e+00
      vertex 3.61050000e+00 -4.13700000e+00 4.00000000e+01
      vertex 1.66650000e+00 -2.73750000e+00 4.00000000e+01
    endloop
  endfacet
  facet normal -4.47612315e-01 -8.94227720e-01 0.00000000e+00
    outer loop
      vertex 3.61050000e+00 -4.13700000e+00 0.00000000e+00
      vertex 6.30150000e+00 -5.48400000e+00 0.00000000e+00
      vertex 6.30150000e+00 -5.48400000e+00 4.00000000e+01
    endloop
  endfacet
  facet normal -4.47612315e-01 -8.94227720e-01 0.00000000e+00
    outer loop
      vertex 3.61050000e+00 -4.13700000e+00 0.00000000e+00
      vertex 6.30150000e+00 -5.48400000e+00 4.00000000e+01
      vertex 3.61050000e+00 -4.13700000e+00 4.00000000e+01
    endloop
  endfacet
  facet normal -3.59447540e-01 -9.33165294e-01 0.00000000e+00
    outer loop
      vertex 6.30150000e+00 -5.48400000e+00 0.00000000e+00
      vertex 9.70500000e+00 -6.79500000e+00 0.00000000e+00
      vertex 9.70500000e+00 -6.79500000e+00 4.00000000e+01
    endloop
  endfacet
  facet normal -3.59447540e-01 -9.33165294e-01 0.00000000e+00
    outer loop
      vertex 6.30150000e+00 -5.48400000e+00 0.00000000e+00
      vertex 9.70500000e+00 -6.79500000e+00 4.00000000e+01
      vertex 6.30150000e+00 -5.48400000e+00 4.00000000e+01
    endloop
  endfacet
  facet normal -2.96021424e-01 -9.55181300e-01 0.00000000e+00
    outer loop
      vertex 9.70500000e+00 -6.79500000e+00 0.00000000e+00
      vertex 1.37610000e+01 -8.05200000e+00 0.00000000e+00
      vertex 1.37610000e+01 -8.05200000e+00 4.00000000e+01
    endloop
  endfacet
  facet normal -2.96021424e-01 -9.55181300e-01 0.00000000e+00
    outer loop
      vertex 9.70500000e+00 -6.79500000e+00 0.00000000e+00
      vertex 1.37610000e+01 -8.05200000e+00 4.00000000e+01
      vertex 9.70500000e+00 -6.79500000e+00 4.00000000e+01
    endloop
  endfacet
  facet normal -2.45841751e-01 -9.69309978e-01 0.00000000e+00
    outer loop
      vertex 1.37610000e+01 -8.05200000e+00 0.00000000e+00
      vertex 1.84155000e+01 -9.23250000e+00 0.00000000e+00
      vertex 1.84155000e+01 -9.23250000e+00 4.00000000e+01
    endloop
  endfacet
  facet normal -2.45841751e-01 -9.69309978e-01 0.00000000e+00
    outer loop
      vertex 1.37610000e+01 -8.05200000e+00 0.00000000e+00
      vertex 1.84155000e+01 -9.23250000e+00 4.00000000e+01
      vertex 1.37610000e+01 -8.05200000e+00 4.00000000e+01
    endloop
  endfacet
  facet normal -2.03446457e-01 -9.79086073e-01 0.00000000e+00
    outer loop
      vertex 1.84155000e+01 -9.23250000e+00 0.00000000e+00
      vertex 2.36130000e+01 -1.03125000e+01 0.00000000e+00
      vertex 2.36130000e+01 -1.03125000e+01 4.00000000e+01
    endloop
  endfacet
  facet normal -2.03446457e-01 -9.79086073e-01 0.00000000e+00
    outer loop
      vertex 1.84155000e+01 -9.23250000e+00 0.00000000e+00
      vertex 2.36130000e+01 -1.03125000e+01 4.00000000e+01
      vertex 1.84155000e+01 -9.23250000e+00 4.00000000e+01
    endloop
  endfacet
  facet normal -1.66425907e-01 -9.86053963e-01 0.00000000e+00
    outer loop
      vertex 2.36130000e+01 -1.03125000e+01 0.00000000e+00
      vertex 2.92920000e+01 -1.12710000e+01 0.00000000e+00
      vertex 2.92920000e+01 -1.12710000e+01 4.00000000e+01
    endloop
  endfacet
  facet normal -1.66425907e-01 -9.86053963e-01 0.00000000e+00
    outer loop
      vertex 2.36130000e+01 -1.03125000e+01 0.00000000e+00
      vertex 2.92920000e+01 -1.12710000e+01 4.00000000e+01
      vertex 2.36130000e+01 -1.03125000e+01 4.00000000e+01
    endloop
  endfacet
  facet normal -1.32674908e-01 -9.91159608e-01 0.00000000e+00
    outer loop
      vertex 2.92920000e+01 -1.12710000e+01 0.00000000e+00
      vertex 3.53880000e+01 -1.20870000e+01 0.00000000e+00
      vertex 3.53880000e+01 -1.20870000e+01 4.00000000e+01
    endloop
  endfacet
  facet normal -1.32674908e-01 -9.91159608e-01 0.00000000e+00
    outer loop
      vertex 2.92920000e+01 -1.12710000e+01 0.00000000e+00
      vertex 3.53880000e+01 -1.20870000e+01 4.00000000e+01
      vertex 2.92920000e+01 -1.12710000e+01 4.00000000e+01
    endloop
  endfacet
  facet normal -1.00489445e-01 -9.94938124e-01 0.00000000e+00
    outer loop
      vertex 3.53880000e+01 -1.20870000e+01 0.00000000e+00
      vertex 4.18335000e+01 -1.27380000e+01 0.00000000e+00
      vertex 4.18335000e+01 -1.27380000e+01 4.00000000e+01
    endloop
  endfacet
  facet normal -1.00489445e-01 -9.94938124e-01 0.00000000e+00
    outer loop
      vertex 3.53880000e+01 -1.20870000e+01 0.00000000e+00
      vertex 4.18335000e+01 -1.27380000e+01 4.00000000e+01
      vertex 3.53880000e+01 -1.20870000e+01 4.00000000e+01
    endloop
  endfacet
  facet normal -6.99022334e-02 -9.97553847e-01 0.00000000e+00
    outer loop
      vertex 4.18335000e+01 -1.27380000e+01 0.00000000e+00
      vertex 4.85550000e+01 -1.32090000e+01 0.00000000e+00
      vertex 4.85550000e+01 -1.32090000e+01 4.00000000e+01
    endloop
  endfacet
  facet normal -6.99022334e-02 -9.97553847e-01 0.00000000e+00
    outer loop
      vertex 4.18335000e+01 -1.27380000e+01 0.00000000e+00
      vertex 4.85550000e+01 -1.32090000e+01 4.00000000e+01
      vertex 4.18335000e+01 -1.27380000e+01 4.00000000e+01
    endloop
  endfacet
  facet normal -3.79007940e-02 -9.99281507e-01 0.00000000e+00
    outer loop
      vertex 4.85550000e+01 -1.32090000e+01 0.00000000e+00
      vertex 5.54760000e+01 -1.34715000e+01 0.00000000e+00
      vertex 5.54760000e+01 -1.34715000e+01 4.00000000e+01
    endloop
  endfacet
  facet normal -3.79007940e-02 -9.99281507e-01 0.00000000e+00
    outer loop
      vertex 4.85550000e+01 -1.32090000e+01 0.00000000e+00
      vertex 5.54760000e+01 -1.34715000e+01 4.00000000e+01
      vertex 4.85550000e+01 -1.32090000e+01 4.00000000e+01
    endloop
  endfacet
  facet normal -5.11175430e-03 -9.99986935e-01 0.00000000e+00
    outer loop
      vertex 5.54760000e+01 -1.34715000e+01 0.00000000e+00
      vertex 6.25185000e+01 -1.35075000e+01 0.00000000e+00
      vertex 6.25185000e+01 -1.35075000e+01 4.00000000e+01
    endloop
  endfacet
  facet normal -5.11175430e-03 -9.99986935e-01 0.00000000e+00
    outer loop
      vertex 5.54760000e+01 -1.34715000e+01 0.00000000e+00
      vertex 6.25185000e+01 -1.35075000e+01 4.00000000e+01
      vertex 5.54760000e+01 -1.34715000e+01 4.00000000e+01
    endloop
  endfacet
  facet normal 3.68393832e-02 -9.99321200e-01 0.00000000e+00
    outer loop
      vertex 6.25185000e+01 -1.35075000e+01 0.00000000e+00
      vertex 6.95985000e+01 -1.32465000e+01 0.00000000e+00
      vertex 6.95985000e+01 -1.32465000e+01 4.00000000e+01
    endloop
  endfacet
  facet normal 3.68393832e-02 -9.99321200e-01 0.00000000e+00
    outer loop
      vertex 6.25185000e+01 -1.35075000e+01 0.00000000e+00
      vertex 6.95985000e+01 -1.32465000e+01 4.00000000e+01
      vertex 6.25185000e+01 -1.35075000e+01 4.00000000e+01
    endloop
  endfacet
  facet normal 8.78754917e-02 -9.96131466e-01 0.00000000e+00
    outer loop
      vertex 6.95985000e+01 -1.32465000e+01 0.00000000e+00
      vertex 7.67400000e+01 -1.26165000e+01 0.00000000e+00
      vertex 7.67400000e+01 -1.26165000e+01 4.00000000e+01
    endloop
  endfacet
  facet normal 8.78754917e-02 -9.96131466e-01 0.00000000e+00
    outer loop
      vertex 6.95985000e+01 -1.32465000e+01 0.00000000e+00
      vertex 7.67400000e+01 -1.26165000e+01 4.00000000e+01
      vertex 6.95985000e+01 -1.32465000e+01 4.00000000e+01
    endloop
  endfacet
  facet normal 1.26838129e-01 -9.91923429e-01 0.00000000e+00
    outer loop
      vertex 7.67400000e+01 -1.26165000e+01 0.00000000e+00
      vertex 8.39895000e+01 -1.16895000e+01 0.00000000e+00
      vertex 8.39895000e+01 -1.16895000e+01 4.00000000e+01
    endloop
  endfacet
  facet normal 1.26838129e-01 -9.91923429e-01 0.00000000e+00
    outer loop
      vertex 7.67400000e+01 -1.26165000e+01 0.00000000e+00
      vertex 8.39895000e+01 -1.16895000e+01 4.00000000e+01
      vertex 7.67400000e+01 -1.26165000e+01 4.00000000e+01
    endloop
  endfacet
  facet normal 1.53936433e-01 -9.88080753e-01 0.00000000e+00
    outer loop
      vertex 8.39895000e+01 -1.16895000e+01 0.00000000e+00
      vertex 9.12780000e+01 -1.05540000e+01 0.00000000e+00
      vertex 9.12780000e+01 -1.05540000e+01 4.00000000e+01
    endloop
  endfacet
  facet normal 1.53936433e-01 -9.88080753e-01 0.00000000e+00
    outer loop
      vertex 8.39895000e+01 -1.16895000e+01 0.00000000e+00
      vertex 9.12780000e+01 -1.05540000e+01 4.00000000e+01
      vertex 8.39895000e+01 -1.16895000e+01 4.00000000e+01
    endloop
  endfacet
  facet normal 1.75213062e-01 -9.84530539e-01 0.00000000e+00
    outer loop
      vertex 9.12780000e+01 -1.05540000e+01 0.00000000e+00
      vertex 9.85350000e+01 -9.26250000e+00 0.00000000e+00
      vertex 9.85350000e+01 -9.26250000e+00 4.00000000e+01
    endloop
  endfacet
  facet normal 1.75213062e-01 -9.84530539e-01 0.00000000e+00
    outer loop
      vertex 9.12780000e+01 -1.05540000e+01 0.00000000e+00
      vertex 9.85350000e+01 -9.26250000e+00 4.00000000e+01
      vertex 9.12780000e+01 -1.05540000e+01 4.00000000e+01
    endloop
  endfacet
  facet normal 1.89893826e-01 -9.81804632e-01 0.00000000e+00
    outer loop
      vertex 9.85350000e+01 -9.26250000e+00 0.00000000e+00
      vertex 1.05685500e+02 -7.87950000e+00 0.00000000e+00
      vertex 1.05685500e+02 -7.87950000e+00 4.00000000e+01
    endloop
  endfacet
  facet normal 1.89893826e-01 -9.81804632e-01 0.00000000e+00
    outer loop
      vertex 9.85350000e+01 -9.26250000e+00 0.00000000e+00
      vertex 1.05685500e+02 -7.87950000e+00 4.00000000e+01
      vertex 9.85350000e+01 -9.26250000e+00 4.00000000e+01
    endloop
  endfacet
  facet normal 1.99848377e-01 -9.79826835e-01 0.00000000e+00
    outer loop
      vertex 1.05685500e+02 -7.87950000e+00 0.00000000e+00
      vertex 1.12650000e+02 -6.45900000e+00 0.00000000e+00
      vertex 1.12650000e+02 -6.45900000e+00 4.00000000e+01
    endloop
  endfacet
  facet normal 1.99848377e-01 -9.79826835e-01 0.00000000e+00
    outer loop
      vertex 1.05685500e+02 -7.87950000e+00 0.00000000e+00
      vertex 1.12650000e+02 -6.45900000e+00 4.00000000e+01
      vertex 1.05685500e+02 -7.87950000e+00 4.00000000e+01
    endloop
  endfacet
  facet normal 2.03498383e-01 -9.79075282e-01 0.00000000e+00
    outer loop
      vertex 1.12650000e+02 -6.45900000e+00 0.00000000e+00
      vertex 1.19340000e+02 -5.06850000e+00 0.00000000e+00
      vertex 1.19340000e+02 -5.06850000e+00 4.00000000e+01
    endloop
  endfacet
  facet normal 2.03498383e-01 -9.79075282e-01 0.00000000e+00
    outer loop
      vertex 1.12650000e+02 -6.45900000e+00 0.00000000e+00
      vertex 1.19340000e+02 -5.06850000e+00 4.00000000e+01
      vertex 1.12650000e+02 -6.45900000e+00 4.00000000e+01
    endloop
  endfacet
  facet normal 2.02059668e-01 -9.79373213e-01 0.00000000e+00
    outer loop
      vertex 1.19340000e+02 -5.06850000e+00 0.00000000e+00
      vertex 1.25658000e+02 -3.76500000e+00 0.00000000e+00
      vertex 1.25658000e+02 -3.76500000e+00 4.00000000e+01
    endloop
  endfacet
  facet normal 2.02059668e-01 -9.79373213e-01 0.00000000e+00
    outer loop
      vertex 1.19340000e+02 -5.06850000e+00 0.00000000e+00
      vertex 1.25658000e+02 -3.76500000e+00 4.00000000e+01
      vertex 1.19340000e+02 -5.06850000e+00 4.00000000e+01
    endloop
  endfacet
  facet normal 1.93888143e-01 -9.81023643e-01 0.00000000e+00
    outer loop
      vertex 1.25658000e+02 -3.76500000e+00 0.00000000e+00
      vertex 1.31502000e+02 -2.61000000e+00 0.00000000e+00
      vertex 1.31502000e+02 -2.61000000e+00 4.00000000e+01
    endloop
  endfacet
  facet normal 1.93888143e-01 -9.81023643e-01 0.00000000e+00
    outer loop
      vertex 1.25658000e+02 -3.76500000e+00 0.00000000e+00
      vertex 1.31502000e+02 -2.61000000e+00 4.00000000e+01
      vertex 1.25658000e+02 -3.76500000e+00 4.00000000e+01
    endloop
  endfacet
  facet normal 1.79824942e-01 -9.83698628e-01 0.00000000e+00
    outer loop
      vertex 1.31502000e+02 -2.61000000e+00 0.00000000e+00
      vertex 1.36753500e+02 -1.65000000e+00 0.00000000e+00
      vertex 1.36753500e+02 -1.65000000e+00 4.00000000e+01
    endloop
  endfacet
  facet normal 1.79824942e-01 -9.83698628e-01 0.00000000e+00
    outer loop
      vertex 1.31502000e+02 -2.61000000e+00 0.00000000e+00
      vertex 1.36753500e+02 -1.65000000e+00 4.00000000e+01
      vertex 1.31502000e+02 -2.61000000e+00 4.00000000e+01
    endloop
  endfacet
  facet normal 1.59529883e-01 -9.87193100e-01 0.00000000e+00
    outer loop
      vertex 1.36753500e+02 -1.65000000e+00 0.00000000e+00
      vertex 1.41292500e+02 -9.16500000e-01 0.00000000e+00
      vertex 1.41292500e+02 -9.16500000e-01 4.00000000e+01
    endloop
  endfacet
  facet normal 1.59529883e-01 -9.87193100e-01 0.00000000e+00
    outer loop
      vertex 1.36753500e+02 -1.65000000e+00 0.00000000e+00
      vertex 1.41292500e+02 -9.16500000e-01 4.00000000e+01
      vertex 1.36753500e+02 -1.65000000e+00 4.00000000e+01
    endloop
  endfacet
  facet normal 1.32979457e-01 -9.91118794e-01 0.00000000e+00
    outer loop
      vertex 1.41292500e+02 -9.16500000e-01 0.00000000e+00
      vertex 1.44993000e+02 -4.20000000e-01 0.00000000e+00
      vertex 1.44993000e+02 -4.20000000e-01 4.00000000e+01
    endloop
  endfacet
  facet normal 1.32979457e-01 -9.91118794e-01 0.00000000e+00
    outer loop
      vertex 1.41292500e+02 -9.16500000e-01 0.00000000e+00
      vertex 1.44993000e+02 -4.20000000e-01 4.00000000e+01
      vertex 1.41292500e+02 -9.16500000e-01 4.00000000e+01
    endloop
  endfacet
  facet normal 1.02194381e-01 -9.94764449e-01 0.00000000e+00
    outer loop
      vertex 1.44993000e+02 -4.20000000e-01 0.00000000e+00
      vertex 1.47738000e+02 -1.38000000e-01 0.00000000e+00
      vertex 1.47738000e+02 -1.38000000e-01 4.00000000e+01
    endloop
  endfacet
  facet normal 1.02194381e-01 -9.94764449e-01 0.00000000e+00
    outer loop
      vertex 1.44993000e+02 -4.20000000e-01 0.00000000e+00
      vertex 1.47738000e+02 -1.38000000e-01 4.00000000e+01
      vertex 1.44993000e+02 -4.20000000e-01 4.00000000e+01
    endloop
  endfacet
  facet normal 6.72828567e-02 -9.97733941e-01 0.00000000e+00
    outer loop
      vertex 1.47738000e+02 -1.38000000e-01 0.00000000e+00
      vertex 1.49428500e+02 -2.40000000e-02 0.00000000e+00
      vertex 1.49428500e+02 -2.40000000e-02 4.00000000e+01
    endloop
  endfacet
  facet normal 6.72828567e-02 -9.97733941e-01 0.00000000e+00
    outer loop
      vertex 1.47738000e+02 -1.38000000e-01 0.00000000e+00
      vertex 1.49428500e+02 -2.40000000e-02 4.00000000e+01
      vertex 1.47738000e+02 -1.38000000e-01 4.00000000e+01
    endloop
  endfacet
  facet normal 4.19577695e-02 -9.99119385e-01 0.00000000e+00
    outer loop
      vertex 1.49428500e+02 -2.40000000e-02 0.00000000e+00
      vertex 1.50000000e+02 0.00000000e+00 0.00000000e+00
      vertex 1.50000000e+02 0.00000000e+00 4.00000000e+01
    endloop
  endfacet
  facet normal 4.19577695e-02 -9.99119385e-01 0.00000000e+00
    outer loop
      vertex 1.49428500e+02 -2.40000000e-02 0.00000000e+00
      vertex 1.50000000e+02 0.00000000e+00 4.00000000e+01
      vertex 1.49428500e+02 -2.40000000e-02 4.00000000e+01
    endloop
  endfacet
endsolid airfoil_993
