solid airfoil_NACA2412
  facet normal 0.00000000e+00 0.00000000e+00 -1.00000000e+00
    outer loop
      vertex 1.49988000e+02 -1.89000000e-01 0.00000000e+00
      vertex 1.49605500e+02 2.73000000e-01 0.00000000e+00
      vertex 1.50012000e+02 1.89000000e-01 0.00000000e+00
    endloop
  endfacet
  facet normal 0.00000000e+00 0.00000000e+00 -1.00000000e+00
    outer loop
      vertex 1.49988000e+02 -1.89000000e-01 0.00000000e+00
      vertex 1.48389000e+02 5.25000000e-01 0.00000000e+00
      vertex 1.49605500e+02 2.73000000e-01 0.00000000e+00
    endloop
  endfacet
  facet normal 0.00000000e+00 0.00000000e+00 -1.00000000e+00
    outer loop
      vertex 1.49988000e+02 -1.89000000e-01 0.00000000e+00
      vertex 1.46373000e+02 9.34500000e-01 0.00000000e+00
      vertex 1.48389000e+02 5.25000000e-01 0.00000000e+00
    endloop
  endfacet
  facet normal 0.00000000e+00 0.00000000e+00 -1.00000000e+00
    outer loop
      vertex 1.49988000e+02 -1.89000000e-01 0.00000000e+00
      vertex 1.43583000e+02 1.48950000e+00 0.00000000e+00
      vertex 1.46373000e+02 9.34500000e-01 0.00000000e+00
    endloop
  endfacet
  facet normal 0.00000000e+00 0.00000000e+00 -1.00000000e+00
    outer loop
      vertex 1.49988000e+02 -1.89000000e-01 0.00000000e+00
      vertex 1.40043000e+02 2.17200000e+00 0.00000000e+00
      vertex 1.43583000e+02 1.48950000e+00 0.00000000e+00
    endloop
  endfacet
  facet normal 0.00000000e+00 0.00000000e+00 -1.00000000e+00
    outer loop
      vertex 1.49988000e+02 -1.89000000e-01 0.00000000e+00
      vertex 1.35793500e+02 2.96250000e+00 0.00000000e+00
      vertex 1.40043000e+02 2.17200000e+00 0.00000000e+00
    endloop
  endfacet
  facet normal 0.00000000e+00 0.00000000e+00 -1.00000000e+00
    outer loop
      vertex 1.49988000e+02 -1.89000000e-01 0.00000000e+00
      vertex 1.30876500e+02 3.83700000e+00 0.00000000e+00
      vertex 1.35793500e+02 2.96250000e+00 0.00000000e+00
    endloop
  endfacet
  facet normal 0.00000000e+00 0.00000000e+00 -1.00000000e+00
    outer loop
      vertex 1.49988000e+02 -1.89000000e-01 0.00000000e+00
      vertex 1.25346000e+02 4.77150000e+00 0.00000000e+00
      vertex 1.30876500e+02 3.83700000e+00 0.00000000e+00
    endloop
  endfacet
  facet normal 0.00000000e+00 0.00000000e+00 -1.00000000e+00
    outer loop
      vertex 1.49988000e+02 -1.89000000e-01 0.00000000e+00
      vertex 1.19260500e+02 5.73900000e+00 0.00000000e+00
      vertex 1.25346000e+02 4.77150000e+00 0.00000000e+00
    endloop
  endfacet
  facet normal 0.00000000e+00 0.00000000e+00 -1.00000000e+00
    outer loop
      vertex 1.49988000e+02 -1.89000000e-01 0.00000000e+00
      vertex 1.12684500e+02 6.71550000e+00 0.00000000e+00
      vertex 1.19260500e+02 5.73900000e+00 0.00000000e+00
    endloop
  endfacet
  facet normal 0.00000000e+00 0.00000000e+00 -1.00000000e+00
    outer loop
      vertex 1.49988000e+02 -1.89000000e-01 0.00000000e+00
      vertex 1.05688500e+02 7.67700000e+00 0.00000000e+00
      vertex 1.12684500e+02 6.71550000e+00 0.00000000e+00
    endloop
  endfacet
  facet normal 0.00000000e+00 0.00000000e+00 -1.00000000e+00
    outer loop
      vertex 1.49988000e+02 -1.89000000e-01 0.00000000e+00
      vertex 9.83505000e+01 8.59500000e+00 0.00000000e+00
      vertex 1.05688500e+02 7.67700000e+00 0.00000000e+00
    endloop
  endfacet
  facet normal 0.00000000e+00 0.00000000e+00 -1.00000000e+00
    outer loop
      vertex 1.49988000e+02 -1.89000000e-01 0.00000000e+00
      vertex 9.07470000e+01 9.44700000e+00 0.00000000e+00
      vertex 9.83505000e+01 8.59500000e+00 0.00000000e+00
    endloop
  endfacet
  facet normal 0.00000000e+00 0.00000000e+00 -1.00000000e+00
    outer loop
      vertex 1.49988000e+02 -1.89000000e-01 0.00000000e+00
      vertex 8.29650000e+01 1.02090000e+01 0.00000000e+00
      vertex 9.07470000e+01 9.44700000e+00 0.00000000e+00
    endloop
  endfacet
  facet normal 0.00000000e+00 0.00000000e+00 -1.00000000e+00
    outer loop
      vertex 1.49988000e+02 -1.89000000e-01 0.00000000e+00
      vertex 7.50885000e+01 1.08570000e+01 0.00000000e+00
      vertex 8.29650000e+01 1.02090000e+01 0.00000000e+00
    endloop
  endfacet
  facet normal 0.00000000e+00 0.00000000e+00 -1.00000000e+00
    outer loop
      vertex 1.49988000e+02 -1.89000000e-01 0.00000000e+00
      vertex 6.72045000e+01 1.13700000e+01 0.00000000e+00
      vertex 7.50885000e+01 1.08570000e+01 0.00000000e+00
    endloop
  endfacet
  facet normal 0.00000000e+00 0.00000000e+00 -1.00000000e+00
    outer loop
      vertex 1.49988000e+02 -1.89000000e-01 0.00000000e+00
      vertex 5.93985000e+01 1.17255000e+01 0.00000000e+00
      vertex 6.72045000e+01 1.13700000e+01 0.00000000e+00
    endloop
  endfacet
  facet normal 0.00000000e+00 0.00000000e+00 -1.00000000e+00
    outer loop
      vertex 1.49988000e+02 -1.89000000e-01 0.00000000e+00
      vertex 5.17020000e+01 1.18800000e+01 0.00000000e+00
      vertex 5.93985000e+01 1.17255000e+01 0.00000000e+00
    endloop
  endfacet
  facet normal 0.00000000e+00 0.00000000e+00 -1.00000000e+00
    outer loop
      vertex 1.49988000e+02 -1.89000000e-01 0.00000000e+00
      vertex 4.42620000e+01 1.17990000e+01 0.00000000e+00
      vertex 5.17020000e+01 1.18800000e+01 0.00000000e+00
    endloop
  endfacet
  facet normal 0.00000000e+00 0.00000000e+00 -1.00000000e+00
    outer loop
      vertex 1.49988000e+02 -1.89000000e-01 0.00000000e+00
      vertex 3.71655000e+01 1.14840000e+01 0.00000000e+00
      vertex 4.42620000e+01 1.17990000e+01 0.00000000e+00
    endloop
  endfacet
  facet normal 0.00000000e+00 0.00000000e+00 -1.00000000e+00
    outer loop
      vertex 1.49988000e+02 -1.89000000e-01 0.00000000e+00
      vertex 3.04965000e+01 1.09425000e+01 0.00000000e+00
      vertex 3.71655000e+01 1.14840000e+01 0.00000000e+00
    endloop
  endfacet
  facet normal 0.00000000e+00 0.00000000e+00 -1.00000000e+00
    outer loop
      vertex 1.49988000e+02 -1.89000000e-01 0.00000000e+00
      vertex 2.43330000e+01 1.01895000e+01 0.00000000e+00
      vertex 3.04965000e+01 1.09425000e+01 0.00000000e+00
    endloop
  endfacet
  facet normal 0.00000000e+00 0.00000000e+00 -1.00000000e+00
    outer loop
      vertex 1.49988000e+02 -1.89000000e-01 0.00000000e+00
      vertex 1.87455000e+01 9.24900000e+00 0.00000000e+00
      vertex 2.43330000e+01 1.01895000e+01 0.00000000e+00
    endloop
  endfacet
  facet normal 0.00000000e+00 0.00000000e+00 -1.00000000e+00
    outer loop
      vertex 1.49988000e+02 -1.89000000e-01 0.00000000e+00
      vertex 1.38000000e+01 8.14950000e+00 0.00000000e+00
      vertex 1.87455000e+01 9.24900000e+00 0.00000000e+00
    endloop
  endfacet
  facet normal 0.00000000e+00 0.00000000e+00 -1.00000000e+00
    outer loop
      vertex 1.49988000e+02 -1.89000000e-01 0.00000000e+00
      vertex 9.54900000e+00 6.92100000e+00 0.00000000e+00
      vertex 1.38000000e+01 8.14950000e+00 0.00000000e+00
    endloop
  endfacet
  facet normal 0.00000000e+00 0.00000000e+00 -1.00000000e+00
    outer loop
      vertex 1.49988000e+02 -1.89000000e-01 0.00000000e+00
      vertex 6.03900000e+00 5.60250000e+00 0.00000000e+00
      vertex 9.54900000e+00 6.92100000e+00 0.00000000e+00
    endloop
  endfacet
  facet normal 0.00000000e+00 0.00000000e+00 -1.00000000e+00
    outer loop
      vertex 1.49988000e+02 -1.89000000e-01 0.00000000e+00
      vertex 3.30750000e+00 4.22250000e+00 0.00000000e+00
      vertex 6.03900000e+00 5.60250000e+00 0.00000000e+00
    endloop
  endfacet
  facet normal 0.00000000e+00 0.00000000e+00 -1.00000000e+00
    outer loop
      vertex 1.49988000e+02 -1.89000000e-01 0.00000000e+00
      vertex 1.38150000e+00 2.81400000e+00 0.00000000e+00
      vertex 3.30750000e+00 4.22250000e+00 0.00000000e+00
    endloop
  endfacet
  facet normal 0.00000000e+00 0.00000000e+00 -1.00000000e+00
    outer loop
      vertex 1.49988000e+02 -1.89000000e-01 0.00000000e+00
      vertex 2.76000000e-01 1.40100000e+00 0.00000000e+00
      vertex 1.38150000e+00 2.81400000e+00 0.00000000e+00
    endloop
  endfacet
  facet normal 0.00000000e+00 0.00000000e+00 -1.00000000e+00
    outer loop
      vertex 1.49988000e+02 -1.89000000e-01 0.00000000e+00
      vertex 0.00000000e+00 0.00000000e+00 0.00000000e+00
      vertex 2.76000000e-01 1.40100000e+00 0.00000000e+00
    endloop
  endfacet
  facet normal -0.00000000e+00 0.00000000e+00 -1.00000000e+00
    outer loop
      vertex 1.49988000e+02 -1.89000000e-01 0.00000000e+00
      vertex 5.46000000e-01 -1.32000000e+00 0.00000000e+00
      vertex 0.00000000e+00 0.00000000e+00 0.00000000e+00
    endloop
  endfacet
  facet normal 0.00000000e+00 0.00000000e+00 -1.00000000e+00
    outer loop
      vertex 1.49988000e+02 -1.89000000e-01 0.00000000e+00
      vertex 1.89750000e+00 -2.49150000e+00 0.00000000e+00
      vertex 5.46000000e-01 -1.32000000e+00 0.00000000e+00
    endloop
  endfacet
  facet normal 0.00000000e+00 0.00000000e+00 -1.00000000e+00
    outer loop
      vertex 1.49988000e+02 -1.89000000e-01 0.00000000e+00
      vertex 4.03350000e+00 -3.51150000e+00 0.00000000e+00
      vertex 1.89750000e+00 -2.49150000e+00 0.00000000e+00
    endloop
  endfacet
  facet normal 0.00000000e+00 0.00000000e+00 -1.00000000e+00
    outer loop
      vertex 1.49988000e+02 -1.89000000e-01 0.00000000e+00
      vertex 6.92850000e+00 -4.37550000e+00 0.00000000e+00
      vertex 4.03350000e+00 -3.51150000e+00 0.00000000e+00
    endloop
  endfacet
  facet normal 0.00000000e+00 0.00000000e+00 -1.00000000e+00
    outer loop
      vertex 1.49988000e+02 -1.89000000e-01 0.00000000e+00
      vertex 1.05480000e+01 -5.08050000e+00 0.00000000e+00
      vertex 6.92850000e+00 -4.37550000e+00 0.00000000e+00
    endloop
  endfacet
  facet normal 0.00000000e+00 0.00000000e+00 -1.00000000e+00
    outer loop
      vertex 1.49988000e+02 -1.89000000e-01 0.00000000e+00
      vertex 1.48485000e+01 -5.62650000e+00 0.00000000e+00
      vertex 1.05480000e+01 -5.08050000e+00 0.00000000e+00
    endloop
  endfacet
  facet normal 0.00000000e+00 0.00000000e+00 -1.00000000e+00
    outer loop
      vertex 1.49988000e+02 -1.89000000e-01 0.00000000e+00
      vertex 1.97820000e+01 -6.01500000e+00 0.00000000e+00
      vertex 1.48485000e+01 -5.62650000e+00 0.00000000e+00
    endloop
  endfacet
  facet normal 0.00000000e+00 0.00000000e+00 -1.00000000e+00
    outer loop
      vertex 1.49988000e+02 -1.89000000e-01 0.00000000e+00
      vertex 2.52975000e+01 -6.25350000e+00 0.00000000e+00
      vertex 1.97820000e+01 -6.01500000e+00 0.00000000e+00
    endloop
  endfacet
  facet normal 0.00000000e+00 0.00000000e+00 -1.00000000e+00
    outer loop
      vertex 1.49988000e+02 -1.89000000e-01 0.00000000e+00
      vertex 3.13350000e+01 -6.35250000e+00 0.00000000e+00
      vertex 2.52975000e+01 -6.25350000e+00 0.00000000e+00
    endloop
  endfacet
  facet normal 0.00000000e+00 0.00000000e+00 -1.00000000e+00
    outer loop
      vertex 1.49988000e+02 -1.89000000e-01 0.00000000e+00
      vertex 3.78345000e+01 -6.32700000e+00 0.00000000e+00
      vertex 3.13350000e+01 -6.35250000e+00 0.00000000e+00
    endloop
  endfacet
  facet normal 0.00000000e+00 0.00000000e+00 -1.00000000e+00
    outer loop
      vertex 1.49988000e+02 -1.89000000e-01 0.00000000e+00
      vertex 4.47270000e+01 -6.19950000e+00 0.00000000e+00
      vertex 3.78345000e+01 -6.32700000e+00 0.00000000e+00
    endloop
  endfacet
  facet normal 0.00000000e+00 0.00000000e+00 -1.00000000e+00
    outer loop
      vertex 1.49988000e+02 -1.89000000e-01 0.00000000e+00
      vertex 5.19450000e+01 -5.99100000e+00 0.00000000e+00
      vertex 4.47270000e+01 -6.19950000e+00 0.00000000e+00
    endloop
  endfacet
  facet normal 0.00000000e+00 0.00000000e+00 -1.00000000e+00
    outer loop
      vertex 1.49988000e+02 -1.89000000e-01 0.00000000e+00
      vertex 5.94150000e+01 -5.72700000e+00 0.00000000e+00
      vertex 5.19450000e+01 -5.99100000e+00 0.00000000e+00
    endloop
  endfacet
  facet normal 0.00000000e+00 0.00000000e+00 -1.00000000e+00
    outer loop
      vertex 1.49988000e+02 -1.89000000e-01 0.00000000e+00
      vertex 6.71160000e+01 -5.40750000e+00 0.00000000e+00
      vertex 5.94150000e+01 -5.72700000e+00 0.00000000e+00
    endloop
  endfacet
  facet normal 0.00000000e+00 0.00000000e+00 -1.00000000e+00
    outer loop
      vertex 1.49988000e+02 -1.89000000e-01 0.00000000e+00
      vertex 7.49115000e+01 -5.02350000e+00 0.00000000e+00
      vertex 6.71160000e+01 -5.40750000e+00 0.00000000e+00
    endloop
  endfacet
  facet normal 0.00000000e+00 0.00000000e+00 -1.00000000e+00
    outer loop
      vertex 1.49988000e+02 -1.89000000e-01 0.00000000e+00
      vertex 8.27145000e+01 -4.59600000e+00 0.00000000e+00
      vertex 7.49115000e+01 -5.02350000e+00 0.00000000e+00
    endloop
  endfacet
  facet normal 0.00000000e+00 0.00000000e+00 -1.00000000e+00
    outer loop
      vertex 1.49988000e+02 -1.89000000e-01 0.00000000e+00
      vertex 9.04395000e+01 -4.14150000e+00 0.00000000e+00
      vertex 8.27145000e+01 -4.59600000e+00 0.00000000e+00
    endloop
  endfacet
  facet normal 0.00000000e+00 0.00000000e+00 -1.00000000e+00
    outer loop
      vertex 1.49988000e+02 -1.89000000e-01 0.00000000e+00
      vertex 9.80025000e+01 -3.67500000e+00 0.00000000e+00
      vertex 9.04395000e+01 -4.14150000e+00 0.00000000e+00
    endloop
  endfacet
  facet normal 0.00000000e+00 0.00000000e+00 -1.00000000e+00
    outer loop
      vertex 1.49988000e+02 -1.89000000e-01 0.00000000e+00
      vertex 1.05322500e+02 -3.21000000e+00 0.00000000e+00
      vertex 9.80025000e+01 -3.67500000e+00 0.00000000e+00
    endloop
  endfacet
  facet normal 0.00000000e+00 0.00000000e+00 -1.00000000e+00
    outer loop
      vertex 1.49988000e+02 -1.89000000e-01 0.00000000e+00
      vertex 1.12315500e+02 -2.75700000e+00 0.00000000e+00
      vertex 1.05322500e+02 -3.21000000e+00 0.00000000e+00
    endloop
  endfacet
  facet normal 0.00000000e+00 0.00000000e+00 -1.00000000e+00
    outer loop
      vertex 1.49988000e+02 -1.89000000e-01 0.00000000e+00
      vertex 1.18908000e+02 -2.32500000e+00 0.00000000e+00
      vertex 1.12315500e+02 -2.75700000e+00 0.00000000e+00
    endloop
  endfacet
  facet normal 0.00000000e+00 0.00000000e+00 -1.00000000e+00
    outer loop
      vertex 1.49988000e+02 -1.89000000e-01 0.00000000e+00
      vertex 1.25023500e+02 -1.91850000e+00 0.00000000e+00
      vertex 1.18908000e+02 -2.32500000e+00 0.00000000e+00
    endloop
  endfacet
  facet normal 0.00000000e+00 0.00000000e+00 -1.00000000e+00
    outer loop
      vertex 1.49988000e+02 -1.89000000e-01 0.00000000e+00
      vertex 1.30594500e+02 -1.54350000e+00 0.00000000e+00
      vertex 1.25023500e+02 -1.91850000e+00 0.00000000e+00
    endloop
  endfacet
  facet normal 0.00000000e+00 0.00000000e+00 -1.00000000e+00
    outer loop
      vertex 1.49988000e+02 -1.89000000e-01 0.00000000e+00
      vertex 1.35559500e+02 -1.20450000e+00 0.00000000e+00
      vertex 1.30594500e+02 -1.54350000e+00 0.00000000e+00
    endloop
  endfacet
  facet normal 0.00000000e+00 0.00000000e+00 -1.00000000e+00
    outer loop
      vertex 1.49988000e+02 -1.89000000e-01 0.00000000e+00
      vertex 1.39860000e+02 -9.07500000e-01 0.00000000e+00
      vertex 1.35559500e+02 -1.20450000e+00 0.00000000e+00
    endloop
  endfacet
  facet normal 0.00000000e+00 0.00000000e+00 -1.00000000e+00
    outer loop
      vertex 1.49988000e+02 -1.89000000e-01 0.00000000e+00
      vertex 1.43449500e+02 -6.57000000e-01 0.00000000e+00
      vertex 1.39860000e+02 -9.07500000e-01 0.00000000e+00
    endloop
  endfacet
  facet normal 0.00000000e+00 0.00000000e+00 -1.00000000e+00
    outer loop
      vertex 1.49988000e+02 -1.89000000e-01 0.00000000e+00
      vertex 1.46284500e+02 -4.54500000e-01 0.00000000e+00
      vertex 1.43449500e+02 -6.57000000e-01 0.00000000e+00
    endloop
  endfacet
  facet normal 0.00000000e+00 0.00000000e+00 -1.00000000e+00
    outer loop
      vertex 1.46284500e+02 -4.54500000e-01 0.00000000e+00
      vertex 1.49572500e+02 -2.19000000e-01 0.00000000e+00
      vertex 1.48333500e+02 -3.09000000e-01 0.00000000e+00
    endloop
  endfacet
  facet normal 0.00000000e+00 0.00000000e+00 -1.00000000e+00
    outer loop
      vertex 1.46284500e+02 -4.54500000e-01 0.00000000e+00
      vertex 1.49988000e+02 -1.89000000e-01 0.00000000e+00
      vertex 1.49572500e+02 -2.19000000e-01 0.00000000e+00
    endloop
  endfacet
  facet normal 0.00000000e+00 -0.00000000e+00 1.00000000e+00
    outer loop
      vertex 1.49988000e+02 -1.89000000e-01 4.00000000e+01
      vertex 1.50012000e+02 1.89000000e-01 4.00000000e+01
      vertex 1.49605500e+02 2.73000000e-01 4.00000000e+01
    endloop
  endfacet
  facet normal 0.00000000e+00 0.00000000e+00 1.00000000e+00
    outer loop
      vertex 1.49988000e+02 -1.89000000e-01 4.00000000e+01
      vertex 1.49605500e+02 2.73000000e-01 4.00000000e+01
      vertex 1.48389000e+02 5.25000000e-01 4.00000000e+01
    endloop
  endfacet
  facet normal 0.00000000e+00 0.00000000e+00 1.00000000e+00
    outer loop
      vertex 1.49988000e+02 -1.89000000e-01 4.00000000e+01
      vertex 1.48389000e+02 5.25000000e-01 4.00000000e+01
      vertex 1.46373000e+02 9.34500000e-01 4.00000000e+01
    endloop
  endfacet
  facet normal 0.00000000e+00 0.00000000e+00 1.00000000e+00
    outer loop
      vertex 1.49988000e+02 -1.89000000e-01 4.00000000e+01
      vertex 1.46373000e+02 9.34500000e-01 4.00000000e+01
      vertex 1.43583000e+02 1.48950000e+00 4.00000000e+01
    endloop
  endfacet
  facet normal 0.00000000e+00 0.00000000e+00 1.00000000e+00
    outer loop
      vertex 1.49988000e+02 -1.89000000e-01 4.00000000e+01
      vertex 1.43583000e+02 1.48950000e+00 4.00000000e+01
      vertex 1.40043000e+02 2.17200000e+00 4.00000000e+01
    endloop
  endfacet
  facet normal 0.00000000e+00 0.00000000e+00 1.00000000e+00
    outer loop
      vertex 1.49988000e+02 -1.89000000e-01 4.00000000e+01
      vertex 1.40043000e+02 2.17200000e+00 4.00000000e+01
      vertex 1.35793500e+02 2.96250000e+00 4.00000000e+01
    endloop
  endfacet
  facet normal 0.00000000e+00 0.00000000e+00 1.00000000e+00
    outer loop
      vertex 1.49988000e+02 -1.89000000e-01 4.00000000e+01
      vertex 1.35793500e+02 2.96250000e+00 4.00000000e+01
      vertex 1.30876500e+02 3.83700000e+00 4.00000000e+01
    endloop
  endfacet
  facet normal 0.00000000e+00 0.00000000e+00 1.00000000e+00
    outer loop
      vertex 1.49988000e+02 -1.89000000e-01 4.00000000e+01
      vertex 1.30876500e+02 3.83700000e+00 4.00000000e+01
      vertex 1.25346000e+02 4.77150000e+00 4.00000000e+01
    endloop
  endfacet
  facet normal 0.00000000e+00 0.00000000e+00 1.00000000e+00
    outer loop
      vertex 1.49988000e+02 -1.89000000e-01 4.00000000e+01
      vertex 1.25346000e+02 4.77150000e+00 4.00000000e+01
      vertex 1.19260500e+02 5.73900000e+00 4.00000000e+01
    endloop
  endfacet
  facet normal 0.00000000e+00 0.00000000e+00 1.00000000e+00
    outer loop
      vertex 1.49988000e+02 -1.89000000e-01 4.00000000e+01
      vertex 1.19260500e+02 5.73900000e+00 4.00000000e+01
      vertex 1.12684500e+02 6.71550000e+00 4.00000000e+01
    endloop
  endfacet
  facet normal 0.00000000e+00 0.00000000e+00 1.00000000e+00
    outer loop
      vertex 1.49988000e+02 -1.89000000e-01 4.00000000e+01
      vertex 1.12684500e+02 6.71550000e+00 4.00000000e+01
      vertex 1.05688500e+02 7.67700000e+00 4.00000000e+01
    endloop
  endfacet
  facet normal 0.00000000e+00 0.00000000e+00 1.00000000e+00
    outer loop
      vertex 1.49988000e+02 -1.89000000e-01 4.00000000e+01
      vertex 1.05688500e+02 7.67700000e+00 4.00000000e+01
      vertex 9.83505000e+01 8.59500000e+00 4.00000000e+01
    endloop
  endfacet
  facet normal 0.00000000e+00 0.00000000e+00 1.00000000e+00
    outer loop
      vertex 1.49988000e+02 -1.89000000e-01 4.00000000e+01
      vertex 9.83505000e+01 8.59500000e+00 4.00000000e+01
      vertex 9.07470000e+01 9.44700000e+00 4.00000000e+01
    endloop
  endfacet
  facet normal 0.00000000e+00 0.00000000e+00 1.00000000e+00
    outer loop
      vertex 1.49988000e+02 -1.89000000e-01 4.00000000e+01
      vertex 9.07470000e+01 9.44700000e+00 4.00000000e+01
      vertex 8.29650000e+01 1.02090000e+01 4.00000000e+01
    endloop
  endfacet
  facet normal 0.00000000e+00 0.00000000e+00 1.00000000e+00
    outer loop
      vertex 1.49988000e+02 -1.89000000e-01 4.00000000e+01
      vertex 8.29650000e+01 1.02090000e+01 4.00000000e+01
      vertex 7.50885000e+01 1.08570000e+01 4.00000000e+01
    endloop
  endfacet
  facet normal 0.00000000e+00 0.00000000e+00 1.00000000e+00
    outer loop
      vertex 1.49988000e+02 -1.89000000e-01 4.00000000e+01
      vertex 7.50885000e+01 1.08570000e+01 4.00000000e+01
      vertex 6.72045000e+01 1.13700000e+01 4.00000000e+01
    endloop
  endfacet
  facet normal 0.00000000e+00 0.00000000e+00 1.00000000e+00
    outer loop
      vertex 1.49988000e+02 -1.89000000e-01 4.00000000e+01
      vertex 6.72045000e+01 1.13700000e+01 4.00000000e+01
      vertex 5.93985000e+01 1.17255000e+01 4.00000000e+01
    endloop
  endfacet
  facet normal 0.00000000e+00 0.00000000e+00 1.00000000e+00
    outer loop
      vertex 1.49988000e+02 -1.89000000e-01 4.00000000e+01
      vertex 5.93985000e+01 1.17255000e+01 4.00000000e+01
      vertex 5.17020000e+01 1.18800000e+01 4.00000000e+01
    endloop
  endfacet
  facet normal 0.00000000e+00 0.00000000e+00 1.00000000e+00
    outer loop
      vertex 1.49988000e+02 -1.89000000e-01 4.00000000e+01
      vertex 5.17020000e+01 1.18800000e+01 4.00000000e+01
      vertex 4.42620000e+01 1.17990000e+01 4.00000000e+01
    endloop
  endfacet
  facet normal 0.00000000e+00 0.00000000e+00 1.00000000e+00
    outer loop
      vertex 1.49988000e+02 -1.89000000e-01 4.00000000e+01
      vertex 4.42620000e+01 1.17990000e+01 4.00000000e+01
      vertex 3.71655000e+01 1.14840000e+01 4.00000000e+01
    endloop
  endfacet
  facet normal 0.00000000e+00 0.00000000e+00 1.00000000e+00
    outer loop
      vertex 1.49988000e+02 -1.89000000e-01 4.00000000e+01
      vertex 3.71655000e+01 1.14840000e+01 4.00000000e+01
      vertex 3.04965000e+01 1.09425000e+01 4.00000000e+01
    endloop
  endfacet
  facet normal 0.00000000e+00 0.00000000e+00 1.00000000e+00
    outer loop
      vertex 1.49988000e+02 -1.89000000e-01 4.00000000e+01
      vertex 3.04965000e+01 1.09425000e+01 4.00000000e+01
      vertex 2.43330000e+01 1.01895000e+01 4.00000000e+01
    endloop
  endfacet
  facet normal 0.00000000e+00 0.00000000e+00 1.00000000e+00
    outer loop
      vertex 1.49988000e+02 -1.89000000e-01 4.00000000e+01
      vertex 2.43330000e+01 1.01895000e+01 4.00000000e+01
      vertex 1.87455000e+01 9.24900000e+00 4.00000000e+01
    endloop
  endfacet
  facet normal 0.00000000e+00 0.00000000e+00 1.00000000e+00
    outer loop
      vertex 1.49988000e+02 -1.89000000e-01 4.00000000e+01
      vertex 1.87455000e+01 9.24900000e+00 4.00000000e+01
      vertex 1.38000000e+01 8.14950000e+00 4.00000000e+01
    endloop
  endfacet
  facet normal 0.00000000e+00 0.00000000e+00 1.00000000e+00
    outer loop
      vertex 1.49988000e+02 -1.89000000e-01 4.00000000e+01
      vertex 1.38000000e+01 8.14950000e+00 4.00000000e+01
      vertex 9.54900000e+00 6.92100000e+00 4.00000000e+01
    endloop
  endfacet
  facet normal 0.00000000e+00 0.00000000e+00 1.00000000e+00
    outer loop
      vertex 1.49988000e+02 -1.89000000e-01 4.00000000e+01
      vertex 9.54900000e+00 6.92100000e+00 4.00000000e+01
      vertex 6.03900000e+00 5.60250000e+00 4.00000000e+01
    endloop
  endfacet
  facet normal 0.00000000e+00 0.00000000e+00 1.00000000e+00
    outer loop
      vertex 1.49988000e+02 -1.89000000e-01 4.00000000e+01
      vertex 6.03900000e+00 5.60250000e+00 4.00000000e+01
      vertex 3.30750000e+00 4.22250000e+00 4.00000000e+01
    endloop
  endfacet
  facet normal 0.00000000e+00 0.00000000e+00 1.00000000e+00
    outer loop
      vertex 1.49988000e+02 -1.89000000e-01 4.00000000e+01
      vertex 3.30750000e+00 4.22250000e+00 4.00000000e+01
      vertex 1.38150000e+00 2.81400000e+00 4.00000000e+01
    endloop
  endfacet
  facet normal 0.00000000e+00 0.00000000e+00 1.00000000e+00
    outer loop
      vertex 1.49988000e+02 -1.89000000e-01 4.00000000e+01
      vertex 1.38150000e+00 2.81400000e+00 4.00000000e+01
      vertex 2.76000000e-01 1.40100000e+00 4.00000000e+01
    endloop
  endfacet
  facet normal 0.00000000e+00 0.00000000e+00 1.00000000e+00
    outer loop
      vertex 1.49988000e+02 -1.89000000e-01 4.00000000e+01
      vertex 2.76000000e-01 1.40100000e+00 4.00000000e+01
      vertex 0.00000000e+00 0.00000000e+00 4.00000000e+01
    endloop
  endfacet
  facet normal 0.00000000e+00 0.00000000e+00 1.00000000e+00
    outer loop
      vertex 1.49988000e+02 -1.89000000e-01 4.00000000e+01
      vertex 0.00000000e+00 0.00000000e+00 4.00000000e+01
      vertex 5.46000000e-01 -1.32000000e+00 4.00000000e+01
    endloop
  endfacet
  facet normal 0.00000000e+00 0.00000000e+00 1.00000000e+00
    outer loop
      vertex 1.49988000e+02 -1.89000000e-01 4.00000000e+01
      vertex 5.46000000e-01 -1.32000000e+00 4.00000000e+01
      vertex 1.89750000e+00 -2.49150000e+00 4.00000000e+01
    endloop
  endfacet
  facet normal 0.00000000e+00 0.00000000e+00 1.00000000e+00
    outer loop
      vertex 1.49988000e+02 -1.89000000e-01 4.00000000e+01
      vertex 1.89750000e+00 -2.49150000e+00 4.00000000e+01
      vertex 4.03350000e+00 -3.51150000e+00 4.00000000e+01
    endloop
  endfacet
  facet normal 0.00000000e+00 0.00000000e+00 1.00000000e+00
    outer loop
      vertex 1.49988000e+02 -1.89000000e-01 4.00000000e+01
      vertex 4.03350000e+00 -3.51150000e+00 4.00000000e+01
      vertex 6.92850000e+00 -4.37550000e+00 4.00000000e+01
    endloop
  endfacet
  facet normal 0.00000000e+00 0.00000000e+00 1.00000000e+00
    outer loop
      vertex 1.49988000e+02 -1.89000000e-01 4.00000000e+01
      vertex 6.92850000e+00 -4.37550000e+00 4.00000000e+01
      vertex 1.05480000e+01 -5.08050000e+00 4.00000000e+01
    endloop
  endfacet
  facet normal 0.00000000e+00 0.00000000e+00 1.00000000e+00
    outer loop
      vertex 1.49988000e+02 -1.89000000e-01 4.00000000e+01
      vertex 1.05480000e+01 -5.08050000e+00 4.00000000e+01
      vertex 1.48485000e+01 -5.62650000e+00 4.00000000e+01
    endloop
  endfacet
  facet normal 0.00000000e+00 0.00000000e+00 1.00000000e+00
    outer loop
      vertex 1.49988000e+02 -1.89000000e-01 4.00000000e+01
      vertex 1.48485000e+01 -5.62650000e+00 4.00000000e+01
      vertex 1.97820000e+01 -6.01500000e+00 4.00000000e+01
    endloop
  endfacet
  facet normal 0.00000000e+00 0.00000000e+00 1.00000000e+00
    outer loop
      vertex 1.49988000e+02 -1.89000000e-01 4.00000000e+01
      vertex 1.97820000e+01 -6.01500000e+00 4.00000000e+01
      vertex 2.52975000e+01 -6.25350000e+00 4.00000000e+01
    endloop
  endfacet
  facet normal 0.00000000e+00 0.00000000e+00 1.00000000e+00
    outer loop
      vertex 1.49988000e+02 -1.89000000e-01 4.00000000e+01
      vertex 2.52975000e+01 -6.25350000e+00 4.00000000e+01
      vertex 3.13350000e+01 -6.35250000e+00 4.00000000e+01
    endloop
  endfacet
  facet normal 0.00000000e+00 0.00000000e+00 1.00000000e+00
    outer loop
      vertex 1.49988000e+02 -1.89000000e-01 4.00000000e+01
      vertex 3.13350000e+01 -6.35250000e+00 4.00000000e+01
      vertex 3.78345000e+01 -6.32700000e+00 4.00000000e+01
    endloop
  endfacet
  facet normal 0.00000000e+00 0.00000000e+00 1.00000000e+00
    outer loop
      vertex 1.49988000e+02 -1.89000000e-01 4.00000000e+01
      vertex 3.78345000e+01 -6.32700000e+00 4.00000000e+01
      vertex 4.47270000e+01 -6.19950000e+00 4.00000000e+01
    endloop
  endfacet
  facet normal 0.00000000e+00 0.00000000e+00 1.00000000e+00
    outer loop
      vertex 1.49988000e+02 -1.89000000e-01 4.00000000e+01
      vertex 4.47270000e+01 -6.19950000e+00 4.00000000e+01
      vertex 5.19450000e+01 -5.99100000e+00 4.00000000e+01
    endloop
  endfacet
  facet normal 0.00000000e+00 0.00000000e+00 1.00000000e+00
    outer loop
      vertex 1.49988000e+02 -1.89000000e-01 4.00000000e+01
      vertex 5.19450000e+01 -5.99100000e+00 4.00000000e+01
      vertex 5.94150000e+01 -5.72700000e+00 4.00000000e+01
    endloop
  endfacet
  facet normal 0.00000000e+00 0.00000000e+00 1.00000000e+00
    outer loop
      vertex 1.49988000e+02 -1.89000000e-01 4.00000000e+01
      vertex 5.94150000e+01 -5.72700000e+00 4.00000000e+01
      vertex 6.71160000e+01 -5.40750000e+00 4.00000000e+01
    endloop
  endfacet
  facet normal 0.00000000e+00 0.00000000e+00 1.00000000e+00
    outer loop
      vertex 1.49988000e+02 -1.89000000e-01 4.00000000e+01
      vertex 6.71160000e+01 -5.40750000e+00 4.00000000e+01
      vertex 7.49115000e+01 -5.02350000e+00 4.00000000e+01
    endloop
  endfacet
  facet normal 0.00000000e+00 0.00000000e+00 1.00000000e+00
    outer loop
      vertex 1.49988000e+02 -1.89000000e-01 4.00000000e+01
      vertex 7.49115000e+01 -5.02350000e+00 4.00000000e+01
      vertex 8.27145000e+01 -4.59600000e+00 4.00000000e+01
    endloop
  endfacet
  facet normal 0.00000000e+00 0.00000000e+00 1.00000000e+00
    outer loop
      vertex 1.49988000e+02 -1.89000000e-01 4.00000000e+01
      vertex 8.27145000e+01 -4.59600000e+00 4.00000000e+01
      vertex 9.04395000e+01 -4.14150000e+00 4.00000000e+01
    endloop
  endfacet
  facet normal 0.00000000e+00 0.00000000e+00 1.00000000e+00
    outer loop
      vertex 1.49988000e+02 -1.89000000e-01 4.00000000e+01
      vertex 9.04395000e+01 -4.14150000e+00 4.00000000e+01
      vertex 9.80025000e+01 -3.67500000e+00 4.00000000e+01
    endloop
  endfacet
  facet normal 0.00000000e+00 0.00000000e+00 1.00000000e+00
    outer loop
      vertex 1.49988000e+02 -1.89000000e-01 4.00000000e+01
      vertex 9.80025000e+01 -3.67500000e+00 4.00000000e+01
      vertex 1.05322500e+02 -3.21000000e+00 4.00000000e+01
    endloop
  endfacet
  facet normal 0.00000000e+00 0.00000000e+00 1.00000000e+00
    outer loop
      vertex 1.49988000e+02 -1.89000000e-01 4.00000000e+01
      vertex 1.05322500e+02 -3.21000000e+00 4.00000000e+01
      vertex 1.12315500e+02 -2.75700000e+00 4.00000000e+01
    endloop
  endfacet
  facet normal 0.00000000e+00 0.00000000e+00 1.00000000e+00
    outer loop
      vertex 1.49988000e+02 -1.89000000e-01 4.00000000e+01
      vertex 1.12315500e+02 -2.75700000e+00 4.00000000e+01
      vertex 1.18908000e+02 -2.32500000e+00 4.00000000e+01
    endloop
  endfacet
  facet normal 0.00000000e+00 0.00000000e+00 1.00000000e+00
    outer loop
      vertex 1.49988000e+02 -1.89000000e-01 4.00000000e+01
      vertex 1.18908000e+02 -2.32500000e+00 4.00000000e+01
      vertex 1.25023500e+02 -1.91850000e+00 4.00000000e+01
    endloop
  endfacet
  facet normal 0.00000000e+00 0.00000000e+00 1.00000000e+00
    outer loop
      vertex 1.49988000e+02 -1.89000000e-01 4.00000000e+01
      vertex 1.25023500e+02 -1.91850000e+00 4.00000000e+01
      vertex 1.30594500e+02 -1.54350000e+00 4.00000000e+01
    endloop
  endfacet
  facet normal 0.00000000e+00 0.00000000e+00 1.00000000e+00
    outer loop
      vertex 1.49988000e+02 -1.89000000e-01 4.00000000e+01
      vertex 1.30594500e+02 -1.54350000e+00 4.00000000e+01
      vertex 1.35559500e+02 -1.20450000e+00 4.00000000e+01
    endloop
  endfacet
  facet normal 0.00000000e+00 0.00000000e+00 1.00000000e+00
    outer loop
      vertex 1.49988000e+02 -1.89000000e-01 4.00000000e+01
      vertex 1.35559500e+02 -1.20450000e+00 4.00000000e+01
      vertex 1.39860000e+02 -9.07500000e-01 4.00000000e+01
    endloop
  endfacet
  facet normal 0.00000000e+00 0.00000000e+00 1.00000000e+00
    outer loop
      vertex 1.49988000e+02 -1.89000000e-01 4.00000000e+01
      vertex 1.39860000e+02 -9.07500000e-01 4.00000000e+01
      vertex 1.43449500e+02 -6.57000000e-01 4.00000000e+01
    endloop
  endfacet
  facet normal 0.00000000e+00 0.00000000e+00 1.00000000e+00
    outer loop
      vertex 1.49988000e+02 -1.89000000e-01 4.00000000e+01
      vertex 1.43449500e+02 -6.57000000e-01 4.00000000e+01
      vertex 1.46284500e+02 -4.54500000e-01 4.00000000e+01
    endloop
  endfacet
  facet normal 0.00000000e+00 0.00000000e+00 1.00000000e+00
    outer loop
      vertex 1.46284500e+02 -4.54500000e-01 4.00000000e+01
      vertex 1.48333500e+02 -3.09000000e-01 4.00000000e+01
      vertex 1.49572500e+02 -2.19000000e-01 4.00000000e+01
    endloop
  endfacet
  facet normal 0.00000000e+00 0.00000000e+00 1.00000000e+00
    outer loop
      vertex 1.46284500e+02 -4.54500000e-01 4.00000000e+01
      vertex 1.49572500e+02 -2.19000000e-01 4.00000000e+01
      vertex 1.49988000e+02 -1.89000000e-01 4.00000000e+01
    endloop
  endfacet
  facet normal 2.02366608e-01 9.79309836e-01 0.00000000e+00
    outer loop
      vertex 1.50012000e+02 1.89000000e-01 0.00000000e+00
      vertex 1.49605500e+02 2.73000000e-01 0.00000000e+00
      vertex 1.49605500e+02 2.73000000e-01 4.00000000e+01
    endloop
  endfacet
  facet normal 2.02366608e-01 9.79309836e-01 -0.00000000e+00
    outer loop
      vertex 1.50012000e+02 1.89000000e-01 0.00000000e+00
      vertex 1.49605500e+02 2.73000000e-01 4.00000000e+01
      vertex 1.50012000e+02 1.89000000e-01 4.00000000e+01
    endloop
  endfacet
  facet normal 2.02845153e-01 9.79210827e-01 0.00000000e+00
    outer loop
      vertex 1.49605500e+02 2.73000000e-01 0.00000000e+00
      vertex 1.48389000e+02 5.25000000e-01 0.00000000e+00
      vertex 1.48389000e+02 5.25000000e-01 4.00000000e+01
    endloop
  endfacet
  facet normal 2.02845153e-01 9.79210827e-01 -0.00000000e+00
    outer loop
      vertex 1.49605500e+02 2.73000000e-01 0.00000000e+00
      vertex 1.48389000e+02 5.25000000e-01 4.00000000e+01
      vertex 1.49605500e+02 2.73000000e-01 4.00000000e+01
    endloop
  endfacet
  facet normal 1.99059924e-01 9.79987320e-01 0.00000000e+00
    outer loop
      vertex 1.48389000e+02 5.25000000e-01 0.00000000e+00
      vertex 1.46373000e+02 9.34500000e-01 0.00000000e+00
      vertex 1.46373000e+02 9.34500000e-01 4.00000000e+01
    endloop
  endfacet
  facet normal 1.99059924e-01 9.79987320e-01 -0.00000000e+00
    outer loop
      vertex 1.48389000e+02 5.25000000e-01 0.00000000e+00
      vertex 1.46373000e+02 9.34500000e-01 4.00000000e+01
      vertex 1.48389000e+02 5.25000000e-01 4.00000000e+01
    endloop
  endfacet
  facet normal 1.95101987e-01 9.80782960e-01 0.00000000e+00
    outer loop
      vertex 1.46373000e+02 9.34500000e-01 0.00000000e+00
      vertex 1.43583000e+02 1.48950000e+00 0.00000000e+00
      vertex 1.43583000e+02 1.48950000e+00 4.00000000e+01
    endloop
  endfacet
  facet normal 1.95101987e-01 9.80782960e-01 -0.00000000e+00
    outer loop
      vertex 1.46373000e+02 9.34500000e-01 0.00000000e+00
      vertex 1.43583000e+02 1.48950000e+00 4.00000000e+01
      vertex 1.46373000e+02 9.34500000e-01 4.00000000e+01
    endloop
  endfacet
  facet normal 1.89310328e-01 9.81917308e-01 0.00000000e+00
    outer loop
      vertex 1.43583000e+02 1.48950000e+00 0.00000000e+00
      vertex 1.40043000e+02 2.17200000e+00 0.00000000e+00
      vertex 1.40043000e+02 2.17200000e+00 4.00000000e+01
    endloop
  endfacet
  facet normal 1.89310328e-01 9.81917308e-01 -0.00000000e+00
    outer loop
      vertex 1.43583000e+02 1.48950000e+00 0.00000000e+00
      vertex 1.40043000e+02 2.17200000e+00 4.00000000e+01
      vertex 1.43583000e+02 1.48950000e+00 4.00000000e+01
    endloop
  endfacet
  facet normal 1.82884515e-01 9.83134403e-01 0.00000000e+00
    outer loop
      vertex 1.40043000e+02 2.17200000e+00 0.00000000e+00
      vertex 1.35793500e+02 2.96250000e+00 0.00000000e+00
      vertex 1.35793500e+02 2.96250000e+00 4.00000000e+01
    endloop
  endfacet
  facet normal 1.82884515e-01 9.83134403e-01 -0.00000000e+00
    outer loop
      vertex 1.40043000e+02 2.17200000e+00 0.00000000e+00
      vertex 1.35793500e+02 2.96250000e+00 4.00000000e+01
      vertex 1.40043000e+02 2.17200000e+00 4.00000000e+01
    endloop
  endfacet
  facet normal 1.75104504e-01 9.84549853e-01 0.00000000e+00
    outer loop
      vertex 1.35793500e+02 2.96250000e+00 0.00000000e+00
      vertex 1.30876500e+02 3.83700000e+00 0.00000000e+00
      vertex 1.30876500e+02 3.83700000e+00 4.00000000e+01
    endloop
  endfacet
  facet normal 1.75104504e-01 9.84549853e-01 -0.00000000e+00
    outer loop
      vertex 1.35793500e+02 2.96250000e+00 0.00000000e+00
      vertex 1.30876500e+02 3.83700000e+00 4.00000000e+01
      vertex 1.35793500e+02 2.96250000e+00 4.00000000e+01
    endloop
  endfacet
  facet normal 1.66610311e-01 9.86022821e-01 0.00000000e+00
    outer loop
      vertex 1.30876500e+02 3.83700000e+00 0.00000000e+00
      vertex 1.25346000e+02 4.77150000e+00 0.00000000e+00
      vertex 1.25346000e+02 4.77150000e+00 4.00000000e+01
    endloop
  endfacet
  facet normal 1.66610311e-01 9.86022821e-01 -0.00000000e+00
    outer loop
      vertex 1.30876500e+02 3.83700000e+00 0.00000000e+00
      vertex 1.25346000e+02 4.77150000e+00 4.00000000e+01
      vertex 1.30876500e+02 3.83700000e+00 4.00000000e+01
    endloop
  endfacet
  facet normal 1.57012525e-01 9.87596611e-01 0.00000000e+00
    outer loop
      vertex 1.25346000e+02 4.77150000e+00 0.00000000e+00
      vertex 1.19260500e+02 5.73900000e+00 0.00000000e+00
      vertex 1.19260500e+02 5.73900000e+00 4.00000000e+01
    endloop
  endfacet
  facet normal 1.57012525e-01 9.87596611e-01 -0.00000000e+00
    outer loop
      vertex 1.25346000e+02 4.77150000e+00 0.00000000e+00
      vertex 1.19260500e+02 5.73900000e+00 4.00000000e+01
      vertex 1.25346000e+02 4.77150000e+00 4.00000000e+01
    endloop
  endfacet
  facet normal 1.46883915e-01 9.89153737e-01 0.00000000e+00
    outer loop
      vertex 1.19260500e+02 5.73900000e+00 0.00000000e+00
      vertex 1.12684500e+02 6.71550000e+00 0.00000000e+00
      vertex 1.12684500e+02 6.71550000e+00 4.00000000e+01
    endloop
  endfacet
  facet normal 1.46883915e-01 9.89153737e-01 -0.00000000e+00
    outer loop
      vertex 1.19260500e+02 5.73900000e+00 0.00000000e+00
      vertex 1.12684500e+02 6.71550000e+00 4.00000000e+01
      vertex 1.19260500e+02 5.73900000e+00 4.00000000e+01
    endloop
  endfacet
  facet normal 1.36155799e-01 9.90687437e-01 0.00000000e+00
    outer loop
      vertex 1.12684500e+02 6.71550000e+00 0.00000000e+00
      vertex 1.05688500e+02 7.67700000e+00 0.00000000e+00
      vertex 1.05688500e+02 7.67700000e+00 4.00000000e+01
    endloop
  endfacet
  facet normal 1.36155799e-01 9.90687437e-01 -0.00000000e+00
    outer loop
      vertex 1.12684500e+02 6.71550000e+00 0.00000000e+00
      vertex 1.05688500e+02 7.67700000e+00 4.00000000e+01
      vertex 1.12684500e+02 6.71550000e+00 4.00000000e+01
    endloop
  endfacet
  facet normal 1.24134591e-01 9.92265390e-01 0.00000000e+00
    outer loop
      vertex 1.05688500e+02 7.67700000e+00 0.00000000e+00
      vertex 9.83505000e+01 8.59500000e+00 0.00000000e+00
      vertex 9.83505000e+01 8.59500000e+00 4.00000000e+01
    endloop
  endfacet
  facet normal 1.24134591e-01 9.92265390e-01 -0.00000000e+00
    outer loop
      vertex 1.05688500e+02 7.67700000e+00 0.00000000e+00
      vertex 9.83505000e+01 8.59500000e+00 4.00000000e+01
      vertex 1.05688500e+02 7.67700000e+00 4.00000000e+01
    endloop
  endfacet
  facet normal 1.11356741e-01 9.93780497e-01 0.00000000e+00
    outer loop
      vertex 9.83505000e+01 8.59500000e+00 0.00000000e+00
      vertex 9.07470000e+01 9.44700000e+00 0.00000000e+00
      vertex 9.07470000e+01 9.44700000e+00 4.00000000e+01
    endloop
  endfacet
  facet normal 1.11356741e-01 9.93780497e-01 -0.00000000e+00
    outer loop
      vertex 9.83505000e+01 8.59500000e+00 0.00000000e+00
      vertex 9.07470000e+01 9.44700000e+00 4.00000000e+01
      vertex 9.83505000e+01 8.59500000e+00 4.00000000e+01
    endloop
  endfacet
  facet normal 9.74522022e-02 9.95240206e-01 0.00000000e+00
    outer loop
      vertex 9.07470000e+01 9.44700000e+00 0.00000000e+00
      vertex 8.29650000e+01 1.02090000e+01 0.00000000e+00
      vertex 8.29650000e+01 1.02090000e+01 4.00000000e+01
    endloop
  endfacet
  facet normal 9.74522022e-02 9.95240206e-01 -0.00000000e+00
    outer loop
      vertex 9.07470000e+01 9.44700000e+00 0.00000000e+00
      vertex 8.29650000e+01 1.02090000e+01 4.00000000e+01
      vertex 9.07470000e+01 9.44700000e+00 4.00000000e+01
    endloop
  endfacet
  facet normal 8.19930326e-02 9.96632903e-01 0.00000000e+00
    outer loop
      vertex 8.29650000e+01 1.02090000e+01 0.00000000e+00
      vertex 7.50885000e+01 1.08570000e+01 0.00000000e+00
      vertex 7.50885000e+01 1.08570000e+01 4.00000000e+01
    endloop
  endfacet
  facet normal 8.19930326e-02 9.96632903e-01 -0.00000000e+00
    outer loop
      vertex 8.29650000e+01 1.02090000e+01 0.00000000e+00
      vertex 7.50885000e+01 1.08570000e+01 4.00000000e+01
      vertex 8.29650000e+01 1.02090000e+01 4.00000000e+01
    endloop
  endfacet
  facet normal 6.49311820e-02 9.97889744e-01 0.00000000e+00
    outer loop
      vertex 7.50885000e+01 1.08570000e+01 0.00000000e+00
      vertex 6.72045000e+01 1.13700000e+01 0.00000000e+00
      vertex 6.72045000e+01 1.13700000e+01 4.00000000e+01
    endloop
  endfacet
  facet normal 6.49311820e-02 9.97889744e-01 -0.00000000e+00
    outer loop
      vertex 7.50885000e+01 1.08570000e+01 0.00000000e+00
      vertex 6.72045000e+01 1.13700000e+01 4.00000000e+01
      vertex 7.50885000e+01 1.08570000e+01 4.00000000e+01
    endloop
  endfacet
  facet normal 4.54947358e-02 9.98964578e-01 0.00000000e+00
    outer loop
      vertex 6.72045000e+01 1.13700000e+01 0.00000000e+00
      vertex 5.93985000e+01 1.17255000e+01 0.00000000e+00
      vertex 5.93985000e+01 1.17255000e+01 4.00000000e+01
    endloop
  endfacet
  facet normal 4.54947358e-02 9.98964578e-01 -0.00000000e+00
    outer loop
      vertex 6.72045000e+01 1.13700000e+01 0.00000000e+00
      vertex 5.93985000e+01 1.17255000e+01 4.00000000e+01
      vertex 6.72045000e+01 1.13700000e+01 4.00000000e+01
    endloop
  endfacet
  facet normal 2.00700163e-02 9.99798577e-01 0.00000000e+00
    outer loop
      vertex 5.93985000e+01 1.17255000e+01 0.00000000e+00
      vertex 5.17020000e+01 1.18800000e+01 0.00000000e+00
      vertex 5.17020000e+01 1.18800000e+01 4.00000000e+01
    endloop
  endfacet
  facet normal 2.00700163e-02 9.99798577e-01 -0.00000000e+00
    outer loop
      vertex 5.93985000e+01 1.17255000e+01 0.00000000e+00
      vertex 5.17020000e+01 1.18800000e+01 4.00000000e+01
      vertex 5.93985000e+01 1.17255000e+01 4.00000000e+01
    endloop
  endfacet
  facet normal -1.08864516e-02 9.99940741e-01 0.00000000e+00
    outer loop
      vertex 5.17020000e+01 1.18800000e+01 0.00000000e+00
      vertex 4.42620000e+01 1.17990000e+01 0.00000000e+00
      vertex 4.42620000e+01 1.17990000e+01 4.00000000e+01
    endloop
  endfacet
  facet normal -1.08864516e-02 9.99940741e-01 0.00000000e+00
    outer loop
      vertex 5.17020000e+01 1.18800000e+01 0.00000000e+00
      vertex 4.42620000e+01 1.17990000e+01 4.00000000e+01
      vertex 5.17020000e+01 1.18800000e+01 4.00000000e+01
    endloop
  endfacet
  facet normal -4.43444142e-02 9.99016303e-01 0.00000000e+00
    outer loop
      vertex 4.42620000e+01 1.17990000e+01 0.00000000e+00
      vertex 3.71655000e+01 1.14840000e+01 0.00000000e+00
      vertex 3.71655000e+01 1.14840000e+01 4.00000000e+01
    endloop
  endfacet
  facet normal -4.43444142e-02 9.99016303e-01 0.00000000e+00
    outer loop
      vertex 4.42620000e+01 1.17990000e+01 0.00000000e+00
      vertex 3.71655000e+01 1.14840000e+01 4.00000000e+01
      vertex 4.42620000e+01 1.17990000e+01 4.00000000e+01
    endloop
  endfacet
  facet normal -8.09302376e-02 9.96719768e-01 0.00000000e+00
    outer loop
      vertex 3.71655000e+01 1.14840000e+01 0.00000000e+00
      vertex 3.04965000e+01 1.09425000e+01 0.00000000e+00
      vertex 3.04965000e+01 1.09425000e+01 4.00000000e+01
    endloop
  endfacet
  facet normal -8.09302376e-02 9.96719768e-01 0.00000000e+00
    outer loop
      vertex 3.71655000e+01 1.14840000e+01 0.00000000e+00
      vertex 3.04965000e+01 1.09425000e+01 4.00000000e+01
      vertex 3.71655000e+01 1.14840000e+01 4.00000000e+01
    endloop
  endfacet
  facet normal -1.21269182e-01 9.92619658e-01 0.00000000e+00
    outer loop
      vertex 3.04965000e+01 1.09425000e+01 0.00000000e+00
      vertex 2.43330000e+01 1.01895000e+01 0.00000000e+00
      vertex 2.43330000e+01 1.01895000e+01 4.00000000e+01
    endloop
  endfacet
  facet normal -1.21269182e-01 9.92619658e-01 0.00000000e+00
    outer loop
      vertex 3.04965000e+01 1.09425000e+01 0.00000000e+00
      vertex 2.43330000e+01 1.01895000e+01 4.00000000e+01
      vertex 3.04965000e+01 1.09425000e+01 4.00000000e+01
    endloop
  endfacet
  facet normal -1.65987168e-01 9.86127913e-01 0.00000000e+00
    outer loop
      vertex 2.43330000e+01 1.01895000e+01 0.00000000e+00
      vertex 1.87455000e+01 9.24900000e+00 0.00000000e+00
      vertex 1.87455000e+01 9.24900000e+00 4.00000000e+01
    endloop
  endfacet
  facet normal -1.65987168e-01 9.86127913e-01 0.00000000e+00
    outer loop
      vertex 2.43330000e+01 1.01895000e+01 0.00000000e+00
      vertex 1.87455000e+01 9.24900000e+00 4.00000000e+01
      vertex 2.43330000e+01 1.01895000e+01 4.00000000e+01
    endloop
  endfacet
  facet normal -2.17024505e-01 9.76166156e-01 0.00000000e+00
    outer loop
      vertex 1.87455000e+01 9.24900000e+00 0.00000000e+00
      vertex 1.38000000e+01 8.14950000e+00 0.00000000e+00
      vertex 1.38000000e+01 8.14950000e+00 4.00000000e+01
    endloop
  endfacet
  facet normal -2.17024505e-01 9.76166156e-01 0.00000000e+00
    outer loop
      vertex 1.87455000e+01 9.24900000e+00 0.00000000e+00
      vertex 1.38000000e+01 8.14950000e+00 4.00000000e+01
      vertex 1.87455000e+01 9.24900000e+00 4.00000000e+01
    endloop
  endfacet
  facet normal -2.77630038e-01 9.60688067e-01 0.00000000e+00
    outer loop
      vertex 1.38000000e+01 8.14950000e+00 0.00000000e+00
      vertex 9.54900000e+00 6.92100000e+00 0.00000000e+00
      vertex 9.54900000e+00 6.92100000e+00 4.00000000e+01
    endloop
  endfacet
  facet normal -2.77630038e-01 9.60688067e-01 0.00000000e+00
    outer loop
      vertex 1.38000000e+01 8.14950000e+00 0.00000000e+00
      vertex 9.54900000e+00 6.92100000e+00 4.00000000e+01
      vertex 1.38000000e+01 8.14950000e+00 4.00000000e+01
    endloop
  endfacet
  facet normal -3.51649488e-01 9.36131742e-01 0.00000000e+00
    outer loop
      vertex 9.54900000e+00 6.92100000e+00 0.00000000e+00
      vertex 6.03900000e+00 5.60250000e+00 0.00000000e+00
      vertex 6.03900000e+00 5.60250000e+00 4.00000000e+01
    endloop
  endfacet
  facet normal -3.51649488e-01 9.36131742e-01 0.00000000e+00
    outer loop
      vertex 9.54900000e+00 6.92100000e+00 0.00000000e+00
      vertex 6.03900000e+00 5.60250000e+00 4.00000000e+01
      vertex 9.54900000e+00 6.92100000e+00 4.00000000e+01
    endloop
  endfacet
  facet normal -4.50934831e-01 8.92556877e-01 0.00000000e+00
    outer loop
      vertex 6.03900000e+00 5.60250000e+00 0.00000000e+00
      vertex 3.30750000e+00 4.22250000e+00 0.00000000e+00
      vertex 3.30750000e+00 4.22250000e+00 4.00000000e+01
    endloop
  endfacet
  facet normal -4.50934831e-01 8.92556877e-01 0.00000000e+00
    outer loop
      vertex 6.03900000e+00 5.60250000e+00 0.00000000e+00
      vertex 3.30750000e+00 4.22250000e+00 4.00000000e+01
      vertex 6.03900000e+00 5.60250000e+00 4.00000000e+01
    endloop
  endfacet
  facet normal -5.90300263e-01 8.07183746e-01 0.00000000e+00
    outer loop
      vertex 3.30750000e+00 4.22250000e+00 0.00000000e+00
      vertex 1.38150000e+00 2.81400000e+00 0.00000000e+00
      vertex 1.38150000e+00 2.81400000e+00 4.00000000e+01
    endloop
  endfacet
  facet normal -5.90300263e-01 8.07183746e-01 0.00000000e+00
    outer loop
      vertex 3.30750000e+00 4.22250000e+00 0.00000000e+00
      vertex 1.38150000e+00 2.81400000e+00 4.00000000e+01
      vertex 3.30750000e+00 4.22250000e+00 4.00000000e+01
    endloop
  endfacet
  facet normal -7.87593208e-01 6.16195536e-01 0.00000000e+00
    outer loop
      vertex 1.38150000e+00 2.81400000e+00 0.00000000e+00
      vertex 2.76000000e-01 1.40100000e+00 0.00000000e+00
      vertex 2.76000000e-01 1.40100000e+00 4.00000000e+01
    endloop
  endfacet
  facet normal -7.87593208e-01 6.16195536e-01 0.00000000e+00
    outer loop
      vertex 1.38150000e+00 2.81400000e+00 0.00000000e+00
      vertex 2.76000000e-01 1.40100000e+00 4.00000000e+01
      vertex 1.38150000e+00 2.81400000e+00 4.00000000e+01
    endloop
  endfacet
  facet normal -9.81142237e-01 1.93287122e-01 0.00000000e+00
    outer loop
      vertex 2.76000000e-01 1.40100000e+00 0.00000000e+00
      vertex 0.00000000e+00 0.00000000e+00 0.00000000e+00
      vertex 0.00000000e+00 0.00000000e+00 4.00000000e+01
    endloop
  endfacet
  facet normal -9.81142237e-01 1.93287122e-01 0.00000000e+00
    outer loop
      vertex 2.76000000e-01 1.40100000e+00 0.00000000e+00
      vertex 0.00000000e+00 0.00000000e+00 4.00000000e+01
      vertex 2.76000000e-01 1.40100000e+00 4.00000000e+01
    endloop
  endfacet
  facet normal -9.24067995e-01 -3.82228125e-01 0.00000000e+00
    outer loop
      vertex 0.00000000e+00 0.00000000e+00 0.00000000e+00
      vertex 5.46000000e-01 -1.32000000e+00 0.00000000e+00
      vertex 5.46000000e-01 -1.32000000e+00 4.00000000e+01
    endloop
  endfacet
  facet normal -9.24067995e-01 -3.82228125e-01 0.00000000e+00
    outer loop
      vertex 0.00000000e+00 0.00000000e+00 0.00000000e+00
      vertex 5.46000000e-01 -1.32000000e+00 4.00000000e+01
      vertex 0.00000000e+00 0.00000000e+00 4.00000000e+01
    endloop
  endfacet
  facet normal -6.54994394e-01 -7.55633737e-01 0.00000000e+00
    outer loop
      vertex 5.46000000e-01 -1.32000000e+00 0.00000000e+00
      vertex 1.89750000e+00 -2.49150000e+00 0.00000000e+00
      vertex 1.89750000e+00 -2.49150000e+00 4.00000000e+01
    endloop
  endfacet
  facet normal -6.54994394e-01 -7.55633737e-01 0.00000000e+00
    outer loop
      vertex 5.46000000e-01 -1.32000000e+00 0.00000000e+00
      vertex 1.89750000e+00 -2.49150000e+00 4.00000000e+01
      vertex 5.46000000e-01 -1.32000000e+00 4.00000000e+01
    endloop
  endfacet
  facet normal -4.30917261e-01 -9.02391442e-01 0.00000000e+00
    outer loop
      vertex 1.89750000e+00 -2.49150000e+00 0.00000000e+00
      vertex 4.03350000e+00 -3.51150000e+00 0.00000000e+00
      vertex 4.03350000e+00 -3.51150000e+00 4.00000000e+01
    endloop
  endfacet
  facet normal -4.30917261e-01 -9.02391442e-01 0.00000000e+00
    outer loop
      vertex 1.89750000e+00 -2.49150000e+00 0.00000000e+00
      vertex 4.03350000e+00 -3.51150000e+00 4.00000000e+01
      vertex 1.89750000e+00 -2.49150000e+00 4.00000000e+01
    endloop
  endfacet
  facet normal -2.85981093e-01 -9.58235260e-01 0.00000000e+00
    outer loop
      vertex 4.03350000e+00 -3.51150000e+00 0.00000000e+00
      vertex 6.92850000e+00 -4.37550000e+00 0.00000000e+00
      vertex 6.92850000e+00 -4.37550000e+00 4.00000000e+01
    endloop
  endfacet
  facet normal -2.85981093e-01 -9.58235260e-01 0.00000000e+00
    outer loop
      vertex 4.03350000e+00 -3.51150000e+00 0.00000000e+00
      vertex 6.92850000e+00 -4.37550000e+00 4.00000000e+01
      vertex 4.03350000e+00 -3.51150000e+00 4.00000000e+01
    endloop
  endfacet
  facet normal -1.91185393e-01 -9.81553944e-01 0.00000000e+00
    outer loop
      vertex 6.92850000e+00 -4.37550000e+00 0.00000000e+00
      vertex 1.05480000e+01 -5.08050000e+00 0.00000000e+00
      vertex 1.05480000e+01 -5.08050000e+00 4.00000000e+01
    endloop
  endfacet
  facet normal -1.91185393e-01 -9.81553944e-01 0.00000000e+00
    outer loop
      vertex 6.92850000e+00 -4.37550000e+00 0.00000000e+00
      vertex 1.05480000e+01 -5.08050000e+00 4.00000000e+01
      vertex 6.92850000e+00 -4.37550000e+00 4.00000000e+01
    endloop
  endfacet
  facet normal -1.25950916e-01 -9.92036474e-01 0.00000000e+00
    outer loop
      vertex 1.05480000e+01 -5.08050000e+00 0.00000000e+00
      vertex 1.48485000e+01 -5.62650000e+00 0.00000000e+00
      vertex 1.48485000e+01 -5.62650000e+00 4.00000000e+01
    endloop
  endfacet
  facet normal -1.25950916e-01 -9.92036474e-01 0.00000000e+00
    outer loop
      vertex 1.05480000e+01 -5.08050000e+00 0.00000000e+00
      vertex 1.48485000e+01 -5.62650000e+00 4.00000000e+01
      vertex 1.05480000e+01 -5.08050000e+00 4.00000000e+01
    endloop
  endfacet
  facet normal -7.85043076e-02 -9.96913774e-01 0.00000000e+00
    outer loop
      vertex 1.48485000e+01 -5.62650000e+00 0.00000000e+00
      vertex 1.97820000e+01 -6.01500000e+00 0.00000000e+00
      vertex 1.97820000e+01 -6.01500000e+00 4.00000000e+01
    endloop
  endfacet
  facet normal -7.85043076e-02 -9.96913774e-01 0.00000000e+00
    outer loop
      vertex 1.48485000e+01 -5.62650000e+00 0.00000000e+00
      vertex 1.97820000e+01 -6.01500000e+00 4.00000000e+01
      vertex 1.48485000e+01 -5.62650000e+00 4.00000000e+01
    endloop
  endfacet
  facet normal -4.32014020e-02 -9.99066384e-01 0.00000000e+00
    outer loop
      vertex 1.97820000e+01 -6.01500000e+00 0.00000000e+00
      vertex 2.52975000e+01 -6.25350000e+00 0.00000000e+00
      vertex 2.52975000e+01 -6.25350000e+00 4.00000000e+01
    endloop
  endfacet
  facet normal -4.32014020e-02 -9.99066384e-01 0.00000000e+00
    outer loop
      vertex 1.97820000e+01 -6.01500000e+00 0.00000000e+00
      vertex 2.52975000e+01 -6.25350000e+00 4.00000000e+01
      vertex 1.97820000e+01 -6.01500000e+00 4.00000000e+01
    endloop
  endfacet
  facet normal -1.63953115e-02 -9.99865588e-01 0.00000000e+00
    outer loop
      vertex 2.52975000e+01 -6.25350000e+00 0.00000000e+00
      vertex 3.13350000e+01 -6.35250000e+00 0.00000000e+00
      vertex 3.13350000e+01 -6.35250000e+00 4.00000000e+01
    endloop
  endfacet
  facet normal -1.63953115e-02 -9.99865588e-01 0.00000000e+00
    outer loop
      vertex 2.52975000e+01 -6.25350000e+00 0.00000000e+00
      vertex 3.13350000e+01 -6.35250000e+00 4.00000000e+01
      vertex 2.52975000e+01 -6.25350000e+00 4.00000000e+01
    endloop
  endfacet
  facet normal 3.92334853e-03 -9.99992304e-01 0.00000000e+00
    outer loop
      vertex 3.13350000e+01 -6.35250000e+00 0.00000000e+00
      vertex 3.78345000e+01 -6.32700000e+00 0.00000000e+00
      vertex 3.78345000e+01 -6.32700000e+00 4.00000000e+01
    endloop
  endfacet
  facet normal 3.92334853e-03 -9.99992304e-01 0.00000000e+00
    outer loop
      vertex 3.13350000e+01 -6.35250000e+00 0.00000000e+00
      vertex 3.78345000e+01 -6.32700000e+00 4.00000000e+01
      vertex 3.13350000e+01 -6.35250000e+00 4.00000000e+01
    endloop
  endfacet
  facet normal 1.84952036e-02 -9.99828949e-01 0.00000000e+00
    outer loop
      vertex 3.78345000e+01 -6.32700000e+00 0.00000000e+00
      vertex 4.47270000e+01 -6.19950000e+00 0.00000000e+00
      vertex 4.47270000e+01 -6.19950000e+00 4.00000000e+01
    endloop
  endfacet
  facet normal 1.84952036e-02 -9.99828949e-01 0.00000000e+00
    outer loop
      vertex 3.78345000e+01 -6.32700000e+00 0.00000000e+00
      vertex 4.47270000e+01 -6.19950000e+00 4.00000000e+01
      vertex 3.78345000e+01 -6.32700000e+00 4.00000000e+01
    endloop
  endfacet
  facet normal 2.88740742e-02 -9.99583057e-01 0.00000000e+00
    outer loop
      vertex 4.47270000e+01 -6.19950000e+00 0.00000000e+00
      vertex 5.19450000e+01 -5.99100000e+00 0.00000000e+00
      vertex 5.19450000e+01 -5.99100000e+00 4.00000000e+01
    endloop
  endfacet
  facet normal 2.88740742e-02 -9.99583057e-01 0.00000000e+00
    outer loop
      vertex 4.47270000e+01 -6.19950000e+00 0.00000000e+00
      vertex 5.19450000e+01 -5.99100000e+00 4.00000000e+01
      vertex 4.47270000e+01 -6.19950000e+00 4.00000000e+01
    endloop
  endfacet
  facet normal 3.53193152e-02 -9.99376078e-01 0.00000000e+00
    outer loop
      vertex 5.19450000e+01 -5.99100000e+00 0.00000000e+00
      vertex 5.94150000e+01 -5.72700000e+00 0.00000000e+00
      vertex 5.94150000e+01 -5.72700000e+00 4.00000000e+01
    endloop
  endfacet
  facet normal 3.53193152e-02 -9.99376078e-01 0.00000000e+00
    outer loop
      vertex 5.19450000e+01 -5.99100000e+00 0.00000000e+00
      vertex 5.94150000e+01 -5.72700000e+00 4.00000000e+01
      vertex 5.19450000e+01 -5.99100000e+00 4.00000000e+01
    endloop
  endfacet
  facet normal 4.14524585e-02 -9.99140477e-01 0.00000000e+00
    outer loop
      vertex 5.94150000e+01 -5.72700000e+00 0.00000000e+00
      vertex 6.71160000e+01 -5.40750000e+00 0.00000000e+00
      vertex 6.71160000e+01 -5.40750000e+00 4.00000000e+01
    endloop
  endfacet
  facet normal 4.14524585e-02 -9.99140477e-01 0.00000000e+00
    outer loop
      vertex 5.94150000e+01 -5.72700000e+00 0.00000000e+00
      vertex 6.71160000e+01 -5.40750000e+00 4.00000000e+01
      vertex 5.94150000e+01 -5.72700000e+00 4.00000000e+01
    endloop
  endfacet
  facet normal 4.91995336e-02 -9.98788970e-01 0.00000000e+00
    outer loop
      vertex 6.71160000e+01 -5.40750000e+00 0.00000000e+00
      vertex 7.49115000e+01 -5.02350000e+00 0.00000000e+00
      vertex 7.49115000e+01 -5.02350000e+00 4.00000000e+01
    endloop
  endfacet
  facet normal 4.91995336e-02 -9.98788970e-01 0.00000000e+00
    outer loop
      vertex 6.71160000e+01 -5.40750000e+00 0.00000000e+00
      vertex 7.49115000e+01 -5.02350000e+00 4.00000000e+01
      vertex 6.71160000e+01 -5.40750000e+00 4.00000000e+01
    endloop
  endfacet
  facet normal 5.47045821e-02 -9.98502583e-01 0.00000000e+00
    outer loop
      vertex 7.49115000e+01 -5.02350000e+00 0.00000000e+00
      vertex 8.27145000e+01 -4.59600000e+00 0.00000000e+00
      vertex 8.27145000e+01 -4.59600000e+00 4.00000000e+01
    endloop
  endfacet
  facet normal 5.47045821e-02 -9.98502583e-01 0.00000000e+00
    outer loop
      vertex 7.49115000e+01 -5.02350000e+00 0.00000000e+00
      vertex 8.27145000e+01 -4.59600000e+00 4.00000000e+01
      vertex 7.49115000e+01 -5.02350000e+00 4.00000000e+01
    endloop
  endfacet
  facet normal 5.87333850e-02 -9.98273705e-01 0.00000000e+00
    outer loop
      vertex 8.27145000e+01 -4.59600000e+00 0.00000000e+00
      vertex 9.04395000e+01 -4.14150000e+00 0.00000000e+00
      vertex 9.04395000e+01 -4.14150000e+00 4.00000000e+01
    endloop
  endfacet
  facet normal 5.87333850e-02 -9.98273705e-01 0.00000000e+00
    outer loop
      vertex 8.27145000e+01 -4.59600000e+00 0.00000000e+00
      vertex 9.04395000e+01 -4.14150000e+00 4.00000000e+01
      vertex 8.27145000e+01 -4.59600000e+00 4.00000000e+01
    endloop
  endfacet
  facet normal 6.15648670e-02 -9.98103084e-01 0.00000000e+00
    outer loop
      vertex 9.04395000e+01 -4.14150000e+00 0.00000000e+00
      vertex 9.80025000e+01 -3.67500000e+00 0.00000000e+00
      vertex 9.80025000e+01 -3.67500000e+00 4.00000000e+01
    endloop
  endfacet
  facet normal 6.15648670e-02 -9.98103084e-01 0.00000000e+00
    outer loop
      vertex 9.04395000e+01 -4.14150000e+00 0.00000000e+00
      vertex 9.80025000e+01 -3.67500000e+00 4.00000000e+01
      vertex 9.04395000e+01 -4.14150000e+00 4.00000000e+01
    endloop
  endfacet
  facet normal 6.33968041e-02 -9.97988399e-01 0.00000000e+00
    outer loop
      vertex 9.80025000e+01 -3.67500000e+00 0.00000000e+00
      vertex 1.05322500e+02 -3.21000000e+00 0.00000000e+00
      vertex 1.05322500e+02 -3.21000000e+00 4.00000000e+01
    endloop
  endfacet
  facet normal 6.33968041e-02 -9.97988399e-01 0.00000000e+00
    outer loop
      vertex 9.80025000e+01 -3.67500000e+00 0.00000000e+00
      vertex 1.05322500e+02 -3.21000000e+00 4.00000000e+01
      vertex 9.80025000e+01 -3.67500000e+00 4.00000000e+01
    endloop
  endfacet
  facet normal 6.46435740e-02 -9.97908417e-01 0.00000000e+00
    outer loop
      vertex 1.05322500e+02 -3.21000000e+00 0.00000000e+00
      vertex 1.12315500e+02 -2.75700000e+00 0.00000000e+00
      vertex 1.12315500e+02 -2.75700000e+00 4.00000000e+01
    endloop
  endfacet
  facet normal 6.46435740e-02 -9.97908417e-01 0.00000000e+00
    outer loop
      vertex 1.05322500e+02 -3.21000000e+00 0.00000000e+00
      vertex 1.12315500e+02 -2.75700000e+00 4.00000000e+01
      vertex 1.05322500e+02 -3.21000000e+00 4.00000000e+01
    endloop
  endfacet
  facet normal 6.53887693e-02 -9.97859864e-01 0.00000000e+00
    outer loop
      vertex 1.12315500e+02 -2.75700000e+00 0.00000000e+00
      vertex 1.18908000e+02 -2.32500000e+00 0.00000000e+00
      vertex 1.18908000e+02 -2.32500000e+00 4.00000000e+01
    endloop
  endfacet
  facet normal 6.53887693e-02 -9.97859864e-01 0.00000000e+00
    outer loop
      vertex 1.12315500e+02 -2.75700000e+00 0.00000000e+00
      vertex 1.18908000e+02 -2.32500000e+00 4.00000000e+01
      vertex 1.12315500e+02 -2.75700000e+00 4.00000000e+01
    endloop
  endfacet
  facet normal 6.63240849e-02 -9.97798134e-01 0.00000000e+00
    outer loop
      vertex 1.18908000e+02 -2.32500000e+00 0.00000000e+00
      vertex 1.25023500e+02 -1.91850000e+00 0.00000000e+00
      vertex 1.25023500e+02 -1.91850000e+00 4.00000000e+01
    endloop
  endfacet
  facet normal 6.63240849e-02 -9.97798134e-01 0.00000000e+00
    outer loop
      vertex 1.18908000e+02 -2.32500000e+00 0.00000000e+00
      vertex 1.25023500e+02 -1.91850000e+00 4.00000000e+01
      vertex 1.18908000e+02 -2.32500000e+00 4.00000000e+01
    endloop
  endfacet
  facet normal 6.71608884e-02 -9.97742159e-01 0.00000000e+00
    outer loop
      vertex 1.25023500e+02 -1.91850000e+00 0.00000000e+00
      vertex 1.30594500e+02 -1.54350000e+00 0.00000000e+00
      vertex 1.30594500e+02 -1.54350000e+00 4.00000000e+01
    endloop
  endfacet
  facet normal 6.71608884e-02 -9.97742159e-01 0.00000000e+00
    outer loop
      vertex 1.25023500e+02 -1.91850000e+00 0.00000000e+00
      vertex 1.30594500e+02 -1.54350000e+00 4.00000000e+01
      vertex 1.25023500e+02 -1.91850000e+00 4.00000000e+01
    endloop
  endfacet
  facet normal 6.81193482e-02 -9.97677179e-01 0.00000000e+00
    outer loop
      vertex 1.30594500e+02 -1.54350000e+00 0.00000000e+00
      vertex 1.35559500e+02 -1.20450000e+00 0.00000000e+00
      vertex 1.35559500e+02 -1.20450000e+00 4.00000000e+01
    endloop
  endfacet
  facet normal 6.81193482e-02 -9.97677179e-01 0.00000000e+00
    outer loop
      vertex 1.30594500e+02 -1.54350000e+00 0.00000000e+00
      vertex 1.35559500e+02 -1.20450000e+00 4.00000000e+01
      vertex 1.30594500e+02 -1.54350000e+00 4.00000000e+01
    endloop
  endfacet
  facet normal 6.88976280e-02 -9.97623735e-01 0.00000000e+00
    outer loop
      vertex 1.35559500e+02 -1.20450000e+00 0.00000000e+00
      vertex 1.39860000e+02 -9.07500000e-01 0.00000000e+00
      vertex 1.39860000e+02 -9.07500000e-01 4.00000000e+01
    endloop
  endfacet
  facet normal 6.88976280e-02 -9.97623735e-01 0.00000000e+00
    outer loop
      vertex 1.35559500e+02 -1.20450000e+00 0.00000000e+00
      vertex 1.39860000e+02 -9.07500000e-01 4.00000000e+01
      vertex 1.35559500e+02 -1.20450000e+00 4.00000000e+01
    endloop
  endfacet
  facet normal 6.96175583e-02 -9.97573754e-01 0.00000000e+00
    outer loop
      vertex 1.39860000e+02 -9.07500000e-01 0.00000000e+00
      vertex 1.43449500e+02 -6.57000000e-01 0.00000000e+00
      vertex 1.43449500e+02 -6.57000000e-01 4.00000000e+01
    endloop
  endfacet
  facet normal 6.96175583e-02 -9.97573754e-01 0.00000000e+00
    outer loop
      vertex 1.39860000e+02 -9.07500000e-01 0.00000000e+00
      vertex 1.43449500e+02 -6.57000000e-01 4.00000000e+01
      vertex 1.39860000e+02 -9.07500000e-01 4.00000000e+01
    endloop
  endfacet
  facet normal 7.12470500e-02 -9.97458700e-01 0.00000000e+00
    outer loop
      vertex 1.43449500e+02 -6.57000000e-01 0.00000000e+00
      vertex 1.46284500e+02 -4.54500000e-01 0.00000000e+00
      vertex 1.46284500e+02 -4.54500000e-01 4.00000000e+01
    endloop
  endfacet
  facet normal 7.12470500e-02 -9.97458700e-01 0.00000000e+00
    outer loop
      vertex 1.43449500e+02 -6.57000000e-01 0.00000000e+00
      vertex 1.46284500e+02 -4.54500000e-01 4.00000000e+01
      vertex 1.43449500e+02 -6.57000000e-01 4.00000000e+01
    endloop
  endfacet
  facet normal 7.08318901e-02 -9.97488267e-01 0.00000000e+00
    outer loop
      vertex 1.46284500e+02 -4.54500000e-01 0.00000000e+00
      vertex 1.48333500e+02 -3.09000000e-01 0.00000000e+00
      vertex 1.48333500e+02 -3.09000000e-01 4.00000000e+01
    endloop
  endfacet
  facet normal 7.08318901e-02 -9.97488267e-01 0.00000000e+00
    outer loop
      vertex 1.46284500e+02 -4.54500000e-01 0.00000000e+00
      vertex 1.48333500e+02 -3.09000000e-01 4.00000000e+01
      vertex 1.46284500e+02 -4.54500000e-01 4.00000000e+01
    endloop
  endfacet
  facet normal 7.24483414e-02 -9.97372166e-01 0.00000000e+00
    outer loop
      vertex 1.48333500e+02 -3.09000000e-01 0.00000000e+00
      vertex 1.49572500e+02 -2.19000000e-01 0.00000000e+00
      vertex 1.49572500e+02 -2.19000000e-01 4.00000000e+01
    endloop
  endfacet
  facet normal 7.24483414e-02 -9.97372166e-01 0.00000000e+00
    outer loop
      vertex 1.48333500e+02 -3.09000000e-01 0.00000000e+00
      vertex 1.49572500e+02 -2.19000000e-01 4.00000000e+01
      vertex 1.48333500e+02 -3.09000000e-01 4.00000000e+01
    endloop
  endfacet
  facet normal 7.20146983e-02 -9.97403571e-01 0.00000000e+00
    outer loop
      vertex 1.49572500e+02 -2.19000000e-01 0.00000000e+00
      vertex 1.49988000e+02 -1.89000000e-01 0.00000000e+00
      vertex 1.49988000e+02 -1.89000000e-01 4.00000000e+01
    endloop
  endfacet
  facet normal 7.20146983e-02 -9.97403571e-01 0.00000000e+00
    outer loop
      vertex 1.49572500e+02 -2.19000000e-01 0.00000000e+00
      vertex 1.49988000e+02 -1.89000000e-01 4.00000000e+01
      vertex 1.49572500e+02 -2.19000000e-01 4.00000000e+01
    endloop
  endfacet
  facet normal 9.97990453e-01 -6.33644732e-02 0.00000000e+00
    outer loop
      vertex 1.49988000e+02 -1.89000000e-01 0.00000000e+00
      vertex 1.50012000e+02 1.89000000e-01 0.00000000e+00
      vertex 1.50012000e+02 1.89000000e-01 4.00000000e+01
    endloop
  endfacet
  facet normal 9.97990453e-01 -6.33644732e-02 0.00000000e+00
    outer loop
      vertex 1.49988000e+02 -1.89000000e-01 0.00000000e+00
      vertex 1.50012000e+02 1.89000000e-01 4.00000000e+01
      vertex 1.49988000e+02 -1.89000000e-01 4.00000000e+01
    endloop
  endfacet
endsolid airfoil_NACA2412
